<?xml version="1.0" encoding="UTF-8"?>
<!DOCTYPE svg  PUBLIC '-//W3C//DTD SVG 1.1//EN'  'http://www.w3.org/Graphics/SVG/1.1/DTD/svg11.dtd'>
<svg enable-background="new 0 0 50 50" version="1.1" viewBox="0 0 50 50" xml:space="preserve" xmlns="http://www.w3.org/2000/svg" xmlns:xlink="http://www.w3.org/1999/xlink">
<symbol id="cl" viewBox="0 -16.65 18.95 16.65">
		<linearGradient id="cx" x1="-11.625" x2="18.925" y1="-8.3252" y2="-8.3252" gradientUnits="userSpaceOnUse">
			<stop stop-color="#fff" stop-opacity=".2" offset=".0627"/>
			<stop stop-color="#fff" stop-opacity=".2" offset=".1647"/>
		</linearGradient>
		<path d="m10.15-1.9c1.467 0.867 2.4 1.433 2.8 1.7l0.55 0.2c-0.367-0.433-1.133-0.917-2.3-1.45-1.067-0.467-1.783-0.983-2.15-1.55s-0.383-1.167-0.05-1.8c0.333-0.6 0.8-1.034 1.4-1.3l1.65-0.65c0.3-0.1 1.034-0.15 2.2-0.15 1.467-0.067 2.55 0.017 3.25 0.25 0.2 0.066 0.45 0.2 0.75 0.4 0.3 0.233 0.533 0.383 0.7 0.45-0.333-0.534-0.6-0.9-0.8-1.1l-0.65-0.5-0.5-0.2c-0.833-0.267-1.267-0.417-1.3-0.45-0.233-0.1-0.467-0.267-0.7-0.5l-0.45-0.15-1.1-0.05c-0.033-0.2-0.15-0.45-0.35-0.75-0.233-0.333-0.4-0.567-0.5-0.7-0.434-0.867-0.767-1.417-1-1.65-0.267-0.233-0.733-0.35-1.4-0.35-0.767 0.067-1.284 0.1-1.55 0.1-0.467 0-0.75-0.017-0.85-0.05-0.3-0.133-0.733-0.434-1.3-0.9-1.267-1.034-1.983-1.617-2.15-1.75-0.067-0.067-0.4-0.367-1-0.9-0.4-0.367-0.7-0.683-0.9-0.95 0.633 1.367 1.167 2.333 1.6 2.9 0.534 0.8 1.184 1.433 1.95 1.9 0.8 0.567 1.383 1.083 1.75 1.55 0.2 0.233 0.3 0.583 0.3 1.05 0 0.7-0.033 1.083-0.1 1.15s-0.283 0.033-0.65-0.1c-1.067-0.2-1.75-0.583-2.05-1.15-0.233-0.367-0.517-0.983-0.85-1.85l-0.6-1-0.95-1.2c-0.2-0.267-0.633-0.55-1.3-0.85-0.7-0.4-1.167-0.683-1.4-0.85l-0.15-0.1c0.133 0.167 0.833 0.833 2.1 2 0.8 0.633 1.35 1.467 1.65 2.5 0.433 1.267 1.033 2.4 1.8 3.4 0.067 0.067 0.55 0.8 1.45 2.2 0.567 0.9 1.083 1.583 1.55 2.05 0.333 0.333 0.867 0.717 1.6 1.15z" clip-rule="evenodd" fill="url(#cx)" fill-rule="evenodd"/>
</symbol>
<symbol id="cm" viewBox="0 -1.15 2.5 1.15">
		<linearGradient id="dj" x1="-26.625" x2="3.925" y1="-.5752" y2="-.5752" gradientUnits="userSpaceOnUse">
			<stop stop-color="#fff" stop-opacity=".2" offset=".0627"/>
			<stop stop-color="#fff" stop-opacity=".2" offset=".1647"/>
		</linearGradient>
		<path d="m0.7-0.65c0.033 0.033 0.467 0.183 1.3 0.45l0.5 0.2-0.9-0.4c-0.7-0.367-1.233-0.617-1.6-0.75 0.233 0.233 0.467 0.4 0.7 0.5z" clip-rule="evenodd" fill="url(#dj)" fill-rule="evenodd"/>
</symbol>
<symbol id="dz" viewBox="-0.018 -42.503 36.393 42.478">
			<path d="m24.55-2.95c0.667-0.533 1.067-0.983 1.2-1.35 0.1-0.267 0.15-0.7 0.15-1.3 0.167-0.767 0.533-1.934 1.1-3.5 0.167-0.566 0.533-1.517 1.1-2.85 0.866-2.066 1.9-3.75 3.1-5.05 0.367-0.434 0.733-1.067 1.1-1.9 0.434-0.967 0.767-1.617 1-1.95 0.333-0.434 0.767-0.95 1.3-1.55 0.433-0.534 0.716-1.167 0.85-1.9 0.067-0.366 0.333-1.25 0.8-2.65 0.333-1 0-2.033-1-3.1-0.067-0.066-0.35-0.3-0.85-0.7-0.333-0.233-0.517-0.534-0.55-0.9-0.067-0.534-0.05-1.384 0.05-2.55-0.133-1.033-0.617-2.1-1.45-3.2-0.466-0.534-0.75-0.85-0.85-0.95-0.3-0.267-0.65-0.434-1.05-0.5h-6c-1.466 0-2.75-0.267-3.85-0.8l-1.65-0.95c-0.333-0.2-1-0.6-2-1.2-0.9-0.5-1.617-0.733-2.15-0.7-0.167 0-0.45 0.066-0.85 0.2-0.433 0.167-0.716 0.267-0.85 0.3l-2.1 0.55c-0.233 0.067-0.667 0.15-1.3 0.25-0.6 0.067-1.05 0.167-1.35 0.3-0.866 0.4-1.6 1.116-2.2 2.15-0.633 1.267-1.167 2.216-1.6 2.85-0.333 0.466-0.767 0.816-1.3 1.05-1 0.5-1.517 0.75-1.55 0.75-0.433 0.3-0.917 0.967-1.45 2-0.367 0.7-0.45 1.333-0.25 1.9 0.333 0.633 0.583 1.15 0.75 1.55 0.233 0.5 0.233 1.366 0 2.6-0.3 1.634-0.45 2.6-0.45 2.9 0.033 0.433 0.133 0.816 0.3 1.15 0.267 0.367 0.467 0.7 0.6 1 0.733 1.633 1.367 2.833 1.9 3.6 0.434 0.633 1.317 1.55 2.65 2.75 0.8 0.633 1.35 1.466 1.65 2.5 0.433 1.267 1.033 2.4 1.8 3.4 1.2 2.033 2.2 3.45 3 4.25 0.333 0.333 0.867 0.716 1.6 1.15 1.467 0.867 2.4 1.434 2.8 1.7l3.4 1.4c0.433 0.2 0.783 0.267 1.05 0.2 0.2-0.066 0.483-0.283 0.85-0.65 0.3-0.333 0.7-0.7 1.2-1.1 0.2-0.2 0.651-0.583 1.35-1.15z" clip-rule="evenodd" fill="#81675C" fill-rule="evenodd"/>
			<g clip-rule="evenodd" fill-rule="evenodd">
				<path d="m21.2-7.1c1.5 0.267 2.5 0.883 3 1.85 0.3 0.534 0.5 1.25 0.6 2.15l0.35-0.35c-0.066-0.066-0.1-0.367-0.1-0.9 0-0.267-0.066-0.7-0.2-1.3l-0.45-0.4c-0.467-0.833-1.283-1.35-2.45-1.55-1.4-0.066-2.417-0.167-3.05-0.3-1.066-0.267-1.733-0.667-2-1.2-0.2-0.434-0.2-1.3 0-2.6 0.167 0.167 0.333 0.417 0.5 0.75 0.167 0.367 0.3 0.65 0.4 0.85-0.066-0.467-0.15-0.783-0.25-0.95-0.2-0.4-0.517-0.75-0.95-1.05-0.267-0.167-0.7-0.383-1.3-0.65-0.6-0.3-0.966-0.517-1.1-0.65-0.3-0.233-0.466-0.55-0.5-0.95v-1.1c0-0.433-0.05-0.8-0.15-1.1-0.333-0.966-0.9-1.75-1.7-2.35-0.4-0.267-1.15-0.634-2.25-1.1-1.034-0.4-1.784-0.8-2.25-1.2-0.567-0.5-1.05-1.25-1.45-2.25l0.25 0.85c0.2 0.5 0.55 0.95 1.05 1.35 0.833 0.9 1.5 1.466 2 1.7l-1.3 0.35c-0.133-0.1-0.4-0.267-0.8-0.5-0.333-0.167-0.583-0.333-0.75-0.5-0.167-0.2-0.3-0.466-0.4-0.8-0.066-0.2-0.167-0.517-0.3-0.95-0.1-0.3-0.25-0.517-0.45-0.65-0.1-0.033-0.366-0.117-0.8-0.25-0.967-0.133-1.533-0.316-1.7-0.55-0.2-0.233-0.283-0.65-0.25-1.25 0.034-0.367 0.067-0.833 0.1-1.4 0-1.366 0.017-2.133 0.05-2.3 0.1 0.133 0.167 0.383 0.2 0.75 0.034 0.5 0.05 0.783 0.05 0.85 0.267 1.033 0.5 1.65 0.7 1.85s0.517 0.316 0.95 0.35 0.733 0.134 0.9 0.3c0.122 0.073 0.205 0.156 0.25 0.25-0.768-1.947-1.185-3.297-1.25-4.05-0.1-1.3 0.1-2.5 0.6-3.6l-0.95 0.45c-0.533 0.034-0.683-0.25-0.45-0.85 0.2-0.533 0.466-0.866 0.8-1 0.367-0.167 0.583-0.1 0.65 0.2v1c0.233-0.5 0.5-0.95 0.8-1.35 0.7-1.033 0.883-1.983 0.55-2.85-0.1-0.233-0.267-0.4-0.5-0.5-0.033 0-0.267-0.066-0.7-0.2l-0.7 1.05c0 0.633-0.034 1.034-0.1 1.2-0.1 0.333-0.4 0.816-0.9 1.45l-0.5 1.2c-0.233 0.467-0.467 1.2-0.7 2.2l0.1 2.75c-0.133 1.267-0.233 2.267-0.3 3-0.067 1.333 0.133 2.283 0.6 2.85 0.3 0.333 0.8 0.733 1.5 1.2 0.767 0.467 1.284 0.833 1.55 1.1 0.7 0.7 1.017 1.533 0.95 2.5-0.566 0.1-1.116 0.1-1.65 0-0.5-0.133-0.95-0.284-1.35-0.45l1.15 1.15c0.733 0.267 1.333 0.583 1.8 0.95 0.667 0.434 1.267 1.083 1.8 1.95 0.467 1.033 0.85 1.85 1.15 2.45 0.533 1.133 1.066 1.75 1.6 1.85 0.3 0.033 0.75-0.033 1.35-0.2 0.434-0.033 0.867 0.017 1.3 0.15 0.248 0.062 0.582 0.212 1 0.45-0.161-0.208-0.71-0.958-1.65-2.25-0.4-0.5-1.116-1.15-2.15-1.95-0.867-0.7-1.417-1.117-1.65-1.25-0.8-0.4-1.283-0.667-1.45-0.8 0.567-0.1 1.5 0.117 2.8 0.65-0.3-0.466-0.483-1-0.55-1.6 0.3 0.633 0.967 1.066 2 1.3 1.3 0.267 2.034 0.767 2.2 1.5l-1.5-0.35h-0.5c0.667 0.5 1.15 0.934 1.45 1.3 0.7 0.966 1.25 1.683 1.65 2.15 0.633 0.8 1.316 1.316 2.05 1.55 0.7 0.2 1.917 0.4 3.65 0.6z" fill="#AA907D"/>
				<path d="m14.7-6.649c0.526 0.033 1.326 0.166 2.4 0.4-0.492-0.125-1.125-0.575-1.9-1.35-0.466-0.066-0.917-0.017-1.35 0.15-0.467 0.167-0.8 0.4-1 0.7l-0.15 0.2c0.234-0.201 0.901-0.234 2-0.1z" fill="#AA907D"/>
				<path d="m16.3-21.399c-1.033-0.467-1.733-0.967-2.1-1.5-0.333-0.467-0.5-1.25-0.5-2.35v-2.45c0.067-0.5 0.367-1.233 0.9-2.2 0.6-1.067 1.083-1.55 1.45-1.45l2.65-1.85c0.333 0.034 0.7 0 1.1-0.1 0.534-0.1 0.784-0.283 0.75-0.55 0.1 0.566-0.1 1.167-0.6 1.8-0.366 0.534-0.833 0.967-1.4 1.3-1.167 0.667-2.117 1.617-2.85 2.85-0.333 0.566-0.566 1.066-0.7 1.5-0.1 0.433-0.133 1-0.1 1.7 0 1.599 0.467 2.699 1.4 3.3zm9.1 10.549c0.267 0.333 0.434 0.617 0.5 0.85 0.2 0.466 0.283 1.083 0.25 1.85-0.066 0.9-0.1 1.55-0.1 1.95v0.05l0.7-2.25-0.05-0.15c0-0.366 0.017-0.9 0.05-1.6 0-0.634-0.083-1.15-0.25-1.55-0.534-1.3-1.233-2.267-2.1-2.9-2.8-1.9-4.467-3.5-5-4.8-0.233-0.634-0.35-1.4-0.35-2.3v-1.15c-0.033-0.333-0.066-0.517-0.1-0.55 0-0.067-0.133-0.184-0.4-0.35-0.033-0.034-0.2-0.117-0.5-0.25-0.167-0.067-0.283-0.184-0.35-0.35-0.066-0.2-0.066-0.45 0-0.75 0.067-0.167 0.167-0.383 0.3-0.65 0.133-0.333 0.3-0.817 0.5-1.45 0.167-0.533 0.4-0.966 0.7-1.3 0.067 0.333 0.05 0.85-0.05 1.55s-0.133 1.217-0.1 1.55c0.5 0.033 0.8 0.133 0.9 0.3 0.067 0.1 0.1 0.434 0.1 1 0 1.367 0.217 2.434 0.65 3.2 0.367 0.667 0.65 1.066 0.85 1.2 0.434 0.1 0.767 0.2 1 0.3 1.133 0.333 1.867 0.583 2.2 0.75 1.466 0.7 2.333 2.183 2.6 4.45 0.233 1.067 0.35 1.917 0.35 2.55v0.7l0.85-1.95c-0.033-0.767-0.183-1.667-0.45-2.7-0.333-1-0.467-1.75-0.4-2.25 0-0.1 0.083-0.517 0.25-1.25 0.1-0.5 0.134-0.934 0.1-1.3-0.1-0.567-0.15-1.117-0.15-1.65-0.033-0.6 0.05-1.1 0.25-1.5 0.533-0.833 0.867-1.5 1-2 0.233-0.733 0.767-1.316 1.6-1.75 0.5-0.233 1.25-0.55 2.25-0.95 0.733-0.367 1.367-0.917 1.9-1.65v-0.5c-0.133-0.134-0.35-0.284-0.65-0.45-0.233-0.2-0.367-0.434-0.4-0.7-0.034 0.733 0.066 1.45 0.3 2.15-1.3 0-2.283 0.083-2.95 0.25l-1.3 0.4c-0.133 0.033-0.35 0.167-0.65 0.4-0.3 0.167-0.534 0.267-0.7 0.3 0.267-0.667 0.8-1.133 1.6-1.4 1.3-0.433 1.983-0.667 2.05-0.7 0.5-0.333 0.784-0.983 0.85-1.95 0.067-0.533 0.067-1.283 0-2.25 0-1-0.033-1.75-0.1-2.25l-0.5-0.8c-0.466-0.534-0.75-0.85-0.85-0.95-0.3-0.267-0.65-0.434-1.05-0.5h-0.65c-0.333 0.1-0.517 0.15-0.55 0.15 0.466 0.067 1.2 0.85 2.2 2.35 0.434 0.667 0.65 1.717 0.65 3.15 0.034 0.467 0.05 0.833 0.05 1.1 0 0.467-0.067 0.816-0.2 1.05s-0.4 0.417-0.8 0.55c-0.434 0.066-0.75 0.15-0.95 0.25-0.667 0.2-1.15 0.367-1.45 0.5-0.534 0.233-0.95 0.533-1.25 0.9-0.367 0.434-0.55 1.2-0.55 2.3 0.167 1.3 0.25 2.317 0.25 3.05 0 1.3-0.417 2.117-1.25 2.45-0.6 0.233-1.167-0.116-1.7-1.05-0.434-0.767-0.7-1.517-0.8-2.25-0.1-0.8-0.15-2.05-0.15-3.75-0.033-0.533 0.017-0.95 0.15-1.25s0.417-0.6 0.85-0.9c0.7-0.534 1.7-1.417 3-2.65 0.467-0.367 1.233-0.817 2.3-1.35 0.534-0.333 0.833-0.583 0.9-0.75 0.133-0.267 0.05-0.617-0.25-1.05-0.3-0.466-0.833-1.083-1.6-1.85-0.333-0.434-0.5-0.75-0.5-0.95l-4.8-0.05c0.267 0.433 0.567 0.833 0.9 1.2 0.633 0.7 1.017 1.2 1.15 1.5 0.3 0.567 0.267 1.133-0.1 1.7-0.3 0.466-0.783 0.95-1.45 1.45-0.767 0.5-1.333 0.884-1.7 1.15 0.867-0.934 1.3-1.867 1.3-2.8v-1.05c-0.033-0.333-0.15-0.633-0.35-0.9-0.2-0.3-0.75-0.784-1.65-1.45-0.5-0.367-1.117-1.066-1.85-2.1l-1.9-1.1-1.9-0.05c0.934 0.4 1.684 0.967 2.25 1.7 0.133 0.133 0.35 0.466 0.65 1 0.233 0.433 0.483 0.733 0.75 0.9 0.133 0.1 0.35 0.15 0.65 0.15 0.333 0.033 0.567 0.083 0.7 0.15 0.533 0.3 0.684 1.383 0.45 3.25-0.5-0.066-1.434 0.267-2.8 1-0.3 0.133-0.85 0.3-1.65 0.5-0.733 0.167-1.283 0.35-1.65 0.55-0.467 0.233-1 0.633-1.6 1.2-0.267 0.233-0.5 0.567-0.7 1-0.3 0.6-0.483 0.95-0.55 1.05-0.434 0.633-0.7 1.216-0.8 1.75-0.134 0.533-0.083 1.167 0.15 1.9 0.133 0.466 0.233 0.8 0.3 1 0.1 0.333 0.267 0.617 0.5 0.85l1.65 1.7c0.434 0.467 1.167 1.367 2.2 2.7 0.9 1.167 1.667 2.05 2.3 2.65 0.9 0.8 1.9 1.517 3 2.15 0.467 0.233 0.817 0.417 1.05 0.55 0.367 0.2 0.667 0.4 0.9 0.6 0.167 0.134 0.367 0.35 0.6 0.65 0.267 0.4 0.433 0.633 0.5 0.7 0.267 0.367 0.484 0.65 0.65 0.85z" fill="#8C8D8A"/>
				<path d="m26.75-8.399l0.95-2.55v-0.7c0-0.634-0.116-1.483-0.35-2.55-0.267-2.267-1.134-3.75-2.6-4.45-0.333-0.167-1.067-0.417-2.2-0.75-0.233-0.1-0.566-0.2-1-0.3-0.2-0.133-0.483-0.533-0.85-1.2-0.433-0.767-0.65-1.833-0.65-3.2 0-0.566-0.033-0.9-0.1-1-0.1-0.167-0.4-0.267-0.9-0.3-0.033-0.333 0-0.85 0.1-1.55s0.117-1.216 0.05-1.55c-0.3 0.333-0.533 0.767-0.7 1.3-0.2 0.633-0.367 1.117-0.5 1.45-0.133 0.267-0.233 0.483-0.3 0.65-0.066 0.3-0.066 0.55 0 0.75 0.067 0.167 0.184 0.283 0.35 0.35 0.3 0.133 0.467 0.216 0.5 0.25 0.267 0.167 0.4 0.283 0.4 0.35 0.034 0.033 0.067 0.216 0.1 0.55v1.15c0 0.9 0.117 1.667 0.35 2.3 0.533 1.3 2.2 2.9 5 4.8 0.867 0.633 1.566 1.6 2.1 2.9 0.167 0.4 0.25 0.917 0.25 1.55-0.034 0.7-0.05 1.233-0.05 1.6l0.05 0.15z" fill="#464D53"/>
				<path d="m23.95-33.05c0.667-0.5 1.15-0.983 1.45-1.45 0.367-0.567 0.4-1.133 0.1-1.7-0.133-0.3-0.517-0.8-1.15-1.5-0.333-0.367-0.634-0.767-0.9-1.2-0.833-0.034-1.75-0.284-2.75-0.75l-1-0.55c0.733 1.034 1.35 1.733 1.85 2.1 0.9 0.667 1.45 1.15 1.65 1.45 0.2 0.267 0.317 0.566 0.35 0.9v1.05c0 0.934-0.433 1.867-1.3 2.8 0.367-0.266 0.934-0.65 1.7-1.15z" fill="#464D53"/>
				<path d="m29.25-28.35c0.3-0.233 0.517-0.367 0.65-0.4l1.3-0.4c0.667-0.167 1.65-0.25 2.95-0.25-0.233-0.7-0.333-1.417-0.3-2.15v-0.1c-0.067-0.534-0.05-1.384 0.05-2.55-0.133-0.833-0.45-1.633-0.95-2.4 0.067 0.5 0.1 1.25 0.1 2.25 0.067 0.967 0.067 1.717 0 2.25-0.066 0.967-0.35 1.617-0.85 1.95-0.066 0.033-0.75 0.267-2.05 0.7-0.8 0.267-1.333 0.733-1.6 1.4 0.167-0.033 0.4-0.133 0.7-0.3z" fill="#464D53"/>
				<path d="m9.4-23c0.5 0.433 1.133 0.85 1.9 1.25 0.652 0.314 1.193 0.581 1.625 0.8-1.249-0.738-2.44-1.988-3.575-3.75-0.4-0.7-0.517-1.633-0.35-2.8 0.133-1.034 0.433-1.934 0.9-2.7 0.434-0.7 1.2-1.333 2.3-1.9 1.3-0.633 2.15-1.167 2.55-1.6l0.7-0.85c0.233-0.333 0.534-0.566 0.9-0.7 1.033-0.4 2.033-0.233 3 0.5-0.467-0.934-1.034-1.583-1.7-1.95-0.367-0.233-0.917-0.4-1.65-0.5-0.833-0.1-1.417-0.216-1.75-0.35-0.567-0.2-1.1-0.583-1.6-1.15-0.6-0.7-0.733-1.3-0.4-1.8 0.1-0.133 0.316-0.267 0.65-0.4 0.2-0.067 0.467-0.15 0.8-0.25 0.333-0.134 0.95-0.2 1.85-0.2l2.25 0.05c-1.333-0.833-2.3-1.233-2.9-1.2-0.167 0-0.45 0.066-0.85 0.2-0.433 0.167-0.716 0.267-0.85 0.3l-2.1 0.55c-0.233 0.067-0.667 0.15-1.3 0.25-0.6 0.067-1.05 0.167-1.35 0.3-0.5 0.2-0.983 0.566-1.45 1.1l1.05 0.6c0.267 0.133 0.934 0.617 2 1.45 0.467 0.367 0.767 0.75 0.9 1.15 0.067 0.233 0.1 0.717 0.1 1.45 0 0.5-0.066 0.866-0.2 1.1-0.134 0.267-0.4 0.55-0.8 0.85-1.233 1-2.233 2-3 3-0.533 0.634-0.816 1.367-0.85 2.2-0.033 0.8 0.184 1.583 0.65 2.35 0.667 0.9 1.517 1.784 2.55 2.65z" fill="#56443D"/>
				<path d="m0.351-29.6l0.05-2.65-0.05 0.15c-0.434 0.867-0.434 1.701 0 2.5z" fill="#56443D"/>
				<path d="m5.3-18.8c-0.1-0.1-0.4-0.283-0.9-0.55-0.867-0.367-1.816-1.2-2.85-2.5-0.533-0.6-0.883-1.4-1.05-2.4l-0.1 1.1c0.033 0.433 0.133 0.816 0.3 1.15 0.267 0.367 0.467 0.7 0.6 1l1.2 2.4 0.7 0.35c0.9 0.433 1.667 0.6 2.3 0.5 0.101-0.433 0.034-0.783-0.2-1.05z" fill="#56443D"/>
				<path d="m2-28.85c0.022 0.681 0.039 1.248 0.05 1.7 7e-3 -0.814 0.09-1.647 0.25-2.5 0.233-1 0.467-1.733 0.7-2.2l0.5-1.2 0.4-1.75 0.05-0.4c-0.2 0.167-0.517 0.35-0.95 0.55-0.534 0.2-0.917 0.383-1.15 0.55 0.233-0.066 0.417-0.05 0.55 0.05 0.3 0.233 0.333 0.717 0.1 1.45-0.267 0.767-0.417 1.25-0.45 1.45-0.066 0.567-0.083 1.334-0.05 2.3z" fill="#56443D"/>
				<path d="m30.9-19.85c0.867-1.533 1.633-2.333 2.3-2.4 0.067-0.6-0.033-1.467-0.3-2.6-0.066-0.667 0.1-1.083 0.5-1.25 0.167-0.066 0.667-0.1 1.5-0.1 0.467 0 0.867-0.083 1.2-0.25l0.15-0.5c0.333-1 0-2.033-1-3.1l-0.35-0.35-0.05 2.15c-1.6 0.433-2.717 0.883-3.35 1.35-0.333 0.267-0.5 0.733-0.5 1.4 0.033 0.767 0.05 1.316 0.05 1.65 0 0.8-0.033 1.3-0.1 1.5-0.366 0.733-0.633 1.283-0.8 1.65-0.434 0.7-0.7 1.25-0.8 1.65-0.067 0.3-0.05 0.934 0.05 1.9-0.033-0.434 0.15-0.917 0.55-1.45 0.2-0.299 0.517-0.716 0.95-1.25z" fill="#56443D"/>
				<path d="m18.7-1.35c0.134 0.066 0.45 0.3 0.95 0.7 0.467 0.333 0.816 0.533 1.05 0.6 0.4 0.034 0.833-0.183 1.3-0.65 0.3-0.333 0.7-0.7 1.2-1.1 0.233-0.233 0.767-0.667 1.6-1.3-0.1-0.9-0.3-1.617-0.6-2.15-0.5-0.967-1.5-1.583-3-1.85-1.733-0.2-2.95-0.4-3.65-0.6-0.733-0.233-1.417-0.75-2.05-1.55-0.4-0.467-0.95-1.184-1.65-2.15-0.3-0.367-0.784-0.8-1.45-1.3-0.667-0.033-1.217-0.316-1.65-0.85-1.3-0.533-2.233-0.75-2.8-0.65 0.167 0.133 0.65 0.4 1.45 0.8 0.233 0.133 0.783 0.55 1.65 1.25 1.034 0.8 1.75 1.45 2.15 1.95 1.067 1.467 1.634 2.233 1.7 2.3h0.05l0.55 0.35-0.3-0.05c0.775 0.775 1.409 1.225 1.9 1.35-1.075-0.234-1.875-0.367-2.4-0.4-1.1-0.134-1.767-0.1-2 0.1-0.133 0.367-0.083 0.8 0.15 1.3l0.7 1.2c0.334 0.534 0.784 0.884 1.35 1.05 0.8 0.2 1.483 0.45 2.05 0.75l1.75 0.9z" fill="#A18277"/>
				<path d="m20.55-0.1c-0.23-0.103-0.531-0.286-0.9-0.55-0.5-0.4-0.816-0.634-0.95-0.7l-1.75-0.9c-0.566-0.3-1.25-0.55-2.05-0.75-0.566-0.167-1.017-0.517-1.35-1.05l-0.7-1.2c-0.233-0.5-0.284-0.934-0.15-1.3l0.15-0.2c0.2-0.3 0.533-0.534 1-0.7 0.433-0.167 0.883-0.216 1.35-0.15l0.3 0.05-0.55-0.35c-0.466-0.267-0.833-0.434-1.1-0.5-0.434-0.134-0.867-0.184-1.3-0.15-0.6 0.167-1.05 0.233-1.35 0.2-0.533-0.1-1.066-0.717-1.6-1.85-0.3-0.6-0.684-1.417-1.15-2.45-0.533-0.867-1.133-1.517-1.8-1.95-0.467-0.367-1.066-0.684-1.8-0.95l1 0.9c0.8 0.633 1.35 1.466 1.65 2.5 0.433 1.267 1.033 2.4 1.8 3.4 1.2 2.033 2.2 3.45 3 4.25 0.333 0.333 0.867 0.716 1.6 1.15 1.467 0.867 2.4 1.434 2.8 1.7l3.85 1.55z" fill="#CBBCB0"/>
				<path d="m24.4-6.05l0.8 0.7c-0.066-0.2-0.133-0.483-0.2-0.85-0.067-0.4-0.15-0.683-0.25-0.85-0.133-0.333-0.367-0.667-0.7-1-0.833-0.833-1.667-1.267-2.5-1.3-0.2-0.033-0.716-0.017-1.55 0.05-0.633 0.034-1.1 0-1.4-0.1s-0.567-0.333-0.8-0.7c-0.1-0.2-0.233-0.483-0.4-0.85-0.167-0.333-0.333-0.583-0.5-0.75-0.2 1.3-0.2 2.167 0 2.6 0.267 0.533 0.934 0.934 2 1.2 0.633 0.133 1.65 0.233 3.05 0.3 1.167 0.201 1.984 0.717 2.45 1.55z" fill="#CBBCB0"/>
				<path d="m10.75-13.55c0.433 0.534 0.983 0.817 1.65 0.85h0.5l1.5 0.35c-0.167-0.733-0.9-1.233-2.2-1.5-1.033-0.233-1.7-0.667-2-1.3 0.067 0.6 0.25 1.134 0.55 1.6z" fill="#CBBCB0"/>
				<path d="m7.2-21.25c-0.5-0.4-0.85-0.85-1.05-1.35l-0.25-0.85-0.2-0.45c-0.033-0.134-0.133-0.25-0.3-0.35-0.167-0.167-0.467-0.267-0.9-0.3-0.434-0.033-0.75-0.15-0.95-0.35s-0.433-0.817-0.7-1.85c0-0.067-0.017-0.35-0.05-0.85-0.033-0.367-0.1-0.617-0.2-0.75-0.034 0.167-0.05 0.934-0.05 2.3-0.033 0.567-0.066 1.034-0.1 1.4-0.033 0.6 0.05 1.017 0.25 1.25 0.167 0.233 0.733 0.417 1.7 0.55 0.434 0.133 0.7 0.217 0.8 0.25 0.2 0.133 0.35 0.35 0.45 0.65 0.133 0.434 0.233 0.75 0.3 0.95 0.1 0.333 0.233 0.6 0.4 0.8 0.167 0.167 0.417 0.333 0.75 0.5 0.4 0.233 0.667 0.4 0.8 0.5l1.3-0.35c-0.5-0.233-1.166-0.8-2-1.7z" fill="#CBBCB0"/>
				<path d="m4.4-33.05c-0.333 0.134-0.6 0.467-0.8 1-0.233 0.6-0.083 0.884 0.45 0.85l0.95-0.449 0.05-0.05v-1.15c-0.066-0.3-0.283-0.367-0.65-0.201z" fill="#CBBCB0"/>
				<path d="m14.601-29.899c-0.534 0.966-0.833 1.7-0.9 2.2v2.45c0 1.1 0.167 1.883 0.5 2.35 0.367 0.533 1.067 1.033 2.1 1.5-0.933-0.6-1.4-1.7-1.4-3.3-0.033-0.7 0-1.267 0.1-1.7 0.133-0.434 0.367-0.934 0.7-1.5 0.733-1.233 1.684-2.184 2.85-2.85 0.567-0.333 1.034-0.767 1.4-1.3 0.5-0.633 0.7-1.233 0.6-1.8 0.034 0.267-0.216 0.45-0.75 0.55-0.4 0.1-0.767 0.134-1.1 0.1l-2.65 1.85c-0.367-0.101-0.851 0.383-1.45 1.45z" fill="#464D53"/>
			</g>
			<g clip-rule="evenodd" fill-rule="evenodd">
				<path d="m21.601-1.899c0.233 0.033 0.4 0.116 0.5 0.25 0.033 0.033 0.15 0.2 0.35 0.5l0.749-0.651c0.067-0.133 0.167-0.216 0.3-0.25-0.5-0.6-1.083-0.9-1.75-0.9h-1.3c-0.7 0-1.2-0.117-1.5-0.35-0.366-0.466-0.7-0.75-1-0.85-0.1-0.034-0.4-0.017-0.9 0.05l-1.15-0.1c-0.434-0.033-0.717-0.083-0.85-0.15-0.233-0.133-0.45-0.333-0.65-0.6-0.566-0.767-0.867-1.183-0.9-1.25l-0.05-0.55c-0.233 0-0.483 0.066-0.75 0.2l-0.05 0.25 0.95 1.25c0.633 0.9 1.133 1.434 1.5 1.6l0.55 0.25c0.167 0.067 0.316 0.083 0.45 0.05 0.066-0.034 0.216-0.1 0.45-0.2 0.534-0.2 1.034-0.033 1.5 0.5 0.567 0.6 1 0.934 1.3 1l2.251-0.049z" fill="#92766B"/>
				<path d="m23.45-4.399c-0.233-0.034-0.517 0.017-0.85 0.15-0.4 0.133-0.583 0.283-0.55 0.45 0.467-0.2 0.9-0.167 1.3 0.1s0.6 0.65 0.6 1.15l0.1 0.05 0.45-0.4c-0.133-0.867-0.483-1.367-1.05-1.5z" fill="#92766B"/>
				<path d="m21.15-5.8c0.767 0 0.983 0.167 0.65 0.5l0.6-0.3c-0.333-0.533-0.75-0.684-1.25-0.45-0.033 0.067-0.033 0.151 0 0.25z" fill="#92766B"/>
				<path d="m17.05-6.85c-0.066-0.066-0.183-0.1-0.35-0.1-0.066-0.2 0.017-0.316 0.25-0.35 0.233-0.066 0.4-0.033 0.5 0.1l-0.4 0.35zm2.15 0.75c0.167-0.1 0.233-0.3 0.2-0.6-0.033-0.267-0.15-0.5-0.35-0.7-0.533-0.067-1.033-0.167-1.5-0.3-0.267-0.066-0.566-0.216-0.9-0.45l-0.299 0.15c-0.134 0.133-0.217 0.316-0.25 0.55 0.033 0.3 0.033 0.517 0 0.65 0.409 0.292 0.726 0.468 0.95 0.525-1.048-0.218-1.832-0.343-2.35-0.375l-0.301-0.05h-0.2c-0.1 0.267 0.25 0.583 1.05 0.95 0.9 0.367 1.367 0.583 1.4 0.65l3 1.05c-0.367-0.4-0.967-0.933-1.8-1.6-0.053-0.053-0.094-0.103-0.125-0.15-5e-3 0.029-0.014 0.062-0.025 0.1l-0.5 0.4h-0.55c-0.1-0.333 0.066-0.55 0.5-0.65 0.225-0.035 0.383-0.026 0.475 0.025-0.092-0.157-0.117-0.299-0.075-0.425 0.034-0.167 0.133-0.316 0.3-0.45 0.167-0.1 0.316-0.133 0.45-0.1 0.167 0.066 0.25 0.183 0.25 0.35-0.066 0.3-0.1 0.467-0.1 0.5 0.367 0.034 0.617 0.017 0.75-0.05z" fill="#92766B"/>
				<path d="m20.65-5.85c0.066-0.533-0.2-0.7-0.8-0.5-0.633 0.234-0.65 0.484-0.05 0.75l0.85-0.25z" fill="#92766B"/>
				<path d="m21.601-1.899l-2.25 0.05c-0.3-0.066-0.733-0.4-1.3-1-0.466-0.533-0.966-0.7-1.5-0.5-0.233 0.1-0.383 0.167-0.45 0.2-0.134 0.033-0.284 0.017-0.45-0.05l-0.55-0.25c-0.367-0.167-0.867-0.7-1.5-1.6l-0.951-1.251c-0.066 0.333 0.017 0.717 0.25 1.15 0.3 0.5 0.517 0.866 0.65 1.1 0.334 0.534 0.784 0.884 1.35 1.05 0.8 0.2 1.483 0.45 2.05 0.75l1.75 0.9c0.134 0.066 0.45 0.3 0.95 0.7 0.467 0.333 0.816 0.533 1.05 0.6 0.4 0.034 0.833-0.183 1.3-0.65l0.45-0.45c-0.2-0.3-0.316-0.467-0.35-0.5-0.1-0.133-0.266-0.216-0.499-0.249z" fill="#796359"/>
				<path d="m17.7-5.7c0.067-0.233-0.116-0.316-0.55-0.25-0.434 0.1-0.6 0.317-0.5 0.65h0.55l0.5-0.4z" fill="#796359"/>
				<path d="m16.7-6.95c0.167 0 0.284 0.034 0.35 0.1l0.4-0.35c-0.1-0.133-0.267-0.167-0.5-0.1-0.233 0.034-0.316 0.151-0.25 0.35z" fill="#796359"/>
				<path d="m24.15-4.6l0.3 0.3c0.034-0.2 0-0.4-0.1-0.6-0.1-0.233-0.233-0.367-0.4-0.4-0.066-0.033-0.183-0.05-0.35-0.05-0.233 0.033-0.367 0.083-0.4 0.15-0.133 0.2-0.05 0.35 0.25 0.45 0.167 0.067 0.401 0.117 0.7 0.15z" fill="#796359"/>
			</g>
			<g clip-rule="evenodd" fill-rule="evenodd">
				<linearGradient id="du" x1="12.126" x2="35.676" y1="-26.8" y2="-26.8" gradientUnits="userSpaceOnUse">
					<stop stop-opacity=".2" offset=".8157"/>
					<stop stop-opacity=".2" offset=".9804"/>
				</linearGradient>
				<path d="m22.25-12.6c0-0.133 0.117-0.767 0.35-1.9 0.066-0.5 0.083-1.3 0.05-2.4 0-0.434-0.05-1.134-0.15-2.1-0.1-0.9-0.133-1.6-0.1-2.1v-1.3c0.066-0.467 0.267-0.833 0.6-1.1 1.733-1.434 2.7-3.15 2.9-5.15 0.033-0.267 0.017-0.717-0.05-1.35 0-0.567 0.116-0.967 0.35-1.2 0.6-0.533 1.367-0.867 2.3-1 0.4-0.033 1.267-0.05 2.6-0.05l2.7 0.05c0.1-1.1 0.133-1.767 0.1-2-0.133-1.033-0.617-2.1-1.45-3.2-0.466-0.534-0.75-0.85-0.85-0.95-0.3-0.267-0.65-0.434-1.05-0.5h-6c-1.466 0-2.75-0.267-3.85-0.8l-2.349-1.35h-1.2c-0.167 0.566 0.45 1.283 1.85 2.15 0.033 0.033 0.767 0.35 2.2 0.95 0.634 0.233 1.434 0.616 2.4 1.15 0.733 0.233 1.25 0.45 1.55 0.65 0.167 0.133 0.316 0.35 0.45 0.65 0.167 0.367 0.167 0.633 0 0.8-0.2 0.2-0.784 0.183-1.75-0.05-0.967-0.267-1.517-0.4-1.65-0.4-0.7-0.1-2.433-0.15-5.2-0.15-1.534 0-2.567 0.05-3.1 0.15 0.233-0.033 0.583-0.017 1.05 0.05 0.5 0.1 0.85 0.15 1.05 0.15 0.466 0.033 1.233 0.083 2.3 0.15 1.2 0.3 2.417 0.716 3.65 1.25 0.3 0.1 0.817 0.183 1.55 0.25 0.1 0.7-0.083 1.283-0.55 1.75-0.267 0.267-0.8 0.6-1.6 1-0.667 0.367-1.517 0.45-2.55 0.25-1.6-0.333-2.466-0.5-2.6-0.5-0.533-0.034-1.116 0.133-1.75 0.5-0.566 0.333-1 0.733-1.3 1.2-0.233 0.367-0.383 0.833-0.45 1.4-0.066 0.667-0.133 1.167-0.2 1.5-0.167 0.866-0.267 1.7-0.3 2.5 0.1-0.934 0.367-1.784 0.8-2.55 0.5-0.833 1.117-1.383 1.85-1.65 1.566-0.5 2.783-0.117 3.65 1.15 0.167 0.233 0.25 0.833 0.25 1.8-0.034 0.767 0.183 1.25 0.65 1.45 0.233 0.067 0.517 0.1 0.85 0.1v-0.05c0-1-0.034-1.583-0.1-1.75-0.333-1-1.133-2-2.4-3-0.3-0.233-0.7-0.35-1.2-0.35-0.566 0-1 0.033-1.3 0.1-0.833 0.167-1.417 0.383-1.75 0.65-0.267 0.267-0.517 0.833-0.75 1.7-0.067-0.8 0.65-1.866 2.15-3.2 0.4-0.3 0.983-0.517 1.75-0.65 0.633-0.1 1.25-0.1 1.85 0 0.167 0.033 0.417 0.15 0.75 0.35s0.583 0.317 0.75 0.35c0.566 0.167 1.117 0.167 1.65 0 1.066-0.3 1.8-0.6 2.2-0.9 0.267-0.2 0.6-0.483 1-0.85 0 0.333-0.35 0.85-1.05 1.55l-1.6 1.7c-0.533 0.534-0.85 0.867-0.95 1 0.466 0.8 0.767 1.417 0.9 1.85 0.3 0.967 0.3 2.167 0 3.6-0.467 1.6-0.783 2.8-0.95 3.6l1.049 5.05z" fill="url(#du)"/>
				<linearGradient id="bt" x1="12.75" x2="24.85" y1="-19.925" y2="-19.925" gradientUnits="userSpaceOnUse">
					<stop stop-opacity=".2" offset=".8157"/>
					<stop stop-opacity=".2" offset=".9804"/>
				</linearGradient>
				<path d="m20.75-21.3l-0.2-2.05h-0.3c0.1 2.1 0.15 3.684 0.15 4.75l0.5 2.1c-0.033-0.5 0-1.067 0.1-1.7l-0.05-0.85-0.05-0.3c-0.299-0.266-0.35-0.916-0.15-1.95z" fill="url(#bt)"/>
				<linearGradient id="ce" x1="12.126" x2="35.676" y1="-27.149" y2="-27.149" gradientUnits="userSpaceOnUse">
					<stop stop-opacity=".2" offset=".8157"/>
					<stop stop-opacity=".2" offset=".9804"/>
				</linearGradient>
				<path d="m18.25-28.05c-0.6-0.3-0.983-0.5-1.15-0.6 1-0.6 1.833-0.8 2.5-0.6 0.267 0.066 0.466 0.233 0.6 0.5 0.134 0.367 0.233 0.65 0.3 0.85l0.75 1.2c0.1-0.133 0.417-0.466 0.95-1l1.6-1.7c0.7-0.7 1.05-1.217 1.05-1.55-0.4 0.367-0.733 0.65-1 0.85-0.4 0.3-1.134 0.6-2.2 0.9-0.533 0.167-1.083 0.167-1.65 0-0.167-0.033-0.417-0.15-0.75-0.35s-0.583-0.316-0.75-0.35c-0.6-0.1-1.217-0.1-1.85 0-0.767 0.133-1.35 0.35-1.75 0.65-1.5 1.333-2.217 2.4-2.15 3.2 0.233-0.866 0.483-1.433 0.75-1.7 0.333-0.267 0.917-0.483 1.75-0.65 0.3-0.067 0.733-0.1 1.3-0.1 0.5 0 0.9 0.117 1.2 0.35 1.267 1 2.066 2 2.4 3 0.066 0.167 0.1 0.75 0.1 1.75v0.05h0.3l-0.15-1.65c-0.434-1.167-0.783-1.917-1.05-2.25-0.233-0.3-0.6-0.566-1.1-0.8z" fill="url(#ce)"/>
				<linearGradient id="ci" x1="12.746" x2="24.85" y1="-27.149" y2="-27.149" gradientUnits="userSpaceOnUse">
					<stop stop-opacity=".2" offset=".8157"/>
					<stop stop-opacity=".2" offset=".9804"/>
				</linearGradient>
				<path d="m18.25-28.05c-0.6-0.3-0.983-0.5-1.15-0.6 1-0.6 1.833-0.8 2.5-0.6 0.267 0.066 0.466 0.233 0.6 0.5 0.134 0.367 0.233 0.65 0.3 0.85l0.75 1.2c0.1-0.133 0.417-0.466 0.95-1l1.6-1.7c0.7-0.7 1.05-1.217 1.05-1.55-0.4 0.367-0.733 0.65-1 0.85-0.4 0.3-1.134 0.6-2.2 0.9-0.533 0.167-1.083 0.167-1.65 0-0.167-0.033-0.417-0.15-0.75-0.35s-0.583-0.316-0.75-0.35c-0.6-0.1-1.217-0.1-1.85 0-0.767 0.133-1.35 0.35-1.75 0.65-1.5 1.333-2.217 2.4-2.15 3.2 0.233-0.866 0.483-1.433 0.75-1.7 0.333-0.267 0.917-0.483 1.75-0.65 0.3-0.067 0.733-0.1 1.3-0.1 0.5 0 0.9 0.117 1.2 0.35 1.267 1 2.066 2 2.4 3 0.066 0.167 0.1 0.75 0.1 1.75v0.05h0.3l-0.15-1.65c-0.434-1.167-0.783-1.917-1.05-2.25-0.233-0.3-0.6-0.566-1.1-0.8z" fill="url(#ci)"/>
				<linearGradient id="cj" x1="12.126" x2="35.676" y1="-20.175" y2="-20.175" gradientUnits="userSpaceOnUse">
					<stop stop-opacity=".2" offset=".8157"/>
					<stop stop-opacity=".2" offset=".9804"/>
				</linearGradient>
				<path d="m20.9-19.35l0.05 0.3-0.2-2.25c-0.2 1.034-0.149 1.684 0.15 1.95z" fill="url(#cj)"/>
				<linearGradient id="ck" x1="12.75" x2="24.85" y1="-20.175" y2="-20.175" gradientUnits="userSpaceOnUse">
					<stop stop-opacity=".2" offset=".8157"/>
					<stop stop-opacity=".2" offset=".9804"/>
				</linearGradient>
				<path d="m20.9-19.35l0.05 0.3-0.2-2.25c-0.2 1.034-0.149 1.684 0.15 1.95z" fill="url(#ck)"/>
				<linearGradient id="cy" x1="12.126" x2="35.676" y1="-22.175" y2="-22.175" gradientUnits="userSpaceOnUse">
					<stop stop-opacity=".2" offset=".8157"/>
					<stop stop-opacity=".2" offset=".9804"/>
				</linearGradient>
				<path d="m21.05-18.45l0.15 0.8c0.167-0.8 0.483-2 0.95-3.6 0.3-1.434 0.3-2.633 0-3.6-0.133-0.434-0.434-1.05-0.9-1.85-0.4 0.5-0.534 1.034-0.4 1.6 0.2 0.4 0.316 0.717 0.35 0.95 0.034 0.2 0.05 0.883 0.05 2.05v2.1c0 0.3-0.066 0.817-0.2 1.55z" fill="url(#cy)"/>
				<linearGradient id="cn" x1="17.113" x2="22.388" y1="-22.175" y2="-22.175" gradientUnits="userSpaceOnUse">
					<stop stop-opacity=".2" offset=".8157"/>
					<stop stop-opacity=".2" offset=".9804"/>
				</linearGradient>
				<path d="m21.05-18.45l0.15 0.8c0.167-0.8 0.483-2 0.95-3.6 0.3-1.434 0.3-2.633 0-3.6-0.133-0.434-0.434-1.05-0.9-1.85-0.4 0.5-0.534 1.034-0.4 1.6 0.2 0.4 0.316 0.717 0.35 0.95 0.034 0.2 0.05 0.883 0.05 2.05v2.1c0 0.3-0.066 0.817-0.2 1.55z" fill="url(#cn)"/>
				<linearGradient id="co" x1="12.75" x2="24.85" y1="-22.325" y2="-22.325" gradientUnits="userSpaceOnUse">
					<stop stop-opacity=".2" offset=".8157"/>
					<stop stop-opacity=".2" offset=".9804"/>
				</linearGradient>
				<path d="m20.9-22.55c0-0.466-0.117-0.733-0.35-0.8l0.2 2.05 0.15-1.25z" fill="url(#co)"/>
				<linearGradient id="cp" x1="17.113" x2="22.388" y1="-22.325" y2="-22.325" gradientUnits="userSpaceOnUse">
					<stop stop-opacity=".2" offset=".8157"/>
					<stop stop-opacity=".2" offset=".9804"/>
				</linearGradient>
				<path d="m20.9-22.55c0-0.466-0.117-0.733-0.35-0.8l0.2 2.05 0.15-1.25z" fill="url(#cp)"/>
				<linearGradient id="cq" x1="12.126" x2="35.676" y1="-23.887" y2="-23.887" gradientUnits="userSpaceOnUse">
					<stop stop-opacity=".2" offset=".8157"/>
					<stop stop-opacity=".2" offset=".9804"/>
				</linearGradient>
				<path d="m17.101-28.649c0.167 0.1 0.55 0.3 1.15 0.6 0.5 0.233 0.867 0.5 1.1 0.8 0.267 0.333 0.616 1.083 1.05 2.25l0.15 1.65c0.233 0.066 0.35 0.333 0.35 0.8l-0.15 1.25 0.3 2.85c0.133-0.733 0.2-1.25 0.2-1.55v-2.1c0-1.167-0.017-1.85-0.05-2.05-0.033-0.233-0.15-0.55-0.35-0.95-0.134-0.566 0-1.1 0.4-1.6l-0.75-1.2c-0.067-0.2-0.167-0.483-0.3-0.85-0.133-0.267-0.333-0.434-0.6-0.5-0.667-0.201-1.5-1e-3 -2.5 0.6z" fill="url(#cq)"/>
				<linearGradient id="cr" x1="12.75" x2="24.85" y1="-23.887" y2="-23.887" gradientUnits="userSpaceOnUse">
					<stop stop-opacity=".2" offset=".8157"/>
					<stop stop-opacity=".2" offset=".9804"/>
				</linearGradient>
				<path d="m17.101-28.649c0.167 0.1 0.55 0.3 1.15 0.6 0.5 0.233 0.867 0.5 1.1 0.8 0.267 0.333 0.616 1.083 1.05 2.25l0.15 1.65c0.233 0.066 0.35 0.333 0.35 0.8l-0.15 1.25 0.3 2.85c0.133-0.733 0.2-1.25 0.2-1.55v-2.1c0-1.167-0.017-1.85-0.05-2.05-0.033-0.233-0.15-0.55-0.35-0.95-0.134-0.566 0-1.1 0.4-1.6l-0.75-1.2c-0.067-0.2-0.167-0.483-0.3-0.85-0.133-0.267-0.333-0.434-0.6-0.5-0.667-0.201-1.5-1e-3 -2.5 0.6z" fill="url(#cr)"/>
				<linearGradient id="cs" x1="17.113" x2="22.388" y1="-23.887" y2="-23.887" gradientUnits="userSpaceOnUse">
					<stop stop-opacity=".2" offset=".8157"/>
					<stop stop-opacity=".2" offset=".9804"/>
				</linearGradient>
				<path d="m17.101-28.649c0.167 0.1 0.55 0.3 1.15 0.6 0.5 0.233 0.867 0.5 1.1 0.8 0.267 0.333 0.616 1.083 1.05 2.25l0.15 1.65c0.233 0.066 0.35 0.333 0.35 0.8l-0.15 1.25 0.3 2.85c0.133-0.733 0.2-1.25 0.2-1.55v-2.1c0-1.167-0.017-1.85-0.05-2.05-0.033-0.233-0.15-0.55-0.35-0.95-0.134-0.566 0-1.1 0.4-1.6l-0.75-1.2c-0.067-0.2-0.167-0.483-0.3-0.85-0.133-0.267-0.333-0.434-0.6-0.5-0.667-0.201-1.5-1e-3 -2.5 0.6z" fill="url(#cs)"/>
				<linearGradient id="ct" x1="14.525" x2="19.474" y1="-22.124" y2="-22.124" gradientUnits="userSpaceOnUse">
					<stop stop-color="#fff" stop-opacity=".2" offset=".0627"/>
					<stop stop-color="#fff" stop-opacity=".2" offset=".1647"/>
				</linearGradient>
				<path d="m15.05-21.149c0.2 0.7 0.417 1.216 0.65 1.55 0.167 0.233 0.467 0.434 0.9 0.6 0.5 0.2 0.85 0.367 1.05 0.5l1.85 1.65c0-0.767-0.3-1.533-0.9-2.3-0.367-0.434-0.934-1.05-1.7-1.85-0.3-0.367-0.566-0.8-0.8-1.3-0.134-0.3-0.333-0.783-0.6-1.45-0.4-1.133-0.617-1.967-0.65-2.5 0-0.133 0.017-0.333 0.05-0.6 0-0.233-0.033-0.417-0.1-0.55-0.4 2.333-0.316 4.416 0.25 6.25z" fill="url(#ct)"/>
			</g>
				<radialGradient id="cu" cx="19.8" cy="-20.45" r="3.4" gradientTransform="matrix(1 0 0 -1 0 -40.899)" gradientUnits="userSpaceOnUse">
				<stop stop-opacity=".2784" offset=".1647"/>
				<stop stop-opacity=".4471" offset="1"/>
			</radialGradient>
			<path d="m18.8-18.2l-0.4 0.55c0.133 0.3 0.467 0.5 1 0.6 0.5 0.1 0.917 0.083 1.25-0.05 0.333-0.167 0.517-0.467 0.55-0.9 0.034-0.4-0.017-0.784-0.15-1.15-0.4-0.967-1.05-1.284-1.95-0.95-0.866 0.3-0.966 0.934-0.3 1.9z" clip-rule="evenodd" fill="url(#cu)" fill-rule="evenodd"/>
				<radialGradient id="cv" cx="11.65" cy="-27.25" r="2.525" gradientTransform="matrix(1 0 0 -1 0 -54.499)" gradientUnits="userSpaceOnUse">
				<stop stop-opacity=".2784" offset=".1647"/>
				<stop stop-opacity=".4471" offset="1"/>
			</radialGradient>
			<path d="m10.65-25.399l0.9 1.1c0.434 0 0.684-0.017 0.75-0.05 0.2-0.033 0.333-0.2 0.4-0.5l-0.2-1.3c-0.1-0.333-0.3-0.583-0.6-0.75s-0.6-0.167-0.9 0c-0.233 0.1-0.367 0.3-0.4 0.6 0.034 0.4 0.05 0.699 0.05 0.9z" clip-rule="evenodd" fill="url(#cv)" fill-rule="evenodd"/>
				<radialGradient id="cw" cx="11.2" cy="-30.95" r="1.8" gradientTransform="matrix(1 0 0 -1 0 -61.899)" gradientUnits="userSpaceOnUse">
				<stop stop-opacity=".2784" offset=".1647"/>
				<stop stop-opacity=".4471" offset="1"/>
			</radialGradient>
			<path d="m11.55-29.1l0.4-0.75c-0.167-0.767-0.65-1.066-1.45-0.9-0.1 0.4-0.067 0.767 0.1 1.1 0.2 0.4 0.517 0.584 0.95 0.55z" clip-rule="evenodd" fill="url(#cw)" fill-rule="evenodd"/>
				<radialGradient id="cz" cx="25.901" cy="-31.75" r="3.0111" gradientTransform="matrix(1 0 0 -1 0 -63.499)" gradientUnits="userSpaceOnUse">
				<stop stop-opacity=".2784" offset=".1647"/>
				<stop stop-opacity=".4471" offset="1"/>
			</radialGradient>
			<path d="m25.65-27.45l1.3-0.2c0.233-0.733 0.267-1.567 0.1-2.5-0.2-1.167-0.733-1.517-1.6-1.05-0.566 0.267-0.833 0.934-0.8 2 0.067 1.034 0.4 1.617 1 1.75z" clip-rule="evenodd" fill="url(#cz)" fill-rule="evenodd"/>
				<radialGradient id="da" cx="11.7" cy="-17.899" r="2.375" gradientTransform="matrix(1 0 0 -1 0 -35.799)" gradientUnits="userSpaceOnUse">
				<stop stop-opacity=".2784" offset=".1647"/>
				<stop stop-opacity=".4471" offset="1"/>
			</radialGradient>
			<path d="m11.55-14.649l1.1-0.4v-1.2c-0.033-0.434-0.2-0.784-0.5-1.05-0.467-0.466-0.85-0.517-1.15-0.15-0.3 0.267-0.367 0.75-0.2 1.45 0.167 0.699 0.417 1.149 0.75 1.35z" clip-rule="evenodd" fill="url(#da)" fill-rule="evenodd"/>
				<radialGradient id="db" cx="3.9502" cy="-21.7" r="2.6875" gradientTransform="matrix(1 0 0 -1 0 -43.399)" gradientUnits="userSpaceOnUse">
				<stop stop-opacity=".2784" offset=".1647"/>
				<stop stop-opacity=".4471" offset="1"/>
			</radialGradient>
			<path d="m4.351-19.85l0.75 0.35c0.066-0.8-0.1-1.367-0.5-1.7-0.333-0.267-0.917-0.367-1.75-0.3-0.034 0.333 0.116 0.7 0.45 1.1 0.366 0.4 0.716 0.584 1.05 0.55z" clip-rule="evenodd" fill="url(#db)" fill-rule="evenodd"/>
				<radialGradient id="dc" cx="3.9502" cy="-28.649" r=".9125" gradientTransform="matrix(1 0 0 -1 0 -57.299)" gradientUnits="userSpaceOnUse">
				<stop stop-opacity=".2784" offset=".1647"/>
				<stop stop-opacity=".4471" offset="1"/>
			</radialGradient>
			<path d="m3.8-27.45h0.55c0.033-0.267 0-0.533-0.1-0.8-0.167-0.267-0.367-0.367-0.6-0.3-0.066 0.2-0.016 0.567 0.15 1.1z" clip-rule="evenodd" fill="url(#dc)" fill-rule="evenodd"/>
				<radialGradient id="dd" cx="6.7505" cy="-37.05" r="2.3625" gradientTransform="matrix(1 0 0 -1 0 -74.1)" gradientUnits="userSpaceOnUse">
				<stop stop-opacity=".2784" offset=".1647"/>
				<stop stop-opacity=".4471" offset="1"/>
			</radialGradient>
			<path d="m6.2-34.85l1.45 0.55c0-0.333 0.017-0.933 0.05-1.8-0.066-0.667-0.4-0.9-1-0.7-0.433 0.134-0.716 0.417-0.85 0.85-0.1 0.4-0.083 0.817 0.05 1.25l0.3-0.15z" clip-rule="evenodd" fill="url(#dd)" fill-rule="evenodd"/>
				<radialGradient id="de" cx="23.25" cy="-15.75" r="2.75" gradientTransform="matrix(1 0 0 -1 0 -31.499)" gradientUnits="userSpaceOnUse">
				<stop stop-opacity=".2784" offset=".1647"/>
				<stop stop-opacity=".4471" offset="1"/>
			</radialGradient>
			<path d="m22.851-12.25l0.2 0.55c0.867-0.2 1.3-1.133 1.3-2.8 0-0.4-0.034-0.633-0.1-0.7-0.067-0.1-0.284-0.167-0.65-0.2-1-0.1-1.5 0.25-1.5 1.05 0 0.667 0.25 1.367 0.75 2.1z" clip-rule="evenodd" fill="url(#de)" fill-rule="evenodd"/>
				<radialGradient id="df" cx="27.05" cy="-21.75" r="1.2875" gradientTransform="matrix(1 0 0 -1 0 -43.499)" gradientUnits="userSpaceOnUse">
				<stop stop-opacity=".2784" offset=".1647"/>
				<stop stop-opacity=".4471" offset="1"/>
			</radialGradient>
			<path d="m26.55-19.85l0.75 0.75c0.133-0.367 0.217-0.833 0.25-1.4 0.034-0.733-0.117-1.083-0.45-1.05-0.3 0.067-0.483 0.3-0.55 0.7v1z" clip-rule="evenodd" fill="url(#df)" fill-rule="evenodd"/>
				<radialGradient id="dg" cx="29.55" cy="-25.25" r="1.9" gradientTransform="matrix(1 0 0 -1 0 -50.499)" gradientUnits="userSpaceOnUse">
				<stop stop-opacity=".2784" offset=".1647"/>
				<stop stop-opacity=".4471" offset="1"/>
			</radialGradient>
			<path d="m28.8-23.75v1.3c1.167-0.4 1.65-1.033 1.45-1.9-0.067-0.367-0.117-0.566-0.15-0.6-0.067-0.1-0.233-0.133-0.5-0.1-0.3 0.034-0.534 0.2-0.7 0.5-0.133 0.234-0.166 0.5-0.1 0.8z" clip-rule="evenodd" fill="url(#dg)" fill-rule="evenodd"/>
				<linearGradient id="dh" x1="-4.2119" x2="43.213" y1="-31.8" y2="-31.8" gradientUnits="userSpaceOnUse">
					<stop stop-opacity=".2" offset=".8157"/>
					<stop stop-opacity=".2" offset=".9804"/>
				</linearGradient>
				<path d="m4.5-31.649c0.2-0.067 0.483-0.1 0.85-0.1 0.2 0 0.483 0.017 0.85 0.05h0.05l0.1-0.35c-0.233-0.433-0.434-0.7-0.6-0.8-0.367-0.2-0.717-0.217-1.05-0.05-0.233 0.3-0.45 0.5-0.65 0.6-0.2-0.366-0.383-0.6-0.55-0.7-0.067-0.034-0.217-0.05-0.45-0.05-0.167 0-0.283-0.05-0.35-0.15-0.133-0.133-0.233-0.367-0.3-0.7l-0.4-0.301-0.2 0.1c-0.433 0.3-0.917 0.967-1.45 2-0.3 0.566-0.417 1.083-0.35 1.55 0.033 0.267 0.183 0.65 0.45 1.15 0.367-0.267 0.6-0.467 0.7-0.6 0.1-0.1 0.217-0.267 0.35-0.5 0.167-0.2 0.316-0.317 0.45-0.35 0.167-0.066 0.384-0.083 0.65-0.05 0.133 0 0.333 0.017 0.6 0.05 0.401-0.066 0.834-0.333 1.3-0.799z" clip-rule="evenodd" fill="url(#dh)" fill-rule="evenodd"/>
				<linearGradient id="di" x1="-4.2119" x2="43.213" y1="-36.596" y2="-36.596" gradientUnits="userSpaceOnUse">
					<stop stop-opacity=".2" offset=".8157"/>
					<stop stop-opacity=".2" offset=".9804"/>
				</linearGradient>
				<path d="m5.05-35.8c-0.167 0.034-0.3 0.067-0.4 0.1l-0.15 0.1c-0.067 0.367 0.083 0.633 0.45 0.8 0.5 0.1 0.833 0.217 1 0.35 0.067 0.067 0.284 0.333 0.65 0.8l0.2 0.5 0.05-0.15-0.1-0.4h-0.1c0.267-0.167 0.4-0.383 0.4-0.65 1.067-0.2 1.883-0.316 2.45-0.35 0.533-0.033 1.367-0.033 2.5 0-0.167-0.2-0.517-0.333-1.05-0.4-0.566-0.167-1.1-0.267-1.6-0.3-1 0.133-1.75 0.167-2.25 0.1-0.034-0.233 0.083-0.483 0.35-0.75 0.267-0.233 0.517-0.383 0.75-0.45 0.534-0.2 1.217-0.367 2.05-0.5 0.7-0.1 1.083-0.167 1.15-0.2 0.233-0.133 0.517-0.417 0.85-0.85 0.667-0.433 1.8-0.583 3.4-0.45 0.9 0.033 1.45 0.066 1.65 0.1 0.567 0.066 1.067 0.25 1.5 0.55 0.867 0.633 1.534 1.066 2 1.3 0.2 0.1 0.55 0.3 1.05 0.6 0.433 0.3 0.8 0.5 1.1 0.6 0.967 0.3 1.983 0.816 3.05 1.55-0.067 0-0.434-0.083-1.1-0.25-1.43-0.496-2.388-0.813-2.875-0.95 0.254 0.079 0.529 0.212 0.825 0.4 0.433 0.233 0.75 0.4 0.95 0.5 0.367 0.133 0.667 0.333 0.9 0.6 0.5 0.233 0.884 0.417 1.15 0.55l0.1 0.05c0.333 0.1 0.65 0.133 0.95 0.1 0.367-0.033 0.717-0.5 1.05-1.4l-0.15-0.35c-0.1-0.2-0.267-0.566-0.5-1.1-0.1-0.134-0.25-0.2-0.45-0.2-0.9 0-1.583-0.066-2.05-0.2l-1.6-0.45c-0.233-0.1-0.517-0.267-0.85-0.5-0.4-0.3-0.684-0.483-0.85-0.55l-4.05-1.65c-0.7-0.367-1.25-0.633-1.65-0.8-0.733-0.3-1.35-0.434-1.85-0.4-0.267 0.033-0.85 0.316-1.75 0.85-0.1 0.1-0.25 0.184-0.45 0.25-0.1 0.067-0.284 0.233-0.55 0.5l-0.7 0.5c-0.367 0.267-0.917 0.417-1.65 0.45l-1.75 0.15c-0.367 0.1-0.65 0.267-0.85 0.5-0.233 0.333-0.434 0.617-0.6 0.85-0.333 0.334-0.533 0.517-0.6 0.55z" clip-rule="evenodd" fill="url(#di)" fill-rule="evenodd"/>
				<linearGradient id="dk" x1="-4.2119" x2="43.213" y1="-19.181" y2="-19.181" gradientUnits="userSpaceOnUse">
					<stop stop-opacity=".2" offset=".8157"/>
					<stop stop-opacity=".2" offset=".9804"/>
				</linearGradient>
				<path d="m24.8-3.2l0.05 0.05 0.25-0.3c0-2.033-0.5-3.483-1.5-4.35-1.267-1.1-2.634-1.816-4.1-2.15 1.9 0.067 3.183-0.3 3.85-1.1 0.5-0.667 0.816-1.616 0.95-2.85 0.1-0.9 0.284-1.467 0.55-1.7 0.2-0.167 0.55-0.367 1.05-0.6 0.566-0.333 0.9-0.7 1-1.1 0.3-1.333 0.35-2.216 0.15-2.65l-0.35-0.35c-0.167-0.233-0.283-0.533-0.35-0.9-0.067-1-0.083-1.733-0.05-2.2-0.2-0.034-0.45 0.066-0.75 0.3-0.3 0.233-0.517 0.4-0.65 0.5-0.667 0.434-1.1 0.783-1.3 1.05l-0.25 0.7c-0.267 0.6-0.483 1.333-0.65 2.2-0.167-0.233-0.2-0.767-0.1-1.6 0-0.5 0.1-1 0.3-1.5 0.167-0.4 0.35-0.733 0.55-1 0.134-0.2 0.284-0.517 0.45-0.95 0.467-0.667 0.934-1.183 1.4-1.55 0.233-0.167 0.534-0.25 0.9-0.25 0.467-0.034 0.767-0.067 0.9-0.1 0.267-0.1 0.533-0.383 0.8-0.85 0.133-0.267 0.3-0.617 0.5-1.05 0.1-0.2 0.316-0.583 0.65-1.15 0.233-0.5 0.233-0.9 0-1.2-0.167-0.2-0.383-0.283-0.65-0.25-0.4 0.033-0.667 0.033-0.8 0-0.134-0.066-0.317-0.316-0.55-0.75l-0.9-1.1-2.35-1.65-1.35-0.7c-1.033-0.433-1.566-0.7-1.6-0.8l0.4-0.05-0.35-0.05c-0.27-0.03-1.428-5e-3 -3.475 0.075 0.677-8e-3 1.252 0.05 1.725 0.175 0.867 0.233 1.316 0.35 1.35 0.35l0.8 0.5c0.133 0.066 0.367 0.217 0.7 0.45 0.466 0.4 0.75 0.7 0.85 0.9 0.1 0.267 0.167 0.466 0.2 0.6 0.1 0.233 0.233 0.366 0.4 0.4 0.134 0.033 0.367 0.066 0.7 0.1 0.3 0 0.533 0.05 0.7 0.15l-0.2 0.05h0.3c-0.066 0.633-0.116 1.117-0.15 1.45-0.2 1.4-0.4 2.4-0.6 3-0.167 0.533-0.333 0.917-0.5 1.15l-0.85 0.95c-0.4 0.466-0.867 0.8-1.4 1-0.233 0.066-0.383 0.133-0.45 0.2-0.1 0.034-0.184 0.15-0.25 0.35-0.133 0.434-0.25 1.033-0.35 1.8-0.1 0.867-0.2 1.467-0.3 1.8-0.267 1.167 0.033 2.233 0.9 3.2l0.35 0.35c0.466 0.534 0.7 1.233 0.7 2.1v0.75l-0.2 0.2c-0.067 0.1-0.317 0.366-0.75 0.8l-1.25 1.05c-0.233 0.233-0.5 0.35-0.8 0.35-0.6-0.2-1.05-0.283-1.35-0.25 0 0.1 0.25 0.4 0.75 0.9l0.3 0.3c0.367 0.133 0.9 0.383 1.6 0.75l1.9 0.85c0.733 0.333 1.4 1.05 2 2.15 0.367 0.667 0.55 1.684 0.55 3.05z" clip-rule="evenodd" fill="url(#dk)" fill-rule="evenodd"/>
				<linearGradient id="dl" x1="-4.2119" x2="43.213" y1="-23.575" y2="-23.575" gradientUnits="userSpaceOnUse">
					<stop stop-opacity=".2" offset=".8157"/>
					<stop stop-opacity=".2" offset=".9804"/>
				</linearGradient>
				<path d="m5.45-17.35c0.333 0.3 0.634 0.467 0.9 0.5-0.667-1.167-1.6-1.967-2.8-2.4-0.5-0.133-0.816-0.267-0.95-0.4-0.1-0.067-0.284-0.333-0.55-0.8-0.1-0.2-0.267-0.5-0.5-0.9-0.066-0.267-0.066-0.867 0-1.8 0-0.634 0.05-1.25 0.15-1.85 0.034-0.267 0.267-0.85 0.7-1.75l0.55-1.55c0.2-0.633 0.367-0.983 0.5-1.05 0.1-0.1 0.267-0.15 0.5-0.15 0.1 0 0.267 0.017 0.5 0.05h1c0.167-0.1 0.317-0.35 0.45-0.75-0.1-0.066-0.316-0.1-0.65-0.1-0.6 0.067-1.3 0.35-2.1 0.85-0.833 0.4-1.367 0.85-1.6 1.35-0.167 0.467-0.316 1.017-0.45 1.65-0.167 1.333-0.25 2.133-0.25 2.4 0.033 0.833 0.283 2.05 0.75 3.65l1.1 2.15 1.05 0.05c0.333 0.034 0.617 0.117 0.85 0.25 0.1 0.034 0.384 0.234 0.85 0.6z" clip-rule="evenodd" fill="url(#dl)" fill-rule="evenodd"/>
				<linearGradient id="dm" x1="-4.2119" x2="43.213" y1="-20.068" y2="-20.068" gradientUnits="userSpaceOnUse">
					<stop stop-opacity=".2" offset=".8157"/>
					<stop stop-opacity=".2" offset=".9804"/>
				</linearGradient>
				<path d="m25.101-3.45l0.25-0.2-0.051-0.45-0.65-2.65c-0.267-0.6-0.85-1.2-1.75-1.8-0.3-0.167-0.467-0.283-0.5-0.35 0-0.167 0.316-0.434 0.95-0.8 0.2-0.167 0.433-0.45 0.7-0.85 0.233-0.233 0.684-0.517 1.35-0.85 0.566-0.434 0.983-0.884 1.25-1.35 0.033-0.067 0.1-0.467 0.2-1.2l0.2-0.65c0.1-0.7 0.167-1.083 0.2-1.15 0.033-0.1 0.367-0.4 1-0.9l0.95-0.9c0.034-0.066 0.1-0.116 0.2-0.15 0.133-0.2 0.217-0.5 0.25-0.9 0.033-0.2 0.05-0.5 0.05-0.9 0.167-1.333 0.467-2.317 0.9-2.95 0.233-0.367 0.433-0.583 0.6-0.65 0.134-0.1 0.367-0.217 0.7-0.35 0.233-0.167 0.3-0.367 0.2-0.6-0.534-0.066-0.934 0.017-1.2 0.25-0.367 0.3-0.783 0.784-1.25 1.45-0.467 0.7-0.75 1.1-0.85 1.2-0.267 0.466-0.466 0.8-0.6 1-0.5 0.733-0.75 1.116-0.75 1.15 0.034-0.333 0.167-0.8 0.4-1.4 0.2-0.6 0.316-1.05 0.35-1.35 0.034-0.367 0.134-0.8 0.3-1.3l0.45-1.05c0.1-0.133 0.45-0.367 1.05-0.7 0.6-0.433 0.95-0.767 1.05-1 0.3-0.533 0.55-1.366 0.75-2.5 0.034-0.333 0.167-0.883 0.4-1.65 0.2-0.667 0.317-1.2 0.35-1.6 0-1.033-0.283-1.616-0.85-1.75-0.366-0.1-0.633-0.116-0.8-0.05-0.133-0.3-0.233-0.833-0.3-1.6 0-0.133-0.017-0.383-0.05-0.75-0.033-0.3-0.083-0.517-0.15-0.65-0.2-0.3-0.583-0.4-1.15-0.3-0.167 0.033-0.267 0.116-0.3 0.25 0 0.033 0.017 0.2 0.05 0.5 0.1 0.633 0.15 1.3 0.15 2-0.033 0.466-0.133 0.933-0.3 1.4-0.233 0.466-0.35 0.816-0.35 1.05l-0.65-0.25-0.2-0.05c-0.5-0.367-0.833-0.6-1-0.7l-0.9-0.5 0.2 0.05-0.1-0.05c-0.267-0.133-0.65-0.316-1.15-0.55-0.233-0.267-0.533-0.467-0.9-0.6-0.2-0.1-0.517-0.267-0.95-0.5-0.367-0.233-0.7-0.383-1-0.45l-0.6-0.1-0.4 0.05c0.033 0.1 0.566 0.367 1.6 0.8l1.35 0.7 2.35 1.65 0.9 1.1c0.233 0.434 0.417 0.684 0.55 0.75 0.133 0.033 0.4 0.033 0.8 0 0.267-0.033 0.483 0.05 0.65 0.25 0.233 0.3 0.233 0.7 0 1.2-0.333 0.566-0.55 0.95-0.65 1.15-0.2 0.433-0.367 0.783-0.5 1.05-0.267 0.467-0.533 0.75-0.8 0.85-0.134 0.033-0.434 0.066-0.9 0.1-0.366 0-0.667 0.083-0.9 0.25-0.466 0.367-0.933 0.883-1.4 1.55-0.167 0.434-0.316 0.75-0.45 0.95-0.2 0.267-0.383 0.6-0.55 1-0.2 0.5-0.3 1-0.3 1.5-0.1 0.833-0.067 1.367 0.1 1.6 0.167-0.867 0.384-1.6 0.65-2.2l0.25-0.7c0.2-0.267 0.633-0.616 1.3-1.05 0.133-0.1 0.35-0.267 0.65-0.5s0.55-0.333 0.75-0.3c-0.033 0.466-0.017 1.2 0.05 2.2 0.066 0.367 0.183 0.667 0.35 0.9l0.35 0.35c0.2 0.434 0.15 1.317-0.15 2.65-0.1 0.4-0.434 0.767-1 1.1-0.5 0.233-0.85 0.434-1.05 0.6-0.267 0.233-0.45 0.8-0.55 1.7-0.133 1.233-0.45 2.183-0.95 2.85-0.667 0.8-1.95 1.167-3.85 1.1 1.466 0.333 2.833 1.05 4.1 2.15 1.001 0.867 1.501 2.317 1.501 4.35z" clip-rule="evenodd" fill="url(#dm)" fill-rule="evenodd"/>
				<linearGradient id="dn" x1="2.7881" x2="62.913" y1="-20.068" y2="-20.068" gradientUnits="userSpaceOnUse">
					<stop stop-opacity=".2" offset=".8157"/>
					<stop stop-opacity=".2" offset=".9804"/>
				</linearGradient>
				<path d="m25.101-3.45l0.25-0.2-0.051-0.45-0.65-2.65c-0.267-0.6-0.85-1.2-1.75-1.8-0.3-0.167-0.467-0.283-0.5-0.35 0-0.167 0.316-0.434 0.95-0.8 0.2-0.167 0.433-0.45 0.7-0.85 0.233-0.233 0.684-0.517 1.35-0.85 0.566-0.434 0.983-0.884 1.25-1.35 0.033-0.067 0.1-0.467 0.2-1.2l0.2-0.65c0.1-0.7 0.167-1.083 0.2-1.15 0.033-0.1 0.367-0.4 1-0.9l0.95-0.9c0.034-0.066 0.1-0.116 0.2-0.15 0.133-0.2 0.217-0.5 0.25-0.9 0.033-0.2 0.05-0.5 0.05-0.9 0.167-1.333 0.467-2.317 0.9-2.95 0.233-0.367 0.433-0.583 0.6-0.65 0.134-0.1 0.367-0.217 0.7-0.35 0.233-0.167 0.3-0.367 0.2-0.6-0.534-0.066-0.934 0.017-1.2 0.25-0.367 0.3-0.783 0.784-1.25 1.45-0.467 0.7-0.75 1.1-0.85 1.2-0.267 0.466-0.466 0.8-0.6 1-0.5 0.733-0.75 1.116-0.75 1.15 0.034-0.333 0.167-0.8 0.4-1.4 0.2-0.6 0.316-1.05 0.35-1.35 0.034-0.367 0.134-0.8 0.3-1.3l0.45-1.05c0.1-0.133 0.45-0.367 1.05-0.7 0.6-0.433 0.95-0.767 1.05-1 0.3-0.533 0.55-1.366 0.75-2.5 0.034-0.333 0.167-0.883 0.4-1.65 0.2-0.667 0.317-1.2 0.35-1.6 0-1.033-0.283-1.616-0.85-1.75-0.366-0.1-0.633-0.116-0.8-0.05-0.133-0.3-0.233-0.833-0.3-1.6 0-0.133-0.017-0.383-0.05-0.75-0.033-0.3-0.083-0.517-0.15-0.65-0.2-0.3-0.583-0.4-1.15-0.3-0.167 0.033-0.267 0.116-0.3 0.25 0 0.033 0.017 0.2 0.05 0.5 0.1 0.633 0.15 1.3 0.15 2-0.033 0.466-0.133 0.933-0.3 1.4-0.233 0.466-0.35 0.816-0.35 1.05l-0.65-0.25-0.2-0.05c-0.5-0.367-0.833-0.6-1-0.7l-0.9-0.5 0.2 0.05-0.1-0.05c-0.267-0.133-0.65-0.316-1.15-0.55-0.233-0.267-0.533-0.467-0.9-0.6-0.2-0.1-0.517-0.267-0.95-0.5-0.367-0.233-0.7-0.383-1-0.45l-0.6-0.1-0.4 0.05c0.033 0.1 0.566 0.367 1.6 0.8l1.35 0.7 2.35 1.65 0.9 1.1c0.233 0.434 0.417 0.684 0.55 0.75 0.133 0.033 0.4 0.033 0.8 0 0.267-0.033 0.483 0.05 0.65 0.25 0.233 0.3 0.233 0.7 0 1.2-0.333 0.566-0.55 0.95-0.65 1.15-0.2 0.433-0.367 0.783-0.5 1.05-0.267 0.467-0.533 0.75-0.8 0.85-0.134 0.033-0.434 0.066-0.9 0.1-0.366 0-0.667 0.083-0.9 0.25-0.466 0.367-0.933 0.883-1.4 1.55-0.167 0.434-0.316 0.75-0.45 0.95-0.2 0.267-0.383 0.6-0.55 1-0.2 0.5-0.3 1-0.3 1.5-0.1 0.833-0.067 1.367 0.1 1.6 0.167-0.867 0.384-1.6 0.65-2.2l0.25-0.7c0.2-0.267 0.633-0.616 1.3-1.05 0.133-0.1 0.35-0.267 0.65-0.5s0.55-0.333 0.75-0.3c-0.033 0.466-0.017 1.2 0.05 2.2 0.066 0.367 0.183 0.667 0.35 0.9l0.35 0.35c0.2 0.434 0.15 1.317-0.15 2.65-0.1 0.4-0.434 0.767-1 1.1-0.5 0.233-0.85 0.434-1.05 0.6-0.267 0.233-0.45 0.8-0.55 1.7-0.133 1.233-0.45 2.183-0.95 2.85-0.667 0.8-1.95 1.167-3.85 1.1 1.466 0.333 2.833 1.05 4.1 2.15 1.001 0.867 1.501 2.317 1.501 4.35z" clip-rule="evenodd" fill="url(#dn)" fill-rule="evenodd"/>
				<linearGradient id="do" x1="-4.2119" x2="43.213" y1="-37.575" y2="-37.575" gradientUnits="userSpaceOnUse">
					<stop stop-opacity=".2" offset=".8157"/>
					<stop stop-opacity=".2" offset=".9804"/>
				</linearGradient>
				<path d="m4.5-35.7v0.1l0.15-0.1c0.1-0.033 0.233-0.066 0.4-0.1 0.067-0.033 0.267-0.216 0.6-0.55 0.167-0.233 0.367-0.517 0.6-0.85 0.2-0.233 0.483-0.4 0.85-0.5l1.75-0.15c0.733-0.033 1.283-0.184 1.65-0.45l0.7-0.5c0.267-0.267 0.45-0.433 0.55-0.5 0.2-0.066 0.35-0.15 0.45-0.25 0.9-0.533 1.483-0.816 1.75-0.85 0.5-0.034 1.117 0.1 1.85 0.4 0.4 0.167 0.95 0.433 1.65 0.8l4.05 1.65c0.167 0.067 0.45 0.25 0.85 0.55 0.333 0.233 0.616 0.4 0.85 0.5l1.6 0.45c0.467 0.134 1.15 0.2 2.05 0.2 0.2 0 0.35 0.066 0.45 0.2 0.233 0.533 0.4 0.9 0.5 1.1l0.15 0.35 0.15-0.4c0.1-0.233 0.1-0.517 0-0.85-0.134-0.933-0.3-1.45-0.5-1.55-0.067-0.034-0.284-0.05-0.65-0.05l-2.4-0.1c-0.7 0-1.15-0.034-1.35-0.1-0.466-0.1-0.983-0.4-1.55-0.9-0.767-0.634-1.25-1.017-1.45-1.15-0.667-0.333-1.667-0.783-3-1.35-0.3-0.2-0.733-0.3-1.3-0.3-0.6 0.034-1.033 0.05-1.3 0.05l-1.7 0.25c-0.3 0.066-0.733 0.25-1.3 0.55s-1.017 0.5-1.35 0.6c-0.3 0.066-0.733 0.1-1.3 0.1-0.633 0-1.083 0.017-1.35 0.05-0.6 0.1-1.017 0.25-1.25 0.45-0.667 1.333-1.233 2.333-1.7 3l-0.15 0.2z" clip-rule="evenodd" fill="url(#do)" fill-rule="evenodd"/>
				<linearGradient id="dp" x1="2.7881" x2="62.913" y1="-37.575" y2="-37.575" gradientUnits="userSpaceOnUse">
					<stop stop-opacity=".2" offset=".8157"/>
					<stop stop-opacity=".2" offset=".9804"/>
				</linearGradient>
				<path d="m4.5-35.7v0.1l0.15-0.1c0.1-0.033 0.233-0.066 0.4-0.1 0.067-0.033 0.267-0.216 0.6-0.55 0.167-0.233 0.367-0.517 0.6-0.85 0.2-0.233 0.483-0.4 0.85-0.5l1.75-0.15c0.733-0.033 1.283-0.184 1.65-0.45l0.7-0.5c0.267-0.267 0.45-0.433 0.55-0.5 0.2-0.066 0.35-0.15 0.45-0.25 0.9-0.533 1.483-0.816 1.75-0.85 0.5-0.034 1.117 0.1 1.85 0.4 0.4 0.167 0.95 0.433 1.65 0.8l4.05 1.65c0.167 0.067 0.45 0.25 0.85 0.55 0.333 0.233 0.616 0.4 0.85 0.5l1.6 0.45c0.467 0.134 1.15 0.2 2.05 0.2 0.2 0 0.35 0.066 0.45 0.2 0.233 0.533 0.4 0.9 0.5 1.1l0.15 0.35 0.15-0.4c0.1-0.233 0.1-0.517 0-0.85-0.134-0.933-0.3-1.45-0.5-1.55-0.067-0.034-0.284-0.05-0.65-0.05l-2.4-0.1c-0.7 0-1.15-0.034-1.35-0.1-0.466-0.1-0.983-0.4-1.55-0.9-0.767-0.634-1.25-1.017-1.45-1.15-0.667-0.333-1.667-0.783-3-1.35-0.3-0.2-0.733-0.3-1.3-0.3-0.6 0.034-1.033 0.05-1.3 0.05l-1.7 0.25c-0.3 0.066-0.733 0.25-1.3 0.55s-1.017 0.5-1.35 0.6c-0.3 0.066-0.733 0.1-1.3 0.1-0.633 0-1.083 0.017-1.35 0.05-0.6 0.1-1.017 0.25-1.25 0.45-0.667 1.333-1.233 2.333-1.7 3l-0.15 0.2z" clip-rule="evenodd" fill="url(#dp)" fill-rule="evenodd"/>
				<linearGradient id="dq" x1="-2.0498" x2="7.4502" y1="-28.649" y2="-28.649" gradientUnits="userSpaceOnUse">
					<stop stop-opacity=".2" offset=".8157"/>
					<stop stop-opacity=".2" offset=".9804"/>
				</linearGradient>
				<path d="m6.25-31.7l-0.2 0.6-0.15 0.9c0.167 0.034 0.267 0.2 0.3 0.5 0.534 1.833 0.95 3.2 1.25 4.1-0.167-2.5-0.283-3.9-0.35-4.2l-0.15-1-0.45-0.9h-0.25z" clip-rule="evenodd" fill="url(#dq)" fill-rule="evenodd"/>
				<linearGradient id="dr" x1="-2.0498" x2="7.4502" y1="-22.324" y2="-22.324" gradientUnits="userSpaceOnUse">
					<stop stop-opacity=".2" offset=".8157"/>
					<stop stop-opacity=".2" offset=".9804"/>
				</linearGradient>
				<path d="m0.4-23.149c0 0.366 0.066 0.683 0.2 0.95 0.2 0.333 0.35 0.6 0.45 0.8l-0.65-1.851v0.101z" clip-rule="evenodd" fill="url(#dr)" fill-rule="evenodd"/>
				<linearGradient id="ds" x1="-4.2119" x2="43.213" y1="-26.074" y2="-26.074" gradientUnits="userSpaceOnUse">
					<stop stop-opacity=".2" offset=".8157"/>
					<stop stop-opacity=".2" offset=".9804"/>
				</linearGradient>
				<path d="m1.05-21.399l0.55 1c-0.467-1.6-0.717-2.817-0.75-3.65 0-0.267 0.083-1.066 0.25-2.4 0.133-0.633 0.283-1.183 0.45-1.65 0.233-0.5 0.767-0.95 1.6-1.35 0.8-0.5 1.5-0.783 2.1-0.85 0.333 0 0.55 0.034 0.65 0.1l0.15-0.9 0.2-0.6h-0.05c-0.366-0.033-0.65-0.05-0.85-0.05-0.367 0-0.65 0.033-0.85 0.1-0.467 0.466-0.9 0.733-1.3 0.8-0.267-0.033-0.466-0.05-0.6-0.05-0.267-0.034-0.483-0.017-0.65 0.05-0.133 0.033-0.283 0.149-0.45 0.349-0.133 0.233-0.25 0.4-0.35 0.5-0.1 0.133-0.333 0.333-0.7 0.6 0.233 0.366 0.367 0.616 0.4 0.75 0.2 0.5 0.2 1.35 0 2.55-0.3 1.566-0.45 2.517-0.45 2.85l0.65 1.851z" clip-rule="evenodd" fill="url(#ds)" fill-rule="evenodd"/>
				<linearGradient id="dt" x1="-2.0498" x2="7.4502" y1="-26.074" y2="-26.074" gradientUnits="userSpaceOnUse">
					<stop stop-opacity=".2" offset=".8157"/>
					<stop stop-opacity=".2" offset=".9804"/>
				</linearGradient>
				<path d="m1.05-21.399l0.55 1c-0.467-1.6-0.717-2.817-0.75-3.65 0-0.267 0.083-1.066 0.25-2.4 0.133-0.633 0.283-1.183 0.45-1.65 0.233-0.5 0.767-0.95 1.6-1.35 0.8-0.5 1.5-0.783 2.1-0.85 0.333 0 0.55 0.034 0.65 0.1l0.15-0.9 0.2-0.6h-0.05c-0.366-0.033-0.65-0.05-0.85-0.05-0.367 0-0.65 0.033-0.85 0.1-0.467 0.466-0.9 0.733-1.3 0.8-0.267-0.033-0.466-0.05-0.6-0.05-0.267-0.034-0.483-0.017-0.65 0.05-0.133 0.033-0.283 0.149-0.45 0.349-0.133 0.233-0.25 0.4-0.35 0.5-0.1 0.133-0.333 0.333-0.7 0.6 0.233 0.366 0.367 0.616 0.4 0.75 0.2 0.5 0.2 1.35 0 2.55-0.3 1.566-0.45 2.517-0.45 2.85l0.65 1.851z" clip-rule="evenodd" fill="url(#dt)" fill-rule="evenodd"/>
				<linearGradient id="dv" x1="-1.8496" x2="7.1504" y1="-31.624" y2="-31.624" gradientUnits="userSpaceOnUse">
					<stop stop-opacity=".2" offset=".8157"/>
					<stop stop-opacity=".2" offset=".9804"/>
				</linearGradient>
				<path d="m6.5-31.7l0.3 0.15c0.067 0.367 0.117 0.617 0.15 0.75l0.2 0.7-0.05-1.25c0.033-0.333-0.05-0.883-0.25-1.65l-0.05-0.15-0.25 0.45-0.2 0.65 0.05 0.15 0.1 0.2z" clip-rule="evenodd" fill="url(#dv)" fill-rule="evenodd"/>
				<linearGradient id="dw" x1="-4.2119" x2="43.213" y1="-33.825" y2="-33.825" gradientUnits="userSpaceOnUse">
					<stop stop-opacity=".2" offset=".8157"/>
					<stop stop-opacity=".2" offset=".9804"/>
				</linearGradient>
				<path d="m6.351-32.05l0.2-0.65 0.25-0.45-0.2-0.5c-0.367-0.467-0.583-0.733-0.65-0.8-0.167-0.133-0.5-0.25-1-0.35-0.366-0.167-0.517-0.433-0.45-0.8l-0.1 0.05-0.3 0.25c-0.034 0.233 0 0.434 0.1 0.6 0.4 0.233 0.667 0.417 0.8 0.55l0.6 0.75c-0.233 0.066-0.567 0.083-1 0.05-0.6-0.066-0.934-0.1-1-0.1-0.3 0-0.534-0.05-0.7-0.15l-0.5-0.3c0.066 0.333 0.167 0.566 0.3 0.7 0.067 0.1 0.184 0.15 0.35 0.15 0.233 0 0.383 0.017 0.45 0.05 0.167 0.1 0.35 0.333 0.55 0.7 0.2-0.1 0.417-0.3 0.65-0.6 0.333-0.167 0.684-0.15 1.05 0.05 0.166 0.1 0.366 0.367 0.6 0.8z" clip-rule="evenodd" fill="url(#dw)" fill-rule="evenodd"/>
				<linearGradient id="dx" x1="-1.8496" x2="7.1504" y1="-33.825" y2="-33.825" gradientUnits="userSpaceOnUse">
					<stop stop-opacity=".2" offset=".8157"/>
					<stop stop-opacity=".2" offset=".9804"/>
				</linearGradient>
				<path d="m6.351-32.05l0.2-0.65 0.25-0.45-0.2-0.5c-0.367-0.467-0.583-0.733-0.65-0.8-0.167-0.133-0.5-0.25-1-0.35-0.366-0.167-0.517-0.433-0.45-0.8l-0.1 0.05-0.3 0.25c-0.034 0.233 0 0.434 0.1 0.6 0.4 0.233 0.667 0.417 0.8 0.55l0.6 0.75c-0.233 0.066-0.567 0.083-1 0.05-0.6-0.066-0.934-0.1-1-0.1-0.3 0-0.534-0.05-0.7-0.15l-0.5-0.3c0.066 0.333 0.167 0.566 0.3 0.7 0.067 0.1 0.184 0.15 0.35 0.15 0.233 0 0.383 0.017 0.45 0.05 0.167 0.1 0.35 0.333 0.55 0.7 0.2-0.1 0.417-0.3 0.65-0.6 0.333-0.167 0.684-0.15 1.05 0.05 0.166 0.1 0.366 0.367 0.6 0.8z" clip-rule="evenodd" fill="url(#dx)" fill-rule="evenodd"/>
				<linearGradient id="dy" x1="-2.0498" x2="7.4502" y1="-31.25" y2="-31.25" gradientUnits="userSpaceOnUse">
					<stop stop-opacity=".2" offset=".8157"/>
					<stop stop-opacity=".2" offset=".9804"/>
				</linearGradient>
				<path d="m6.8-31.55l-0.3-0.15 0.45 0.9c-0.033-0.133-0.083-0.383-0.15-0.75z" clip-rule="evenodd" fill="url(#dy)" fill-rule="evenodd"/>
				<linearGradient id="bn" x1="-1.8496" x2="7.1504" y1="-31.25" y2="-31.25" gradientUnits="userSpaceOnUse">
					<stop stop-opacity=".2" offset=".8157"/>
					<stop stop-opacity=".2" offset=".9804"/>
				</linearGradient>
				<path d="m6.8-31.55l-0.3-0.15 0.45 0.9c-0.033-0.133-0.083-0.383-0.15-0.75z" clip-rule="evenodd" fill="url(#bn)" fill-rule="evenodd"/>
				<linearGradient id="bo" x1="-4.2119" x2="43.213" y1="-32.95" y2="-32.95" gradientUnits="userSpaceOnUse">
					<stop stop-opacity=".2" offset=".8157"/>
					<stop stop-opacity=".2" offset=".9804"/>
				</linearGradient>
				<path d="m25.95-32.899l1.9 1.2c0.2-0.033 0.383-0.35 0.55-0.95 0-0.4-0.033-0.7-0.1-0.9l-0.35-0.65c-0.333 0.9-0.683 1.367-1.05 1.4-0.299 0.033-0.616-1e-3 -0.95-0.1z" clip-rule="evenodd" fill="url(#bo)" fill-rule="evenodd"/>
				<linearGradient id="bp" x1="-.1748" x2="39.875" y1="-32.95" y2="-32.95" gradientUnits="userSpaceOnUse">
					<stop stop-opacity=".2" offset=".8157"/>
					<stop stop-opacity=".2" offset=".9804"/>
				</linearGradient>
				<path d="m25.95-32.899l1.9 1.2c0.2-0.033 0.383-0.35 0.55-0.95 0-0.4-0.033-0.7-0.1-0.9l-0.35-0.65c-0.333 0.9-0.683 1.367-1.05 1.4-0.299 0.033-0.616-1e-3 -0.95-0.1z" clip-rule="evenodd" fill="url(#bp)" fill-rule="evenodd"/>
				<linearGradient id="bq" x1="-4.2119" x2="43.213" y1="-34.149" y2="-34.149" gradientUnits="userSpaceOnUse">
					<stop stop-opacity=".2" offset=".8157"/>
					<stop stop-opacity=".2" offset=".9804"/>
				</linearGradient>
				<polygon points="2 -34.2 2.4 -33.899 2.351 -34.399" clip-rule="evenodd" fill="url(#bq)" fill-rule="evenodd"/>
				<linearGradient id="br" x1="-.1748" x2="39.875" y1="-34.149" y2="-34.149" gradientUnits="userSpaceOnUse">
					<stop stop-opacity=".2" offset=".8157"/>
					<stop stop-opacity=".2" offset=".9804"/>
				</linearGradient>
				<polygon points="2 -34.2 2.4 -33.899 2.351 -34.399" clip-rule="evenodd" fill="url(#br)" fill-rule="evenodd"/>
				<linearGradient id="bs" x1="-4.2119" x2="43.213" y1="-23.076" y2="-23.076" gradientUnits="userSpaceOnUse">
					<stop stop-opacity=".2" offset=".8157"/>
					<stop stop-opacity=".2" offset=".9804"/>
				</linearGradient>
				<path d="m25.3-4.1l0.05 0.45 0.4-0.65c0.1-0.267 0.15-0.7 0.15-1.3 0.167-0.767 0.533-1.934 1.1-3.5 0.167-0.566 0.533-1.517 1.1-2.85 0.866-2.066 1.9-3.75 3.1-5.05 0.367-0.434 0.733-1.067 1.1-1.9 0.434-0.967 0.767-1.617 1-1.95 0.333-0.434 0.767-0.95 1.3-1.55 0.433-0.534 0.716-1.167 0.85-1.9 0.067-0.366 0.333-1.25 0.8-2.65 0.333-1 0-2.033-1-3.1-0.067-0.066-0.35-0.3-0.85-0.7-0.333-0.233-0.517-0.534-0.55-0.9-0.067-0.534-0.05-1.384 0.05-2.55-0.133-1.033-0.617-2.1-1.45-3.2-0.466-0.534-0.75-0.85-0.85-0.95-0.3-0.267-0.65-0.434-1.05-0.5h-6c-1.466 0-2.75-0.267-3.85-0.8l-1.65-0.95c-0.333-0.2-1-0.6-2-1.2-0.9-0.5-1.617-0.733-2.15-0.7-0.167 0-0.45 0.066-0.85 0.2-0.433 0.167-0.716 0.267-0.85 0.3l-2.1 0.55c-0.233 0.067-0.667 0.15-1.3 0.25-0.6 0.067-1.05 0.167-1.35 0.3-0.833 0.366-1.533 1.033-2.1 2 0.233-0.2 0.65-0.35 1.25-0.45 0.267-0.033 0.716-0.05 1.35-0.05 0.567 0 1-0.034 1.3-0.1 0.333-0.1 0.783-0.3 1.35-0.6 0.566-0.3 1-0.483 1.3-0.55l1.7-0.25c0.267 0 0.7-0.017 1.3-0.05 0.566 0 1 0.1 1.3 0.3 1.333 0.566 2.333 1.017 3 1.35 0.2 0.134 0.684 0.517 1.45 1.15 0.566 0.5 1.083 0.8 1.55 0.9 0.2 0.066 0.65 0.1 1.35 0.1l2.4 0.1c0.367 0 0.583 0.017 0.65 0.05 0.2 0.1 0.366 0.617 0.5 1.55 0.1 0.333 0.1 0.617 0 0.85l-0.15 0.4 0.35 0.65c0.067 0.2 0.1 0.5 0.1 0.9-0.167 0.6-0.35 0.917-0.55 0.95l0.65 0.25c0-0.233 0.117-0.583 0.35-1.05 0.167-0.467 0.267-0.934 0.3-1.4 0-0.7-0.05-1.367-0.15-2-0.034-0.3-0.05-0.467-0.05-0.5 0.034-0.134 0.134-0.217 0.3-0.25 0.566-0.1 0.95 0 1.15 0.3 0.066 0.133 0.117 0.35 0.15 0.65 0.034 0.367 0.05 0.617 0.05 0.75 0.066 0.767 0.167 1.3 0.3 1.6 0.167-0.066 0.434-0.05 0.8 0.05 0.567 0.134 0.85 0.717 0.85 1.75-0.033 0.4-0.15 0.934-0.35 1.6-0.233 0.767-0.366 1.317-0.4 1.65-0.2 1.134-0.45 1.967-0.75 2.5-0.1 0.233-0.45 0.567-1.05 1-0.6 0.333-0.95 0.567-1.05 0.7l-0.45 1.05c-0.167 0.5-0.267 0.934-0.3 1.3-0.033 0.3-0.15 0.75-0.35 1.35-0.233 0.6-0.367 1.066-0.4 1.4 0-0.034 0.25-0.417 0.75-1.15 0.134-0.2 0.333-0.534 0.6-1 0.1-0.1 0.383-0.5 0.85-1.2 0.467-0.667 0.883-1.15 1.25-1.45 0.267-0.233 0.667-0.316 1.2-0.25 0.1 0.233 0.033 0.434-0.2 0.6-0.333 0.133-0.566 0.25-0.7 0.35-0.167 0.066-0.366 0.283-0.6 0.65-0.434 0.633-0.733 1.617-0.9 2.95 0 0.4-0.017 0.7-0.05 0.9-0.033 0.4-0.117 0.7-0.25 0.9-0.1 0.034-0.167 0.083-0.2 0.15l-0.95 0.9c-0.633 0.5-0.967 0.8-1 0.9-0.034 0.066-0.1 0.45-0.2 1.15l-0.2 0.65c-0.1 0.733-0.167 1.133-0.2 1.2-0.267 0.466-0.684 0.917-1.25 1.35-0.667 0.333-1.117 0.616-1.35 0.85-0.267 0.4-0.5 0.684-0.7 0.85-0.634 0.367-0.95 0.633-0.95 0.8 0.033 0.066 0.2 0.183 0.5 0.35 0.9 0.6 1.483 1.2 1.75 1.8l0.65 2.65z" clip-rule="evenodd" fill="url(#bs)" fill-rule="evenodd"/>
				<linearGradient id="bu" x1="2.7881" x2="62.913" y1="-23.076" y2="-23.076" gradientUnits="userSpaceOnUse">
					<stop stop-opacity=".2" offset=".8157"/>
					<stop stop-opacity=".2" offset=".9804"/>
				</linearGradient>
				<path d="m25.3-4.1l0.05 0.45 0.4-0.65c0.1-0.267 0.15-0.7 0.15-1.3 0.167-0.767 0.533-1.934 1.1-3.5 0.167-0.566 0.533-1.517 1.1-2.85 0.866-2.066 1.9-3.75 3.1-5.05 0.367-0.434 0.733-1.067 1.1-1.9 0.434-0.967 0.767-1.617 1-1.95 0.333-0.434 0.767-0.95 1.3-1.55 0.433-0.534 0.716-1.167 0.85-1.9 0.067-0.366 0.333-1.25 0.8-2.65 0.333-1 0-2.033-1-3.1-0.067-0.066-0.35-0.3-0.85-0.7-0.333-0.233-0.517-0.534-0.55-0.9-0.067-0.534-0.05-1.384 0.05-2.55-0.133-1.033-0.617-2.1-1.45-3.2-0.466-0.534-0.75-0.85-0.85-0.95-0.3-0.267-0.65-0.434-1.05-0.5h-6c-1.466 0-2.75-0.267-3.85-0.8l-1.65-0.95c-0.333-0.2-1-0.6-2-1.2-0.9-0.5-1.617-0.733-2.15-0.7-0.167 0-0.45 0.066-0.85 0.2-0.433 0.167-0.716 0.267-0.85 0.3l-2.1 0.55c-0.233 0.067-0.667 0.15-1.3 0.25-0.6 0.067-1.05 0.167-1.35 0.3-0.833 0.366-1.533 1.033-2.1 2 0.233-0.2 0.65-0.35 1.25-0.45 0.267-0.033 0.716-0.05 1.35-0.05 0.567 0 1-0.034 1.3-0.1 0.333-0.1 0.783-0.3 1.35-0.6 0.566-0.3 1-0.483 1.3-0.55l1.7-0.25c0.267 0 0.7-0.017 1.3-0.05 0.566 0 1 0.1 1.3 0.3 1.333 0.566 2.333 1.017 3 1.35 0.2 0.134 0.684 0.517 1.45 1.15 0.566 0.5 1.083 0.8 1.55 0.9 0.2 0.066 0.65 0.1 1.35 0.1l2.4 0.1c0.367 0 0.583 0.017 0.65 0.05 0.2 0.1 0.366 0.617 0.5 1.55 0.1 0.333 0.1 0.617 0 0.85l-0.15 0.4 0.35 0.65c0.067 0.2 0.1 0.5 0.1 0.9-0.167 0.6-0.35 0.917-0.55 0.95l0.65 0.25c0-0.233 0.117-0.583 0.35-1.05 0.167-0.467 0.267-0.934 0.3-1.4 0-0.7-0.05-1.367-0.15-2-0.034-0.3-0.05-0.467-0.05-0.5 0.034-0.134 0.134-0.217 0.3-0.25 0.566-0.1 0.95 0 1.15 0.3 0.066 0.133 0.117 0.35 0.15 0.65 0.034 0.367 0.05 0.617 0.05 0.75 0.066 0.767 0.167 1.3 0.3 1.6 0.167-0.066 0.434-0.05 0.8 0.05 0.567 0.134 0.85 0.717 0.85 1.75-0.033 0.4-0.15 0.934-0.35 1.6-0.233 0.767-0.366 1.317-0.4 1.65-0.2 1.134-0.45 1.967-0.75 2.5-0.1 0.233-0.45 0.567-1.05 1-0.6 0.333-0.95 0.567-1.05 0.7l-0.45 1.05c-0.167 0.5-0.267 0.934-0.3 1.3-0.033 0.3-0.15 0.75-0.35 1.35-0.233 0.6-0.367 1.066-0.4 1.4 0-0.034 0.25-0.417 0.75-1.15 0.134-0.2 0.333-0.534 0.6-1 0.1-0.1 0.383-0.5 0.85-1.2 0.467-0.667 0.883-1.15 1.25-1.45 0.267-0.233 0.667-0.316 1.2-0.25 0.1 0.233 0.033 0.434-0.2 0.6-0.333 0.133-0.566 0.25-0.7 0.35-0.167 0.066-0.366 0.283-0.6 0.65-0.434 0.633-0.733 1.617-0.9 2.95 0 0.4-0.017 0.7-0.05 0.9-0.033 0.4-0.117 0.7-0.25 0.9-0.1 0.034-0.167 0.083-0.2 0.15l-0.95 0.9c-0.633 0.5-0.967 0.8-1 0.9-0.034 0.066-0.1 0.45-0.2 1.15l-0.2 0.65c-0.1 0.733-0.167 1.133-0.2 1.2-0.267 0.466-0.684 0.917-1.25 1.35-0.667 0.333-1.117 0.616-1.35 0.85-0.267 0.4-0.5 0.684-0.7 0.85-0.634 0.367-0.95 0.633-0.95 0.8 0.033 0.066 0.2 0.183 0.5 0.35 0.9 0.6 1.483 1.2 1.75 1.8l0.65 2.65z" clip-rule="evenodd" fill="url(#bu)" fill-rule="evenodd"/>
				<linearGradient id="bv" x1="-.1748" x2="39.875" y1="-23.076" y2="-23.076" gradientUnits="userSpaceOnUse">
					<stop stop-opacity=".2" offset=".8157"/>
					<stop stop-opacity=".2" offset=".9804"/>
				</linearGradient>
				<path d="m25.3-4.1l0.05 0.45 0.4-0.65c0.1-0.267 0.15-0.7 0.15-1.3 0.167-0.767 0.533-1.934 1.1-3.5 0.167-0.566 0.533-1.517 1.1-2.85 0.866-2.066 1.9-3.75 3.1-5.05 0.367-0.434 0.733-1.067 1.1-1.9 0.434-0.967 0.767-1.617 1-1.95 0.333-0.434 0.767-0.95 1.3-1.55 0.433-0.534 0.716-1.167 0.85-1.9 0.067-0.366 0.333-1.25 0.8-2.65 0.333-1 0-2.033-1-3.1-0.067-0.066-0.35-0.3-0.85-0.7-0.333-0.233-0.517-0.534-0.55-0.9-0.067-0.534-0.05-1.384 0.05-2.55-0.133-1.033-0.617-2.1-1.45-3.2-0.466-0.534-0.75-0.85-0.85-0.95-0.3-0.267-0.65-0.434-1.05-0.5h-6c-1.466 0-2.75-0.267-3.85-0.8l-1.65-0.95c-0.333-0.2-1-0.6-2-1.2-0.9-0.5-1.617-0.733-2.15-0.7-0.167 0-0.45 0.066-0.85 0.2-0.433 0.167-0.716 0.267-0.85 0.3l-2.1 0.55c-0.233 0.067-0.667 0.15-1.3 0.25-0.6 0.067-1.05 0.167-1.35 0.3-0.833 0.366-1.533 1.033-2.1 2 0.233-0.2 0.65-0.35 1.25-0.45 0.267-0.033 0.716-0.05 1.35-0.05 0.567 0 1-0.034 1.3-0.1 0.333-0.1 0.783-0.3 1.35-0.6 0.566-0.3 1-0.483 1.3-0.55l1.7-0.25c0.267 0 0.7-0.017 1.3-0.05 0.566 0 1 0.1 1.3 0.3 1.333 0.566 2.333 1.017 3 1.35 0.2 0.134 0.684 0.517 1.45 1.15 0.566 0.5 1.083 0.8 1.55 0.9 0.2 0.066 0.65 0.1 1.35 0.1l2.4 0.1c0.367 0 0.583 0.017 0.65 0.05 0.2 0.1 0.366 0.617 0.5 1.55 0.1 0.333 0.1 0.617 0 0.85l-0.15 0.4 0.35 0.65c0.067 0.2 0.1 0.5 0.1 0.9-0.167 0.6-0.35 0.917-0.55 0.95l0.65 0.25c0-0.233 0.117-0.583 0.35-1.05 0.167-0.467 0.267-0.934 0.3-1.4 0-0.7-0.05-1.367-0.15-2-0.034-0.3-0.05-0.467-0.05-0.5 0.034-0.134 0.134-0.217 0.3-0.25 0.566-0.1 0.95 0 1.15 0.3 0.066 0.133 0.117 0.35 0.15 0.65 0.034 0.367 0.05 0.617 0.05 0.75 0.066 0.767 0.167 1.3 0.3 1.6 0.167-0.066 0.434-0.05 0.8 0.05 0.567 0.134 0.85 0.717 0.85 1.75-0.033 0.4-0.15 0.934-0.35 1.6-0.233 0.767-0.366 1.317-0.4 1.65-0.2 1.134-0.45 1.967-0.75 2.5-0.1 0.233-0.45 0.567-1.05 1-0.6 0.333-0.95 0.567-1.05 0.7l-0.45 1.05c-0.167 0.5-0.267 0.934-0.3 1.3-0.033 0.3-0.15 0.75-0.35 1.35-0.233 0.6-0.367 1.066-0.4 1.4 0-0.034 0.25-0.417 0.75-1.15 0.134-0.2 0.333-0.534 0.6-1 0.1-0.1 0.383-0.5 0.85-1.2 0.467-0.667 0.883-1.15 1.25-1.45 0.267-0.233 0.667-0.316 1.2-0.25 0.1 0.233 0.033 0.434-0.2 0.6-0.333 0.133-0.566 0.25-0.7 0.35-0.167 0.066-0.366 0.283-0.6 0.65-0.434 0.633-0.733 1.617-0.9 2.95 0 0.4-0.017 0.7-0.05 0.9-0.033 0.4-0.117 0.7-0.25 0.9-0.1 0.034-0.167 0.083-0.2 0.15l-0.95 0.9c-0.633 0.5-0.967 0.8-1 0.9-0.034 0.066-0.1 0.45-0.2 1.15l-0.2 0.65c-0.1 0.733-0.167 1.133-0.2 1.2-0.267 0.466-0.684 0.917-1.25 1.35-0.667 0.333-1.117 0.616-1.35 0.85-0.267 0.4-0.5 0.684-0.7 0.85-0.634 0.367-0.95 0.633-0.95 0.8 0.033 0.066 0.2 0.183 0.5 0.35 0.9 0.6 1.483 1.2 1.75 1.8l0.65 2.65z" clip-rule="evenodd" fill="url(#bv)" fill-rule="evenodd"/>
				<linearGradient id="bw" x1="-4.2119" x2="43.213" y1="-34.316" y2="-34.316" gradientUnits="userSpaceOnUse">
					<stop stop-opacity=".2" offset=".8157"/>
					<stop stop-opacity=".2" offset=".9804"/>
				</linearGradient>
				<path d="m4.601-33.35c0.433 0.033 0.767 0.017 1-0.05l-0.601-0.749c-0.133-0.134-0.4-0.317-0.8-0.55-0.1-0.167-0.133-0.367-0.1-0.6-0.167 0.134-0.75 0.434-1.75 0.9l0.05 0.5 0.5 0.3c0.167 0.1 0.4 0.15 0.7 0.15 0.067-1e-3 0.4 0.033 1.001 0.099z" clip-rule="evenodd" fill="url(#bw)" fill-rule="evenodd"/>
				<linearGradient id="bx" x1="-1.8496" x2="7.1504" y1="-34.316" y2="-34.316" gradientUnits="userSpaceOnUse">
					<stop stop-opacity=".2" offset=".8157"/>
					<stop stop-opacity=".2" offset=".9804"/>
				</linearGradient>
				<path d="m4.601-33.35c0.433 0.033 0.767 0.017 1-0.05l-0.601-0.749c-0.133-0.134-0.4-0.317-0.8-0.55-0.1-0.167-0.133-0.367-0.1-0.6-0.167 0.134-0.75 0.434-1.75 0.9l0.05 0.5 0.5 0.3c0.167 0.1 0.4 0.15 0.7 0.15 0.067-1e-3 0.4 0.033 1.001 0.099z" clip-rule="evenodd" fill="url(#bx)" fill-rule="evenodd"/>
				<linearGradient id="by" x1="-.1748" x2="39.875" y1="-34.316" y2="-34.316" gradientUnits="userSpaceOnUse">
					<stop stop-opacity=".2" offset=".8157"/>
					<stop stop-opacity=".2" offset=".9804"/>
				</linearGradient>
				<path d="m4.601-33.35c0.433 0.033 0.767 0.017 1-0.05l-0.601-0.749c-0.133-0.134-0.4-0.317-0.8-0.55-0.1-0.167-0.133-0.367-0.1-0.6-0.167 0.134-0.75 0.434-1.75 0.9l0.05 0.5 0.5 0.3c0.167 0.1 0.4 0.15 0.7 0.15 0.067-1e-3 0.4 0.033 1.001 0.099z" clip-rule="evenodd" fill="url(#by)" fill-rule="evenodd"/>
					<use transform="translate(3.75 -1.4502)" y="-16.65" width="18.95" height="16.65" enable-background="new" xlink:href="#cl"/>
				<linearGradient id="bz" x1="-4.2119" x2="43.213" y1="-9.4248" y2="-9.4248" gradientUnits="userSpaceOnUse">
					<stop stop-opacity=".2" offset=".8157"/>
					<stop stop-opacity=".2" offset=".9804"/>
				</linearGradient>
				<path d="m19.45-9.5c0.034 0.033 0.467 0.183 1.3 0.45l0.5 0.2-0.9-0.4c-0.7-0.367-1.233-0.617-1.6-0.75 0.234 0.234 0.467 0.4 0.7 0.5z" clip-rule="evenodd" fill="url(#bz)" fill-rule="evenodd"/>
					<use transform="translate(18.75 -8.8501)" y="-1.15" width="2.5" height="1.15" enable-background="new" xlink:href="#cm"/>
				<linearGradient id="ca" x1="21.713" x2="24.188" y1="-2.8994" y2="-2.8994" gradientUnits="userSpaceOnUse">
					<stop stop-color="#fff" stop-opacity=".2" offset=".0627"/>
					<stop stop-color="#fff" stop-opacity=".2" offset=".1647"/>
				</linearGradient>
				<path d="m22.4-3.45c-0.333 0-0.566 0.05-0.7 0.15 0.034 0.167 0.25 0.317 0.65 0.45 0.466 0.167 0.716 0.267 0.75 0.3l0.75 0.2 0.15-0.15c-0.533-0.6-1.066-0.916-1.6-0.95z" clip-rule="evenodd" fill="url(#ca)" fill-rule="evenodd"/>
				<linearGradient id="cb" x1="19.638" x2="20.463" y1="-4.7573" y2="-4.7573" gradientUnits="userSpaceOnUse">
					<stop stop-color="#fff" stop-opacity=".2" offset=".0627"/>
					<stop stop-color="#fff" stop-opacity=".2" offset=".1647"/>
				</linearGradient>
				<path d="m19.65-5.05c-0.066 0.233 0.066 0.434 0.4 0.6l0.4-0.15c-0.099-0.366-0.366-0.516-0.8-0.45z" clip-rule="evenodd" fill="url(#cb)" fill-rule="evenodd"/>
				<linearGradient id="cc" x1="21.025" x2="21.775" y1="-5.207" y2="-5.207" gradientUnits="userSpaceOnUse">
					<stop stop-color="#fff" stop-opacity=".2" offset=".0627"/>
					<stop stop-color="#fff" stop-opacity=".2" offset=".1647"/>
				</linearGradient>
				<path d="m21.8-4.95c0.034-0.4-0.216-0.566-0.75-0.5v0.35l0.75 0.15z" clip-rule="evenodd" fill="url(#cc)" fill-rule="evenodd"/>
				<linearGradient id="cd" x1="17.663" x2="18.438" y1="-6.0996" y2="-6.0996" gradientUnits="userSpaceOnUse">
					<stop stop-color="#fff" stop-opacity=".2" offset=".0627"/>
					<stop stop-color="#fff" stop-opacity=".2" offset=".1647"/>
				</linearGradient>
				<path d="m17.75-6.35c-0.1 0.1-0.083 0.2 0.05 0.3 0.167 0.1 0.267 0.167 0.3 0.2l0.35-0.5h-0.7z" clip-rule="evenodd" fill="url(#cd)" fill-rule="evenodd"/>
				<linearGradient id="cf" x1="4.3628" x2="15.542" y1="-21.55" y2="-21.55" gradientUnits="userSpaceOnUse">
					<stop stop-color="#fff" stop-opacity=".2" offset=".0627"/>
					<stop stop-color="#fff" stop-opacity=".2" offset=".1647"/>
				</linearGradient>
				<path d="m14.2-17.05l-0.25 0.5-0.6-0.25 0.25 0.2 1.95 0.5c0.067-0.367 0-0.816-0.2-1.35-0.1-0.3-0.284-0.733-0.55-1.3-0.066-0.2-0.15-0.483-0.25-0.85-0.133-0.367-0.267-0.633-0.4-0.8-0.434-0.634-1.35-1.017-2.75-1.15l-0.9-0.1c-0.367-0.034-0.667-0.1-0.9-0.2-0.3-0.167-0.55-0.367-0.75-0.6l-2.3-2.15c-0.2-0.2-0.617-0.55-1.25-1.05-0.533-0.5-0.833-0.95-0.9-1.35-0.033 0.367 0.133 1.05 0.5 2.05 0.133 0.4 0.566 1.184 1.3 2.35 0.6 0.833 0.95 1.316 1.05 1.45 0.7 0.8 1.716 1.616 3.05 2.45l2.1 1.2c-0.5-0.434-0.733-0.75-0.7-0.95 0.067-0.233 0.483-0.25 1.25-0.05 0.3 0.133 0.55 0.333 0.75 0.6 0.2 0.367 0.367 0.65 0.5 0.85z" clip-rule="evenodd" fill="url(#cf)" fill-rule="evenodd"/>
				<linearGradient id="cg" x1="4.3628" x2="15.538" y1="-17.594" y2="-17.594" gradientUnits="userSpaceOnUse">
					<stop stop-color="#fff" stop-opacity=".2" offset=".0627"/>
					<stop stop-color="#fff" stop-opacity=".2" offset=".1647"/>
				</linearGradient>
				<path d="m11.7-18.45c-0.033 0.2 0.2 0.517 0.7 0.95l0.95 0.7 0.6 0.25 0.25-0.5c-0.133-0.2-0.3-0.483-0.5-0.85-0.2-0.267-0.45-0.467-0.75-0.6-0.766-0.2-1.183-0.183-1.25 0.05z" clip-rule="evenodd" fill="url(#cg)" fill-rule="evenodd"/>
				<linearGradient id="ch" x1="11.7" x2="14.2" y1="-17.594" y2="-17.594" gradientUnits="userSpaceOnUse">
					<stop stop-color="#fff" stop-opacity=".2" offset=".0627"/>
					<stop stop-color="#fff" stop-opacity=".2" offset=".1647"/>
				</linearGradient>
				<path d="m11.7-18.45c-0.033 0.2 0.2 0.517 0.7 0.95l0.95 0.7 0.6 0.25 0.25-0.5c-0.133-0.2-0.3-0.483-0.5-0.85-0.2-0.267-0.45-0.467-0.75-0.6-0.766-0.2-1.183-0.183-1.25 0.05z" clip-rule="evenodd" fill="url(#ch)" fill-rule="evenodd"/>
</symbol>
<use transform="matrix(1 0 0 -1 6.8501 8.5)" x="-0.018" y="-42.503" width="36.393" height="42.478" xlink:href="#dz"/>
</svg>
