<?xml version="1.0" encoding="UTF-8"?>
<svg viewBox="0 0 128 128" xmlns="http://www.w3.org/2000/svg" xmlns:xlink="http://www.w3.org/1999/xlink">
 <defs>
  <filter id="ai">
   <feGaussianBlur stdDeviation="1.25327"/>
  </filter>
  <linearGradient id="a">
   <stop stop-color="#b1b1b1" offset="0"/>
   <stop stop-color="#e4e4e4" offset="1"/>
  </linearGradient>
  <linearGradient id="o" x1="75.243" x2="66.835" y1="108.84" y2="120.26" gradientUnits="userSpaceOnUse">
   <stop stop-color="#6a3c1d" offset="0"/>
   <stop stop-color="#8f5127" offset="1"/>
  </linearGradient>
  <linearGradient id="ah" x1="45.499" x2="87.941" y1="58.344" y2="105.07" gradientUnits="userSpaceOnUse" xlink:href="#a"/>
  <linearGradient id="ag" x1="70.884" x2="101.85" y1="46.03" y2="54.396" gradientUnits="userSpaceOnUse" xlink:href="#a"/>
  <linearGradient id="af" x1="61.445" x2="88.231" y1="33.127" y2="20.489" gradientUnits="userSpaceOnUse" xlink:href="#a"/>
  <linearGradient id="ae" x1="48.68" x2="86.351" y1="14.924" y2="24.587" gradientUnits="userSpaceOnUse" xlink:href="#a"/>
  <linearGradient id="ad" x1="44.154" x2="50.636" y1="33.699" y2="31.375" gradientUnits="userSpaceOnUse" xlink:href="#a"/>
  <linearGradient id="ac" x1="52.104" x2="56.385" y1="36.634" y2="37.368" gradientUnits="userSpaceOnUse" xlink:href="#a"/>
  <linearGradient id="ab" x1="51.003" x2="67.515" gradientUnits="userSpaceOnUse" xlink:href="#a"/>
  <linearGradient id="aa" x1="65.803" x2="68.249" y1="35.533" y2="40.915" gradientUnits="userSpaceOnUse" xlink:href="#a"/>
  <linearGradient id="z" x1="68.738" x2="83.538" y1="37.001" y2="28.623" gradientUnits="userSpaceOnUse" xlink:href="#a"/>
  <linearGradient id="y" x1="86.229" x2="92.1" y1="35.166" y2="31.252" gradientUnits="userSpaceOnUse" xlink:href="#a"/>
  <linearGradient id="x" x1="88.186" x2="93.69" y1="25.137" y2="29.785" gradientUnits="userSpaceOnUse" xlink:href="#a"/>
  <linearGradient id="w" x1="86.596" x2="92.344" y1="20.795" y2="16.269" gradientUnits="userSpaceOnUse" xlink:href="#a"/>
  <linearGradient id="v" x1="75.71" x2="81.703" gradientUnits="userSpaceOnUse" xlink:href="#a"/>
  <linearGradient id="u" x1="62.011" x2="72.408" y1="12.233" y2="7.9524" gradientUnits="userSpaceOnUse" xlink:href="#a"/>
  <linearGradient id="t" x1="58.587" x2="61.155" y1="9.4201" y2="14.313" gradientUnits="userSpaceOnUse" xlink:href="#a"/>
  <linearGradient id="s" x1="54.55" x2="58.097" y1="19.266" y2="14.863" gradientUnits="userSpaceOnUse" xlink:href="#a"/>
  <linearGradient id="r" x1="38.528" x2="50.147" y1="17.431" y2="10.949" gradientUnits="userSpaceOnUse" xlink:href="#a"/>
  <linearGradient id="q" x1="38.405" x2="41.586" y1="19.205" y2="23.486" gradientUnits="userSpaceOnUse" xlink:href="#a"/>
  <linearGradient id="p" x1="36.815" x2="42.319" y1="29.173" y2="26.605" gradientUnits="userSpaceOnUse" xlink:href="#a"/>
  <linearGradient id="n" x1="89.168" x2="90.984" y1="110.01" y2="107.33" gradientUnits="userSpaceOnUse" xlink:href="#a"/>
  <linearGradient id="m" x1="89.946" x2="93.924" y1="112.26" y2="108.37" gradientUnits="userSpaceOnUse" xlink:href="#a"/>
  <linearGradient id="l" x1="59.589" x2="62.011" y1="115.2" y2="113.73" gradientUnits="userSpaceOnUse" xlink:href="#a"/>
  <linearGradient id="k" x1="57.078" x2="61.492" y1="118.38" y2="117.02" gradientUnits="userSpaceOnUse" xlink:href="#a"/>
  <linearGradient id="j" x1="69.405" x2="70.573" y1="93.751" y2="90.811" gradientUnits="userSpaceOnUse" xlink:href="#a"/>
  <linearGradient id="i" x1="72.173" x2="73.946" y1="91.849" y2="86.746" gradientUnits="userSpaceOnUse" xlink:href="#a"/>
  <linearGradient id="h" x1="75.676" x2="77.232" y1="92.108" y2="89.341" gradientUnits="userSpaceOnUse" xlink:href="#a"/>
  <linearGradient id="g" x1="85.795" x2="90.638" y1="87.005" y2="82.335" gradientUnits="userSpaceOnUse" xlink:href="#a"/>
  <linearGradient id="f" x1="89.081" x2="91.849" y1="81.557" y2="76.281" gradientUnits="userSpaceOnUse" xlink:href="#a"/>
  <linearGradient id="e" x1="80.951" x2="87.005" y1="86.314" y2="79.914" gradientUnits="userSpaceOnUse" xlink:href="#a"/>
  <linearGradient id="d" x1="46.876" x2="54.227" y1="86.227" y2="85.362" gradientUnits="userSpaceOnUse" xlink:href="#a"/>
  <linearGradient id="c" x1="45.059" x2="50.249" y1="81.946" y2="80.995" gradientUnits="userSpaceOnUse" xlink:href="#a"/>
  <linearGradient id="b" x1="51.373" x2="58.811" y1="84.454" y2="83.243" gradientUnits="userSpaceOnUse" xlink:href="#a"/>
 </defs>
 <path d="m43.691 54.489c-5.3101-1.2619-12.496 1.7259-5.6324 4.2262 5.7592 2.17-2.0209 4.0553-5.1792 1.8226-2.2103-2.1994-5.2711-5.3974-10.386-4.1786-3.3479 0.6614-6.7608 2.8299-5.6507 4.2804 4.8455 0.59105 0.59418 6.0447 2.0234 9.256 1.4768 2.7352 1.2073 6.0837 6.3313 8.176 5.4476 1.7674 5.2037 4.8224 5.9366 7.3882 2.2097 7.703 3.5089 15.964 5.7503 23.657 1.8299 2.6676 9.3576 6.0877 13.657 7.418 5.7982 1.426 11.841-0.00464 17.666 0.01858 5.3025-0.66872 9.5584-3.7922 14.943-4.3816 11.822-1.517 12.632-4.0919 6.38-14.46-4.7929-7.5937-6.5798-10.684-11.65-18.261 3.7352-1.8129 3.4039-5.2982 0.62628-8.1624-6.0609-6.0412-3.6838-6.5496-4.901-9.0998-2.1508-2.4401-7.3152-5.4954-12.235-4.7316-3.282 0.49892 2.8702 2.4934-1.4228 1.0695-1.8546 0.119 1.7482 2.8799-1.9474 1.2058-4.3409-2.1887-9.909-2.6197-14.866-2.7268 3.0003 0.73236 11.303 0.97559 6.8374-1.6456-1.9836-0.70638-4.24-0.87308-6.2808-0.87082zm-7.0124 3.9024c-5.9994-1.6757-4.0051 4.6894 0.64523 2.6245 4.1508 0.31706 2.3922-2.0406-0.64523-2.6245zm-11.165 1.2206-0.21131 0.09018 0.21131-0.09018zm-3.4163 1.9082c0.24594 0.03234-0.21157 0.08028 0 0zm-2.4823 4.9339c0.76305 0.17357-0.05463 0.51515 0 0z" fill-opacity=".56164" fill-rule="evenodd" filter="url(#ai)"/>
 <path d="m41.83 52.901-3.9139 53.817 0.85617 1.7123 5.8709 5.137 10.029 4.7701 11.497 2.0793 0.36693-7.5832 0.73386-11.008 3.1801-5.3816 3.1801-2.3239 4.6478 1.2231 4.0362 2.9354 1.4677 2.2016 1.7124 8.684 1.7123 6.2378 9.1733-7.3386-2.3239-25.196-3.4247-30.578-4.7701 2.6908-7.2163 2.6908-8.9287 0.97848-8.3171-0.24462-10.519-1.7123-9.051-3.7916z" fill="url(#ah)" fill-rule="evenodd"/>
 <path d="m35.837 30.763 0.12231 16.023 3.6693 4.6478 5.6263 3.4247 10.274 3.0578 10.519 1.1008 12.109-1.1008 10.519-4.1586 6.6048-6.4824-0.24462-15.9-1.1008 2.9354-3.6693 3.7916-3.0578 2.3239-0.73386-6.9717-11.375 3.1801-6.9717 0.48924-0.61155 7.4609-6.8494-0.24462-6.1155-0.85617-3.7916-1.3454-0.12231-6.2378-5.2594-1.4677-4.2809-2.0793-2.9354-3.547-0.85617 3.9139-1.4677-1.957z" fill="url(#ag)" fill-rule="evenodd"/>
 <path d="m37.305 23.914 5.7486 1.7123v1.8347l-4.7701 1.1008-0.97848 4.4032-1.1008-2.8131 0.48924-4.4032 0.61155-1.8346z" fill="url(#p)" fill-rule="evenodd"/>
 <path d="m37.549 23.547-0.61155-6.4824 5.9932 2.3239 0.36693 6.3601-5.7486-2.2016z" fill="url(#q)" fill-rule="evenodd"/>
 <path d="m37.06 16.698 2.5685-2.4462 3.4247-2.2016 3.1801-1.7124 2.9354-1.3454 4.0362 4.7701-4.4032 1.4677-3.4247 2.2016-2.3239 2.3239-5.9932-3.0578z" fill="url(#r)" fill-rule="evenodd"/>
 <path d="m53.694 15.108 2.4462-0.48924 2.6908-0.73386 3.6693 3.7916-2.6908 0.48924-1.59 0.73386-2.0793 0.36693h-2.0793l-0.36693-4.1586z" fill="url(#s)" fill-rule="evenodd"/>
 <path d="m58.954 14.007-0.36693-6.8494 3.547 4.7701 0.36693 5.6263-3.547-3.547z" fill="url(#t)" fill-rule="evenodd"/>
 <path d="m59.565 7.2797 4.0362-0.24462 4.1586-0.12231 5.504 0.73386 2.6908 5.2594-6.4824-1.3454h-3.7916l-3.6693 0.36693-3.1801-4.4032 0.73386-0.24462z" fill="url(#u)" fill-rule="evenodd"/>
 <path d="m75.71 13.273 0.12231 4.1586 1.4677 0.24462 4.4032 2.3239-0.12231-2.8131-1.8347-1.1008-2.0793-1.2231-1.7123 0.12231-0.24462-1.7123z" fill="url(#v)" fill-rule="evenodd"/>
 <path d="m81.459 13.395 4.6478-1.8347 4.0362 2.6908 2.2016 2.3239 1.59 3.3024 0.73386 3.9139-7.5832 0.85617 0.36693-2.2016-0.48924-3.1801-2.2016-2.9354-3.3024-2.9354z" fill="url(#w)" fill-rule="evenodd"/>
 <path d="m87.085 24.648-0.36693 5.2594 7.9502 1.1008-0.12231-7.094-7.4609 0.73386z" fill="url(#x)" fill-rule="evenodd"/>
 <path d="m86.963 29.907-1.3454 2.2016 0.97848 1.4677 0.48924 6.8494 1.8346-1.4677 3.9139-2.8131 1.8347-2.9354 0.2107-2.3239-7.9162-0.97848z" fill="url(#y)" fill-rule="evenodd"/>
 <path d="m83.416 27.094c0.48924 1.1008 3.1801 6.2378 3.1801 6.2378l-4.5255 1.4677-9.2956 2.0793-4.8924 0.12231-1.4677-5.3817h4.0362l5.0147-1.3454 3.547-0.97848 3.7916-1.59 0.61155-0.61155z" fill="url(#z)" fill-rule="evenodd"/>
 <path d="m68.249 36.634-0.85617 7.8279-1.59-5.0147 0.61155-7.7056 1.8346 4.8924z" fill="url(#aa)" fill-rule="evenodd"/>
 <path d="m65.681 39.937-3.6693-0.24462-4.1586-0.85617-0.61155-0.24462-6.2378 3.547 0.85617 0.85617 3.3024 0.61155 6.8494 0.85617 5.504 0.12231-1.8347-4.6478z" fill="url(#ab)" fill-rule="evenodd"/>
 <path d="m56.63 32.353 0.48924 6.4824-6.1155 3.547-0.12231-4.0362v-2.4462l5.7486-3.547z" fill="url(#ac)" fill-rule="evenodd"/>
 <path d="m56.385 32.72-4.7701-1.4677-3.9139-1.7124-3.6693-2.8131-5.8709 1.7123 0.97848 1.957 2.4462 2.0793 4.5255 2.2016 4.8924 1.3454 5.3817-3.3024z" fill="url(#ad)" fill-rule="evenodd"/>
 <path d="m47.089 28.439 3.3024-2.9354 5.9932-2.8131 5.6263-1.7124 4.5255-0.61155 5.504 0.48924 4.4032 0.73386 6.2378 3.0578 4.2809 4.5255-0.85617 2.5685 1.1008-3.7916v-3.7916l0.48924-2.4462-1.957-4.4032-4.2809-3.9139 0.12231 3.4247 0.24462 2.9354-4.0362-2.0793-1.957-0.24462 0.12231-4.5255-5.9932-1.1008-3.4247-0.24462-4.5255 0.24462 0.61155 6.2378-3.6693 0.85617-4.1586 0.61155-0.85617-0.12231-0.48924-5.6263-4.5255 1.3454-4.1586 2.8131-2.3239 2.4462 0.85617 6.1155 1.2231 0.61155 2.5685 1.3454z" fill="url(#ae)" fill-rule="evenodd"/>
 <path d="m47.089 28.684 2.3239-2.3239 6.8494-3.8065 8.6753-2.0644 6.3688 0.12231 8.1948 2.4462 3.4247 1.8347 4.1586 4.0362-0.73386 3.0578-2.6908-4.8924-4.0362 2.0793-5.137 1.59-4.0362 0.85617h-4.1586l-0.48924 8.3171-3.7916-0.12231-4.7701-1.2231-0.73386-5.8709-3.4247-1.1008-4.7701-1.8347-1.2231-1.1008z" fill="url(#af)" fill-rule="evenodd"/>
 <path d="m37.549 23.547-0.61155-6.4824 5.9932 2.3239 0.36693 6.3601-5.7486-2.2016z" fill-opacity=".15686" fill-rule="evenodd"/>
 <path d="m58.954 14.007-0.36693-6.8494 3.547 4.7701 0.36693 5.6263-3.547-3.547z" fill-opacity=".15686" fill-rule="evenodd"/>
 <path d="m87.085 24.648-0.36693 5.2594 7.9502 1.1008-0.12231-7.094-7.4609 0.73386z" fill-opacity=".15686" fill-rule="evenodd"/>
 <path d="m68.249 36.634-0.85617 7.8279-1.59-5.0147 0.61155-7.7056 1.8346 4.8924z" fill-opacity=".15686" fill-rule="evenodd"/>
 <path d="m47.089 28.439 3.3024-2.9354 5.9932-2.8131 5.6263-1.7124 4.5255-0.61155 5.504 0.48924 4.4032 0.73386 6.1494 3.2345 4.3692 4.3487-0.85617 2.5685 1.1008-3.7916v-3.7916l0.48924-2.4462-1.957-4.4032-4.2809-3.9139 0.12231 3.4247 0.24462 2.9354-4.0362-2.0793-1.957-0.24462 0.12231-4.5255-5.9932-1.1008-3.4247-0.24462-4.5255 0.24462 0.61155 6.2378-3.6693 0.85617-4.1586 0.61155-0.85617-0.12231-0.48924-5.6263-4.5255 1.3454-4.1586 2.8131-2.3239 2.4462 0.85617 6.1155 1.2231 0.61155 2.5685 1.3454z" fill-opacity=".15686" fill-rule="evenodd"/>
 <path d="m65.989 118.75 0.77838-9.8595 0.69189-7.0054 1.6432-3.546 4.0649-4.2378 4.4108 1.1243c1.9499 0.9408 3.3925 1.313 5.2757 3.9784l4.0649 15.049-6.1405 1.6432-6.4 1.4703-8.3892 1.3838z" fill="url(#o)" fill-rule="evenodd"/>
 <path d="m62.53 119.7 0.25946-8.6486 1.0378-10.119 1.1243-1.7297 2.854-3.6324 4.9297-4.3243 2.9405 0.86486 4.7568 2.1622 5.1027 3.4595 1.2108 4.7568 3.1135 11.157-2.5946 1.4703-4.2378-15.568c-1.2325-1.6768-2.1826-2.8212-5.0162-4.1514l-4.2378-1.2108c-1.5099 1.2766-4.0095 3.0792-4.6703 3.7189l-1.9027 4.8432-1.0378 12.714-0.17297 5.1027-3.4595-0.86486z" fill="#fff" fill-opacity=".12549" fill-rule="evenodd"/>
 <path d="m62.443 119.44-2.9405-0.25946-4.5838-0.95135s-0.00848-3.7274 0.34595-3.6324c1.654 0.44316 7.4378 1.6432 7.4378 1.6432l-0.25946 3.2z" fill="url(#k)" fill-rule="evenodd"/>
 <path d="m58.724 115.11 0.17297-2.6811 3.7189 1.2108-0.17297 2.4216-3.7189-0.95135z" fill="url(#l)" fill-rule="evenodd"/>
 <path d="m88.822 110.53 1.9892-1.1243 2.9405-2.2486 0.77838 2.5081-5.0162 3.546-0.69189-2.6811z" fill="url(#m)" fill-rule="evenodd"/>
 <path d="m92.022 108.71-1.1243-2.4216-2.7676 1.6432 0.86487 2.5081 3.027-1.7297z" fill="url(#n)" fill-rule="evenodd"/>
 <path d="m86.919 79.395-4.4973 2.5081-2.854 1.0378 0.95135 3.373 1.5568-0.25946 3.373-1.9027 2.9405-1.9892-1.4703-2.7676z" fill="url(#e)" fill-rule="evenodd"/>
 <path d="m86.832 79.049 3.2-2.4216 2.0757-1.2108 0.86486 4.2378-1.8162 1.9027-2.3351 0.6054-1.9892-3.1135z" fill="url(#f)" fill-rule="evenodd"/>
 <path d="m88.562 82.076-3.8919 2.5946 0.60541 2.854 2.0757-0.43243 3.7189-1.7297 0.69189-0.86486-0.69189-3.027-2.5081 0.60541z" fill="url(#g)" fill-rule="evenodd"/>
 <path d="m77.838 92.8-0.25946-4.1514-2.854 0.08649 0.60541 3.2865 2.5081 0.77838z" fill="url(#h)" fill-rule="evenodd"/>
 <path d="m71.092 92.454-2.0757-5.6216 5.1027-1.0378 1.2108 6.4-2.4216-1.0378-1.4703 1.3838-0.77838-0.60541" fill="url(#i)" fill-rule="evenodd"/>
 <path d="m70.054 89.946-2.5946 1.2108 1.9892 2.5946 1.9027-1.2973-1.2973-2.5081z" fill="url(#j)" fill-rule="evenodd"/>
 <path d="m58.811 82.768-5.6216-1.5568-2.1622-0.77838-0.86486 3.7189 3.2865 0.95135s2.3351 0.69189 2.6811 0.69189 2.5081 0.25946 2.5081 0.25946l0.17297-3.2865z" fill="url(#b)" fill-rule="evenodd"/>
 <path d="m51.546 80.259c-0.34595 0-3.373-0.77838-3.373-0.77838l-1.9027-1.0378-1.9892-0.77838-0.17297 4.1514 2.0757 1.7297 4.0649 0.77838 1.2973-4.0649z" fill="url(#c)" fill-rule="evenodd"/>
 <path d="m47.135 83.719-0.25946 2.854 3.1135 1.2973 4.2378 0.86486-0.08649-3.373-3.1135-1.0378-3.8919-0.60541z" fill="url(#d)" fill-rule="evenodd"/>
 <path d="m90.02 76.385-2.0793 2.3239-0.85617 0.12231-1.8347 1.1008-3.1801 1.59-0.97848-8.5617 0.73386-2.8131 2.0793-3.7916 4.0362 0.85617 0.85617 1.1008 1.2231 8.0725z" fill="#d59163" fill-rule="evenodd"/>
 <path d="m56.63 81.889-4.8924-1.4677-1.7123-0.48924-3.0578-1.59 0.36693-7.9502 1.957-1.957 1.1008-0.85617h1.7123l2.9354 1.8347 1.3454 3.4247 0.24462 9.051z" fill="#d59163" fill-rule="evenodd"/>
 <path d="m56.63 81.889-4.8924-1.4677-1.7123-0.48924-3.0578-1.59 0.36693-7.9502 1.957-1.957 1.1008-0.85617h1.7123l2.9354 1.8347 1.3454 3.4247 0.24462 9.051z" fill-opacity=".15686" fill-rule="evenodd"/>
 <path d="m65.625,6.71875c-2.4989.0169-5.00644.14794-7.5.25l.375,6.84375c-1.24474.74324-2.89968.64326-4.28125,1.0625l-.0625-1.40625-5.03125-4.65625c-3.81937,1.9802-7.86925,2.72699-12.84375,8.25l.46875,6.53125c-2.1119,7.53411-1.4513,15.94563-.96875,23.6875 1.13165,2.40217 3.24168,4.04992 5.34375,5.59375l-3.65625,54.0625c6.85977,9.57478 17.65635,12.14622 28.75,13.65625 .70425-.12855.20306-.69819.46875-1.25 .96705-.1728 1.97036-.37518 2.96875-.5625l.40625,1.03125 .375-.09375 .21875-1.125c1.23175-.23557 2.47229-.49158 3.71875-.75l.46875,1.25 .375-.03125 .15625-1.40625c1.0542-.22395 2.08353-.47768 3.125-.71875l.375,1.28125 .4375-.03125 .1875-1.46875c1.03194-.24623 2.06501-.48599 3.0625-.75 .01589.12555.5625,1.125.5625,1.125l.25-.0625c0,0 .17592-1.15798.15625-1.3125 .97551-.26786 1.92359-.55767 2.84375-.84375 .01714.12691.15266.64214.3125.875 3.65255-1.26293 7.33772-4.91369 10-7.90625l-5.46875-55.46875c1.78919-1.43935 3.21992-3.1337 4.125-5.09375 .1893-8.61999-.27083-15.29167-.40625-22.9375-.06984-2.70934-.98762-5.5217-2.625-8-2.09083-2.83056-4.00807-3.53043-5.9375-5l-5.34375,1.875-.0625,3.28125c-1.50054-.78614-2.44974-2.55868-4.84375-1.78125l-.03125-1.875-3-5.65625c-2.4796-.38842-4.96985-.48565-7.46875-.46875zm.78125.5c2.18503-.01544 4.35647.17796 6.4375.65625l2.25,4.375c-3.87677-.76193-8.35917-1.89078-13.375-.59375l-1.78125-3.78125c2.0851-.41654 4.28372-.64081 6.46875-.65625zm-7.46875.59375 2.28125,3.78125 .71875,4.96875-2.71875-2.875-.28125-5.875zm-10,1.65625 3.53125,3.90625c-3.74786,1.04048-6.85024,2.13891-9.4375,5.84375l-5.15625-2.53125c2.70992-3.38505 6.70339-5.48678 11.0625-7.21875zm17.03125,2.5c.40423-.01612.79598-.00743 1.1875,0 2.8052.05321 5.33574.68795 8,1.1875l.40625,4.21875c2.30023.77578 4.623,1.49145 6.4375,3.5625l-.46875-6.875c2.11771,1.47866 3.91858,3.46459 4.78125,5.0625 .92891,1.72059 1.11847,3.48297.5,5.4375l-.15625,3.90625c-5.771-6.82264-14.20233-8.97337-22.75-7.96875-6.21656,1.03005-12.83164,3.00658-17.3125,7.6875l-2.875-1.78125-.1875-.65625-.1875-5.28125c2.30208-3.78687 5.82574-5.14971 9.875-6.3125l.59375,5.3125c1.87996.06085 3.94844.12135 8.90625-1.46875l-.59375-5.46875c1.35221-.33813 2.63105-.51414 3.84375-.5625zm20.25,0c1.9441,1.41985 4.15096,2.7815 5.59375,4.5 1.41649,1.68718 2.46869,4.40039 2.5,7.28125l-6.46875.40625c.43282-1.92597.081-3.59962-.84375-5.3125s-2.91678-3.71241-4.96875-5.1875l4.1875-1.6875zm-27.4375,2.03125 2.65625,3.4375c-1.92627.76823-4.53995,2.03338-6.96875,1.78125l-.28125-3.8125c1.66524.05924 3.17502-.54309 4.59375-1.40625zm17.90625,1.3125c2.12629-.12292 3.52927,1.45596 4.28125,2.25l-.03125,1.40625c-1.34301-.90438-3.13052-1.45965-4.75-1.875l-.03125-1.71875c.18352-.03437.35721-.05244.53125-.0625zm-39.25,2.3125 4.90625,2.375 .15625,5.03125c-1.4862-.30405-2.90232-.43288-4.78125-1.71875l-.28125-5.6875zm28.6875,3.125c5.80856-.13019 17.36882,2.02906 20.5,8.875 .04781.78291-.50399,1.05788-.96875,1.5625l-2.15625-4.375c-2.84918,1.64486-5.88059,2.71855-9,3.46875l-2-.90625 2.5-1.90625 2.03125,1.1875 .1875-.5625c0,0-.77276-.33987-1.875-.875l1.03125-.8125-.1875-.34375-1.25.9375c-.76789-.38012-1.63192-.81532-2.5625-1.34375l.9375-.53125-.3125-.3125c-.36448.18266-.73306.36798-1.09375.5625-.90881-.5825-1.75766-1.21681-2.625-1.78125l1.40625-.78125-.90625.0625-.875.46875c-.76559-.46411-1.57357-.84963-2.5-1.03125l-.3125.1875c.75406.36132 1.48326.75778 2.21875,1.15625l-3.75,1.96875c-1.18649-.56706-2.18691-1.05177-2.625-1.28125l-.09375.25c.36115.18917 1.51494.7508 2.375,1.1875l-4.75,2.5c-1.71306-.6975-3.17786-1.28936-3.65625-1.46875l-.1875.375c.28831.10812 2.10323.91112 3.25,1.40625l-3.5,1.84375-2.1875-1.0625-.25.28125 2.03125,1-.96875.5 .71875.375 .96875-.53125 4.34375,2.125c-.42326.28057-.86363.57921-1.28125.84375l-.0625.375c.56376-.32834 1.13545-.6693 1.71875-1.03125l3.625,1.78125-.84375.625 .46875.40625 .96875-.75 .96875.46875 .21875-.34375-.375,3.78125c-2.90585-.01768-4.85269.19648-8.03125-1.03125l-.625-6.15625c-4.03044-.73485-7.74605-2.19554-9.6875-3.4375 4.37164-4.4111 10.9715-6.70598 16.9375-7.71875 .5538-.10551 1.26395-.1689 2.09375-.1875zm2.625,3.125c.97519.53655 1.94064,1.10395 2.90625,1.65625-1.08972.59701-2.1629,1.23423-3.21875,1.90625-1.1541-.54307-2.31315-1.07172-3.34375-1.5625l3.65625-2zm-31.25.4375 5,1.78125 .28125.65625-4.71875,1.65625-.8125,2.9375c-.26152-1.76194-.34296-5.2632.25-7.03125zm56.9375.03125 .03125,6.15625-6.9375-1.0625 .21875-4.625 6.6875-.46875zm-22.28125,1.46875c1.26566.72848 1.58111.91603 2.46875,1.4375l-2.5625,1.90625c-1.02844-.48009-1.45077-.69485-3.03125-1.4375 1.05887-.67655 2.10334-1.31181 3.125-1.90625zm-7.40625.25c1.29477.65605 1.76711.89386 3.28125,1.65625-1.28729.83062-2.54241,1.67293-3.78125,2.53125-.47423-.19976-.7559-.28651-1.3125-.53125-.97677-.4295-1.86187-.77728-2.78125-1.15625l4.59375-2.5zm-20.53125,1.21875c1.85581,2.25446 5.11264,4.05263 10.65625,5.21875l-4.09375,2.9375c-3.99561-1.32256-8.66767-1.01293-11.75-6.3125l5.1875-1.84375zm39.09375.25 2.15625,5.4375c-5.74954,1.63251-11.19612,3.93463-17.28125,3.75l-1.28125-4.65625c4.97034-.45925 10.84548-1.60618 16.40625-4.53125zm-14.71875.46875c1.33901.67383 2.1115,1.06947 2.96875,1.5l-2.40625,1.78125c-.61356.0869-1.2272.14476-1.84375.21875-.43927-.16202-1.28507-.50182-2.5625-1.03125 1.27674-.84354 2.57135-1.6495 3.84375-2.46875zm-9.03125.875c1.21973.5292 1.76841.76475 3.15625,1.375l.96875.40625c-1.09859.76283-2.18797,1.47567-3.25,2.1875l-4.34375-2.0625 3.46875-1.90625zm12.4375.84375c.38942.19554 1.43963.71959 1.5625.78125-1.1163.24446-2.24055.44763-3.375.625l1.8125-1.40625zm-33.75.25c2.79555,3.77936 7.76939,4.80876 11.96875,6.34375l.15625,6.3125c3.5934,1.1466 5.5827,2.01493 17.375,2.3125l.5625-7.1875c6.45635.1524 12.07701-2.37736 17.84375-3.96875l.71875,7c3.29129-2.13481 6.27467-3.98276 7.96875-7.5625 .36773,4.48198-.10389,9.08173-.46875,13.71875-5.96042,9.64148-18.38241,11.4586-28.71875,11.59375-10.10297-.52079-22.60441-2.43218-28.875-11.4375-.44771-5.617-1.32844-11.30208-.1875-15.4375l.84375,2.03125 .8125-3.71875zm49.3125.21875 7.0625,1.125c-.56891,3.84587-4.21097,6.38322-7.15625,8.5l-.6875-6.25-.65625-1.46875c.88689-.38485 1.11706-1.07845 1.4375-1.90625zm-23.375.65625c.98403.39889 1.60422.65327 2.09375.8125h-.125l-.1875,1.96875-1.53125,1.15625-3.625-1.75c1.10062-.69064 2.23613-1.43672 3.375-2.1875zm2.4375,1.75 1.09375,4.75-.5,6.1875-1.09375-4.03125 .5-6.90625zm-10.4375.21875 .5,5.53125-5.46875,3.28125v-5.28125l4.96875-3.53125zm9.71875,1.59375-.09375,1-.75-.34375 .84375-.65625zm-8.75,4.5c3.35874,1.27736 5.50196,1.34738 8.4375,1.375l.6875,3.71875c-5.0369.21859-10.43136.08102-15.03125-1.78125l5.90625-3.3125zm33.125,14.15625c2.25079,18.11209 4.27502,36.34716 5.375,54.625-.38286.4677-.79665.90173-1.21875,1.34375l-.53125-2.25c-.59928.54742-1.21322,1.00338-1.8125,1.4375l-.9375-2.21875-2.75,1.53125-2.90625-10c-2.45151-2.29344-4.99657-3.62991-7.625-4.6875l-.0625-4.34375-2.9375-.0625-.5625-3.125-5.5625,1.375 1,3.125-2.59375,1.28125 2.03125,2.6875c-2.08225,1.99089-3.83245,4.27948-5.4375,6.71875-.77121,4.18015-1.10963,8.41076-1.34375,12.65625l-3.65625-.90625-.21875,3c-1.1354-.24862-2.2865-.564-3.4375-.90625l-.40625,3.5c-7.35965-2.351-13.77031-6.85675-16.21875-11.03125 .75269-18.08501 1.8739-35.92434 3.625-53.34375 7.10222,4.09161 15.41575,5.13722 23.46875,5.5 8.55198.05263 17.46001-1.09477 24.71875-5.90625zm-6.625,13c-1.72907,1.7211-2.44467,4.37338-2.8125,6.8125l.96875,8.90625-2.25,1.0625 .78125,3.71875c1.55184-.14491 2.91359-.74149 4.1875-1.5l.78125,2.5625c-.05057.56381 4.7032-1.01403 6.875-3.1875l-.84375-2.96875 1.78125-1.625-1.0625-4.59375-2,1.25-1.125-9.15625c-1.62154-1.05395-3.39065-1.2828-5.28125-1.28125zm-31.5625.84375c-1.72763,1.03334-2.62152-.57352-5.25,3.3125l-.34375,8.1875c-.73496-.30973-1.47433-.63792-2.1875-1l-.4375,4.53125c.92006.721.71899,1.16644 3,1.90625l-.25,2.875c2.20697,1.06387 4.73094,1.81072 7.6875,2.125l-.0625-3.09375c1.46807.32902 2.95786.56681 4.5.5625l.40625-3.875c-.79286-.09889-1.57754-.22953-2.34375-.375l-.125-9.96875c-.74915-2.40173-2.53121-3.89844-4.59375-5.1875zm33.5625.125c1.18458.01398 1.3012.44977 2.375,1l1.4375,8.625c-.80079.81769-1.61606,1.61609-2.90625,1.78125l-.90625-11.40625zm-34.875.90625c.62996,3.88542.32395,7.77083.15625,11.65625-1.37344.15236-2.38489-.60027-3.4375-1.25l.34375-7.875c.88409-1.0339 1.58868-2.42681 2.9375-2.53125zm32.15625.40625 2.71875,10.65625c-.95018,1.34286-2.15101,1.43243-3.25,2.03125l-.5625-8.15625v-.03125c-.01126-1.92173.12057-2.8838 1.09375-4.5zm-29.96875.15625c1.45287.87836 2.01245,1.94779 2.71875,3.71875l.125,9.15625c-1.53317-.01699-2.69217-.78232-3.90625-1.4375 .16149-3.88957.11311-7.86309 1.0625-11.4375zm38.90625,7.21875 .6875,3.90625c-.50314.7393-1.00016,1.43478-1.78125,1.65625-.73058.20715-1.54671.35131-2.375.625l-1-2.5625c.9983-.65891 1.89402-1.43489 2.625-2.4375l1.84375-1.1875zm-47.09375,2.28125c1.54742.7491 3.74354,2.24664 5.53125,2.5 .09539.0362.18544.09005.28125.125l-.46875,3.34375c-1.75761-.55858-4.14598-.82326-5.78125-2l.4375-3.96875zm42.15625,1.65625 .875,2.375c-2.12408,1.41119-4.62574,3.66447-7.15625,4.125l-.75-3.03125c2.12798-1.13804 4.35663-1.58536 6.5-3.15625 .18296-.10112.35324-.20502.53125-.3125zm-35.78125,1.1875c.45071.15185.91586.2797 1.375.40625 1.94098.87917 4.2124,1.30816 6.0625,1.59375l-.34375,2.78125c-2.30023-.10034-5.35644-.89933-7.65625-1.53125l.5625-3.25zm39.75,1.03125 .34375,2c-.64101,1.43485-3.02962,3.05556-5.65625,3.375l-.6875-2.4375c1.13088-.71137 2.20958-1.51548 3.3125-2.28125l.0625-.03125v.03125c.76734-.29081 1.68312-.38919 2.625-.65625zm-43.59375,2.09375c.75308.22707 1.69215.48426 3,.78125 1.15725.29429 2.30723.59991 3.46875.875l.15625,2.75c-1.99109-.31344-5.00767-1.05908-6.875-1.90625l.25-2.5zm26.53125,1.96875 .65625,2.75v.1875h.0625l.71875,3-2.59375-.90625c-.4508.29154-.88965.61916-1.3125.9375l-1.875-4.8125 4.34375-1.15625zm1.125,2.96875 2.3125.0625 .125,3.6875c-.61991-.24103-1.24623-.46508-1.875-.6875l-.5625-3.0625zm-5.03125,1.40625 .6875,2.15625c-.40142.32823-.77826.68064-1.15625,1.03125l-1.71875-2.25 2.1875-.9375zm2.96875,1.25c.03157-.00581.06234.00453.09375,0 6.28837,1.53176 8.5643,4.15352 12.1875,6.40625 1.537,4.9818 3.13928,10.14276 3.875,15.4375-.5438.34596-1.08601.68084-1.65625,1l-3.96875-15.25c-2.52642-3.0999-6.12976-4.41195-9.78125-5.6875-3.37077,1.90015-5.35832,4.46864-6.71875,8.03125l-1.4375,17.96875c-.80103.02723-1.59774.0132-2.40625-.03125-.19734-6.29264-.05977-12.45786 1.03125-18.6875 2.259-3.73159 5.54472-6.96317 8.71875-9.15625 .02235-.00477.0402-.02714.0625-.03125zm.875,3.03125c.88891.37046 1.78559.59163 2.65625.8125l.25,2.65625c-.90871.08241-1.81357.19843-2.71875.3125l-.28125-3.65625h-.09375l.1875-.125zm-1.0625.75 .25,3.125c-1.24059.1482-2.54491.3187-3.0625.375l-.03125-1.03125c.83873-1.01829 1.81655-1.75278 2.84375-2.46875zm4.75.34375c.30888.08679.60863.17483.90625.28125 .87179.31171 1.69647.73774 2.46875,1.4375-1.03143.23611-2.032.45975-3.15625.53125l-.21875-2.25zm3.9375,2.3125c.37557.42798.74251.91556 1.09375,1.53125l.53125,2-1.21875.125c-.02223-.19568-.04144-.46994-.0625-.65625-.10758-.95165-.21881-1.77701-.28125-2.40625-.03129-.31527-.04687-.38901-.0625-.59375zm-.9375.59375c.00426.04389-.0046.04737 0,.09375 .06323.6372.17338,1.48328.28125,2.4375 .02121.18767.04013.45987.0625.65625l-2.71875.3125-.3125-3.15625c1.13876-.1396 2.35891-.30271 2.6875-.34375zm-3.6875.4375 .3125,3.1875-2.84375.34375-.21875-3.1875c.91792-.1049 1.83407-.22323 2.75-.34375zm-7.84375.1875 .125,3.9375-1.3125.15625 .15625-1.5625c.27355-.99818.63589-1.81587 1.03125-2.53125zm4.09375.28125 .21875,3.15625-3.1875.375-.125-3.1875c.54503-.05746 1.86517-.19802 3.09375-.34375zm10.25,3 .875,3.40625-1.78125.375c-.15252-1.28102-.30554-2.47304-.4375-3.625l1.34375-.15625zm-2.34375.28125c.13491,1.17126.28144,2.38381.4375,3.6875l-2.8125.5625-.375-3.9375 2.75-.3125zm-3.75.4375 .375,4-2.90625.5625-.3125-4.21875 2.84375-.34375zm-3.84375.46875 .3125,4.28125-3.375.65625-.15625-4.5625 3.21875-.375zm-4.21875.5 .15625,4.65625-2.0625.40625 .46875-4.90625 1.4375-.15625zm21.375,2.625 .75,2c-.69753.46853-1.39622.89587-2.09375,1.34375l-.65625-2.3125 .03125.03125 1.96875-1.0625zm-6.09375.09375 1.09375,4.09375-2.5.5c-.17316-1.4067-.3473-2.81375-.53125-4.21875l1.9375-.375zm9.1875.5 .53125,1.96875c-1.24962,1.26086-2.65963,2.42727-4.1875,3.46875l-.65625-2.3125c1.47423-.86725 2.94883-1.70493 4.3125-3.125zm-12.09375.0625c.15511,1.40869.35002,2.81315.53125,4.21875l-2.96875.59375-.40625-4.25 2.84375-.5625zm-3.84375.75 .40625,4.25-3.03125.59375-.3125-4.28125 2.9375-.5625zm-3.9375.75 .3125,4.3125-3.5625.71875-.15625-4.375 3.40625-.65625zm-4.40625.875 .1875,4.34375-2.8125.5625 .5625-4.34375 2.0625-.5625zm16.4375,2.125 .5,1.875c-.91594.28718-1.8668.5735-2.84375.84375-.05905-.46542-.18133-1.3928-.28125-2.1875l2.625-.53125zm-3.59375.71875c.1025.8187.22379,1.8259.28125,2.28125-.98249.26188-2.01155.50458-3.03125.75l-.25-2.4375 3-.59375zm-22.96875.1875 3.1875.78125c-.03776.70903-.09104,1.41599-.125,2.125-1.07072-.05578-2.15139-.21438-3.25-.4375l.1875-2.46875zm18.96875.625 .25,2.4375c-1.02805.24007-2.05078.46378-3.09375.6875l-.1875-2.53125 3.03125-.59375zm-4.03125.8125 .1875,2.53125c-1.23831.25911-2.46165.51372-3.6875.75l-.09375-2.5625 3.59375-.71875zm-18.65625.5625c2.25752.76302 4.52373,1.18091 6.78125,1.5-.04656.98719-.1085,1.983-.15625,2.96875-2.30175-.2052-4.61651-.6699-6.84375-1.34375l.21875-3.125zm14.0625.34375 .09375,2.5625c-1.07246.2026-2.1512.40874-3.1875.59375l-.09375.03125 .15625-2.53125 3.03125-.65625z" fill-rule="evenodd"/>
</svg>
