<?xml version="1.0" encoding="UTF-8"?>
<svg viewBox="0 0 128 128" xmlns="http://www.w3.org/2000/svg" xmlns:xlink="http://www.w3.org/1999/xlink">
 <defs>
  <linearGradient id="aw" x1=".2225" x2=".8443" y1=".7615" y2=".35678" xlink:href="#a"/>
  <linearGradient id="av" x1=".1971" x2=".89373" y1=".84285" y2=".20006" xlink:href="#a"/>
  <linearGradient id="bg" x1=".13978" x2=".9998" y1=".71524" y2=".49984" xlink:href="#a"/>
  <linearGradient id="au" x1=".2667" x2=".73305" y1=".8962" y2=".24992" xlink:href="#a"/>
  <linearGradient id="at" x1=".44219" x2=".040462" y1=".59824" y2="1.0614">
   <stop stop-color="#6a3c1d" offset="0"/>
   <stop stop-color="#8f5127" offset="1"/>
  </linearGradient>
  <linearGradient id="aq" x1=".091001" x2=".81072" y1=".78419" y2=".18183" xlink:href="#a"/>
  <linearGradient id="as" x1=".089366" x2=".89268" y1=".58107" y2=".29728" xlink:href="#a"/>
  <linearGradient id="ar" x1=".23083" x2=".73089" y1=".24627" y2=".73926" xlink:href="#a"/>
  <linearGradient id="ax" x1=".27747" x2=".84442" y1=".78117" y2=".49994" xlink:href="#a"/>
  <linearGradient id="bf" x1=".12774" x2=".82545" y1=".64291" y2=".50007" xlink:href="#a"/>
  <linearGradient id="be" x1="9.2e-5" x2="1.0001" y1=".50009" y2=".32766" xlink:href="#a"/>
  <linearGradient id="ay" x1=".49978" x2=".79988" y1="1.0004" y2=".22748" xlink:href="#a"/>
  <linearGradient id="bd" x1=".15695" x2=".84302" y1="1.0001" y2=".075019" xlink:href="#a"/>
  <linearGradient id="bc" x1=".36626" x2=".81696" y1=".90998" y2=".12794" xlink:href="#a"/>
  <linearGradient id="az" x1=".50017" x2=".78104" y1=".89766" y2=".14126" xlink:href="#a"/>
  <linearGradient id="bb" x1=".15836" x2=".84148" y1=".91444" y2=".14309" xlink:href="#a"/>
  <linearGradient id="ba" x1=".30612" x2=".80615" y1=".83318" y2=".16668" xlink:href="#a"/>
  <linearGradient id="ap" x1=".097119" x2=".49997" y1="1.0001" y2=".18208" xlink:href="#a"/>
  <linearGradient id="bl" x1=".32885" x2=".68451" y1=".74994" y2=".49998" xlink:href="#a"/>
  <linearGradient id="bk" x1=".13785" x2=".9703" y1=".16674" y2=".64548" xlink:href="#a"/>
  <linearGradient id="ao" x1=".000185" x2=".65641" y1=".21771" y2=".68821" xlink:href="#a"/>
  <linearGradient id="bj" x1=".35891" x2="1.0286" y1=".64982" y2="4.7e-5" xlink:href="#a"/>
  <linearGradient id="bi" x1=".58958" x2="1.1105" y1=".57016" y2=".8471" xlink:href="#a"/>
  <linearGradient id="bh" x1=".12968" x2=".85567" y1=".088878" y2=".77468" xlink:href="#a"/>
  <linearGradient id="a">
   <stop stop-color="#b1b1b1" offset="0"/>
   <stop stop-color="#e4e4e4" offset="1"/>
  </linearGradient>
  <linearGradient id="bm" x1=".19591" x2=".88257" y1=".42692" y2=".50008" xlink:href="#a"/>
  <linearGradient id="an" x1=".1857" x2=".79292" y1=".88769" y2=".17328" xlink:href="#a"/>
  <linearGradient id="am" x1="-.000137" y1=".49996" y2=".49996" xlink:href="#a"/>
  <linearGradient id="bn" x1="-2.9e-5" x2=".99998" y1=".49997" y2=".49997" xlink:href="#a"/>
  <linearGradient id="al" x1=".38897" x2=".82411" y1=".70561" y2=".35989" xlink:href="#a"/>
  <linearGradient id="ak" x1=".18455" x2=".87694" y1=".1724" y2=".82759" xlink:href="#a"/>
  <linearGradient id="bo" x1="-.000699" x2=".99967" y1=".29808" y2=".72121" xlink:href="#a"/>
  <linearGradient id="aj" x1=".066037" x2=".69993" y1=".50004" y2=".12798" xlink:href="#a"/>
  <linearGradient id="ai" x1=".11516" x2=".84841" y1="1.0001" y2=".15436" xlink:href="#a"/>
 </defs>
 <g fill-rule="evenodd">
  <path d="m41.83 52.901l-3.9139 53.817 0.8562 1.7123 5.8709 5.137 10.029 4.7701 11.497 2.0793 0.3669-7.5832 0.7339-11.008 3.1801-5.3817 3.1801-2.3239 4.6478 1.2231 4.0362 2.9354 1.4677 2.2016 1.7123 8.684 1.7123 6.2378 9.1733-7.3386-2.3239-25.196-3.4247-30.578-4.7701 2.6908-7.2163 2.6908-8.9287 0.9785-8.3171-0.2446-10.519-1.7123-9.051-3.7916z" fill="url(#bh)"/>
  <path d="m35.837 30.763l0.1223 16.023 3.6693 4.6478 5.6263 3.4247 10.274 3.0578 10.519 1.1008 12.109-1.1008 10.519-4.1585 6.6048-6.4824-0.2446-15.9-1.1008 2.9355-3.6693 3.7916-3.0578 2.3239-0.7339-6.9717-11.375 3.1801-6.9717 0.4892-0.6115 7.4609-6.8494-0.2446-6.1155-0.8562-3.7916-1.3454-0.1223-6.2378-5.2593-1.4677-4.2809-2.0793-2.9354-3.547-0.8562 3.9139-1.4677-1.957z" fill="url(#bi)"/>
  <path d="m37.305 23.914l5.7486 1.7124v1.8346l-4.7701 1.1008-0.9785 4.4032-1.1008-2.8131 0.4892-4.4032 0.6115-1.8347z" fill="url(#as)"/>
  <path d="m37.549 23.547l-0.6115-6.4824 5.9932 2.3239 0.3669 6.3601-5.7486-2.2016z" fill="url(#ar)"/>
  <path d="m37.06 16.698l2.5685-2.4462 3.4247-2.2016 3.1801-1.7124 2.9355-1.3454 4.0362 4.7701-4.4032 1.4677-3.4247 2.2016-2.3239 2.3239-5.9932-3.0578z" fill="url(#aq)"/>
  <path d="m53.694 15.108l2.4462-0.4893 2.6908-0.7339 3.6693 3.7916-2.6908 0.4892-1.59 0.7339-2.0793 0.3669h-2.0793l-0.3669-4.1585z" fill="url(#ap)"/>
  <path d="m58.954 14.007l-0.3669-6.8494 3.547 4.7701 0.3669 5.6263-3.547-3.547z" fill="url(#ao)"/>
  <path d="m59.565 7.2797l4.0362-0.2446 4.1585-0.1223 5.504 0.7339 2.6908 5.2594-6.4824-1.3454h-3.7916l-3.6693 0.3669-3.1801-4.4032 0.7339-0.2446z" fill="url(#an)"/>
  <path d="m75.71 13.273l0.1223 4.1586 1.4677 0.2446 4.4032 2.3239-0.1223-2.8131-1.8347-1.1008-2.0793-1.2231-1.7124 0.1223-0.2446-1.7123z" fill="url(#am)"/>
  <path d="m81.459 13.395l4.6478-1.8346 4.0362 2.6908 2.2016 2.3239 1.59 3.3024 0.7339 3.9139-7.5832 0.8562 0.3669-2.2016-0.4892-3.1801-2.2016-2.9354-3.3024-2.9355z" fill="url(#al)"/>
  <path d="m87.085 24.648l-0.3669 5.2594 7.9502 1.1008-0.1223-7.094-7.4609 0.7339z" fill="url(#ak)"/>
  <path d="m86.963 29.907l-1.3454 2.2016 0.9785 1.4677 0.4892 6.8494 1.8347-1.4677 3.9139-2.8131 1.8347-2.9355 0.2107-2.3239-7.9163-0.9785z" fill="url(#aj)"/>
  <path d="m83.416 27.094c0.48925 1.1008 3.1801 6.2378 3.1801 6.2378l-4.5255 1.4677-9.2956 2.0793-4.8924 0.1223-1.4677-5.3817h4.0362l5.0147-1.3454 3.547-0.9785 3.7916-1.59 0.6115-0.6115z" fill="url(#ai)"/>
  <path d="m68.249 36.634l-0.8562 7.8279-1.59-5.0147 0.6115-7.7056 1.8347 4.8924z" fill="url(#bo)"/>
  <path d="m65.681 39.936l-3.6693-0.2446-4.1585-0.8562-0.6115-0.2446-6.2378 3.547 0.8562 0.8562 3.3024 0.6115 6.8494 0.8562 5.504 0.1223-1.8347-4.6478z" fill="url(#bn)"/>
  <path d="m56.63 32.353l0.4892 6.4825-6.1155 3.547-0.1223-4.0363v-2.4462l5.7486-3.547z" fill="url(#bm)"/>
  <path d="m56.385 32.72l-4.7701-1.4677-3.9139-1.7123-3.6693-2.8131-5.8709 1.7123 0.9785 1.957 2.4462 2.0793 4.5255 2.2016 4.8924 1.3454 5.3817-3.3024z" fill="url(#bl)"/>
  <path d="m47.09 28.439l3.3024-2.9354 5.9932-2.8131 5.6263-1.7124 4.5255-0.6115 5.504 0.4892 4.4032 0.7339 6.2378 3.0578 4.2809 4.5255-0.8562 2.5685 1.1008-3.7916v-3.7916l0.4892-2.4462-1.957-4.4032-4.2809-3.9139 0.1223 3.4247 0.2446 2.9354-4.0362-2.0793-1.957-0.2446 0.1223-4.5255-5.9932-1.1008-3.4247-0.2446-4.5255 0.2446 0.6116 6.2378-3.6693 0.8562-4.1585 0.6115-0.8562-0.1223-0.4892-5.6263-4.5255 1.3454-4.1585 2.8131-2.3239 2.4462 0.8562 6.1155 1.2231 0.6115 2.5685 1.3454z" fill="url(#bk)"/>
  <path d="m47.09 28.684l2.3239-2.3239 6.8494-3.8065 8.6753-2.0644 6.3688 0.1223 8.1948 2.4462 3.4247 1.8346 4.1585 4.0362-0.7339 3.0578-2.6908-4.8924-4.0362 2.0793-5.137 1.59-4.0362 0.8562h-4.1586l-0.4892 8.3171-3.7916-0.1223-4.7701-1.2231-0.7339-5.8709-3.4247-1.1008-4.7701-1.8346-1.2231-1.1008z" fill="url(#bj)"/>
  <g fill-opacity=".157">
   <path d="m37.549 23.547l-0.6115-6.4824 5.9932 2.3239 0.3669 6.3601-5.7486-2.2016z"/>
   <path d="m58.954 14.007l-0.3669-6.8494 3.547 4.7701 0.3669 5.6263-3.547-3.547z"/>
   <path d="m87.085 24.648l-0.3669 5.2594 7.9502 1.1008-0.1223-7.094-7.4609 0.7339z"/>
   <path d="m68.249 36.634l-0.8562 7.8279-1.59-5.0147 0.6115-7.7056 1.8347 4.8924z"/>
   <path d="m47.09 28.439l3.3024-2.9354 5.9932-2.8131 5.6263-1.7124 4.5255-0.6115 5.504 0.4892 4.4032 0.7339 6.1494 3.2345 4.3693 4.3487-0.8562 2.5685 1.1008-3.7916v-3.7916l0.4892-2.4462-1.957-4.4032-4.2809-3.9139 0.1223 3.4247 0.2446 2.9354-4.0362-2.0793-1.957-0.2446 0.1223-4.5255-5.9932-1.1008-3.4247-0.2446-4.5255 0.2446 0.6116 6.2378-3.6693 0.8562-4.1585 0.6115-0.8562-0.1223-0.4892-5.6263-4.5255 1.3454-4.1585 2.8131-2.3239 2.4462 0.8562 6.1155 1.2231 0.6115 2.5685 1.3454z"/>
  </g>
  <path d="m65.989 118.75l0.7784-9.8595 0.6919-7.0054 1.6432-3.5459 4.0649-4.2378 4.4108 1.1243c1.9499 0.9408 3.3925 1.313 5.2757 3.9784l4.0649 15.049-6.1405 1.6432-6.4 1.4703-8.3892 1.3838z" fill="url(#at)"/>
  <path d="m62.53 119.7l0.2595-8.6487 1.0378-10.119 1.1243-1.7297 2.8541-3.6324 4.9297-4.3243 2.9405 0.8649 4.7568 2.1622 5.1027 3.4595 1.2108 4.7568 3.1135 11.157-2.5946 1.4703-4.2378-15.568c-1.2325-1.6768-2.1826-2.8212-5.0162-4.1513l-4.2378-1.2108c-1.5099 1.2766-4.0095 3.0792-4.6703 3.7189l-1.9027 4.8432-1.0378 12.714-0.173 5.1027-3.4595-0.8649z" fill="#fff" fill-opacity=".125"/>
  <path d="m62.443 119.44l-2.9405-0.2595-4.5838-0.9514s-0.00848-3.7274 0.34595-3.6324c1.654 0.44316 7.4378 1.6432 7.4378 1.6432l-0.2595 3.2z" fill="url(#ax)"/>
  <path d="m58.724 115.11l0.173-2.6811 3.7189 1.2108-0.173 2.4216-3.7189-0.9513z" fill="url(#aw)"/>
  <path d="m88.822 110.53l1.9892-1.1243 2.9405-2.2486 0.7784 2.5081-5.0162 3.5459-0.6919-2.6811z" fill="url(#av)"/>
  <path d="m92.022 108.71l-1.1243-2.4216-2.7676 1.6432 0.8649 2.5081 3.027-1.7297z" fill="url(#au)"/>
  <path d="m86.919 79.395l-4.4973 2.5081-2.8541 1.0378 0.9513 3.373 1.5568-0.2595 3.373-1.9027 2.9405-1.9892-1.4703-2.7676z" fill="url(#bd)"/>
  <path d="m86.832 79.049l3.2-2.4216 2.0757-1.2108 0.8649 4.2378-1.8162 1.9027-2.3351 0.6054-1.9892-3.1135z" fill="url(#bc)"/>
  <path d="m88.562 82.076l-3.8919 2.5946 0.6054 2.8541 2.0757-0.4324 3.7189-1.7297 0.6919-0.8649-0.6919-3.027-2.5081 0.6054z" fill="url(#bb)"/>
  <path d="m77.838 92.8l-0.2595-4.1514-2.8541 0.0865 0.6054 3.2865 2.5081 0.7784z" fill="url(#ba)"/>
  <path d="m71.092 92.454l-2.0757-5.6216 5.1027-1.0378 1.2108 6.4-2.4216-1.0378-1.4703 1.3838-0.7784-0.6054" fill="url(#az)"/>
  <path d="m70.054 89.946l-2.5946 1.2108 1.9892 2.5946 1.9027-1.2973-1.2973-2.5081z" fill="url(#ay)"/>
  <path d="m58.811 82.768l-5.6216-1.5568-2.1622-0.7784-0.8649 3.7189 3.2865 0.9513s2.3351 0.6919 2.6811 0.6919c0.34595 0 2.5081 0.25945 2.5081 0.25945l0.173-3.2865z" fill="url(#bg)"/>
  <path d="m51.546 80.26c-0.34594 0-3.373-0.77838-3.373-0.77838l-1.9027-1.0378-1.9892-0.7784-0.173 4.1514 2.0757 1.7297 4.0649 0.7784 1.2973-4.0649z" fill="url(#bf)"/>
  <path d="m47.135 83.719l-0.2595 2.8541 3.1135 1.2973 4.2378 0.8649-0.0865-3.373-3.1135-1.0378-3.8919-0.6054z" fill="url(#be)"/>
  <g fill="#d59163">
   <path d="m90.02 76.385l-2.0793 2.3239-0.8562 0.1223-1.8347 1.1008-3.1801 1.59-0.9785-8.5617 0.7339-2.8131 2.0793-3.7916 4.0362 0.8562 0.8562 1.1008 1.2231 8.0725z"/>
   <path d="m56.63 81.889l-4.8924-1.4677-1.7123-0.4892-3.0578-1.59 0.3669-7.9502 1.957-1.957 1.1008-0.8562h1.7123l2.9355 1.8347 1.3454 3.4247 0.2446 9.051z"/>
  </g>
  <path d="m56.63 81.889l-4.8924-1.4677-1.7123-0.4892-3.0578-1.59 0.3669-7.9502 1.957-1.957 1.1008-0.8562h1.7123l2.9355 1.8347 1.3454 3.4247 0.2446 9.051z" fill-opacity=".157"/>
 </g>
 <path d="m65.625 6.7188c-2.4989 0.0169-5.0064 0.14794-7.5 0.25l0.375 6.8438c-1.2447 0.74324-2.8997 0.64326-4.2812 1.0625l-0.0625-1.4062-5.0312-4.6562c-3.8194 1.9802-7.8692 2.727-12.844 8.25l0.4688 6.5312c-2.1119 7.5341-1.4513 15.946-0.96875 23.688 1.1316 2.4022 3.2417 4.0499 5.3438 5.5938l-3.6562 54.062c6.8598 9.5748 17.656 12.146 28.75 13.656 0.70425-0.12855 0.20306-0.69819 0.46875-1.25 0.96705-0.1728 1.9704-0.37518 2.9688-0.5625l0.4062 1.0312 0.375-0.0938 0.2188-1.125c1.2318-0.23557 2.4723-0.49158 3.7188-0.75l0.4688 1.25 0.375-0.0312 0.1562-1.4062c1.0542-0.22395 2.0835-0.47768 3.125-0.71875l0.375 1.2812 0.4375-0.0312 0.1875-1.4688c1.0319-0.24623 2.065-0.48599 3.0625-0.75 0.015892 0.12555 0.5625 1.125 0.5625 1.125l0.25-0.0625s0.17592-1.158 0.15625-1.3125c0.97551-0.26786 1.9236-0.55767 2.8438-0.84375 0.017143 0.12691 0.15266 0.64214 0.3125 0.875 3.6526-1.2629 7.3377-4.9137 10-7.9062l-5.4688-55.469c1.7892-1.4394 3.2199-3.1337 4.125-5.0938 0.1893-8.62-0.27084-15.292-0.40625-22.938-0.069839-2.7093-0.98762-5.5217-2.625-8-2.0908-2.8306-4.0081-3.5304-5.9375-5l-5.3438 1.875-0.0625 3.2812c-1.5005-0.78614-2.4498-2.5587-4.8438-1.7812l-0.0312-1.875-3-5.6562c-2.4796-0.38842-4.9698-0.48565-7.4688-0.46875zm0.7812 0.5c2.185-0.01544 4.3565 0.17796 6.4375 0.65625l2.25 4.375c-3.8768-0.76193-8.3592-1.8908-13.375-0.59375l-1.7812-3.7812c2.0851-0.41654 4.2837-0.64081 6.4688-0.65625zm-7.4688 0.5938l2.2812 3.7812 0.7188 4.9688-2.7188-2.875-0.2812-5.875zm-10 1.6562l3.5312 3.9062c-3.7479 1.0405-6.8502 2.1389-9.4375 5.8438l-5.1562-2.5312c2.7099-3.385 6.7034-5.4868 11.062-7.2188zm17.031 2.5c0.40424-0.01612 0.79598-0.00743 1.1875 0 2.8052 0.05321 5.3358 0.68795 8 1.1875l0.4062 4.2188c2.3002 0.77578 4.623 1.4914 6.4375 3.5625l-0.4688-6.875c2.1177 1.4787 3.9186 3.4646 4.7812 5.0625 0.92891 1.7206 1.1185 3.483 0.5 5.4375l-0.1562 3.9062c-5.771-6.8226-14.202-8.9734-22.75-7.9688-6.2166 1.03-12.832 3.0066-17.312 7.6875l-2.875-1.7812-0.1875-0.6562-0.1875-5.2812c2.3021-3.7869 5.8257-5.1497 9.875-6.3125l0.5938 5.3125c1.88 0.06085 3.9484 0.12135 8.9062-1.4688l-0.5938-5.4688c1.3522-0.33813 2.631-0.51414 3.8438-0.5625zm20.25 0c1.9441 1.4198 4.151 2.7815 5.5938 4.5 1.4165 1.6872 2.4687 4.4004 2.5 7.2812l-6.4688 0.4062c0.43282-1.926 0.080994-3.5996-0.84375-5.3125-0.9221-1.708-2.9168-3.7124-4.9688-5.1875l4.1875-1.6875zm-27.438 2.0312l2.6562 3.4375c-1.9263 0.76823-4.54 2.0334-6.9688 1.7812l-0.2812-3.8125c1.6652 0.05924 3.175-0.54309 4.5938-1.4062zm17.906 1.3125c2.1263-0.12292 3.5293 1.456 4.2812 2.25l-0.0312 1.4062c-1.343-0.90438-3.1305-1.4596-4.75-1.875l-0.0312-1.7188c0.18352-0.03437 0.35721-0.05244 0.53125-0.0625zm-39.25 2.3125l4.9062 2.375 0.1562 5.0312c-1.4862-0.30405-2.9023-0.43288-4.7812-1.7188l-0.2812-5.6875zm28.688 3.125c5.8086-0.13019 17.369 2.0291 20.5 8.875 0.047813 0.78291-0.50398 1.0579-0.96875 1.5625l-2.1562-4.375c-2.8492 1.6449-5.8806 2.7186-9 3.4688-0.012817-0.00597-1.4226-0.63689-2-0.90625l2.5-1.9062c0.64495 0.37968 2.0312 1.1875 2.0312 1.1875l0.1875-0.5625s-0.77277-0.33987-1.875-0.875l1.0312-0.8125-0.1875-0.3438-1.25 0.9375c-0.76789-0.38012-1.6319-0.81532-2.5625-1.3438 0.31116-0.17918 0.63171-0.36334 0.9375-0.53125l-0.3125-0.3125c-0.36448 0.18266-0.73306 0.36798-1.0938 0.5625-0.90881-0.5825-1.7577-1.2168-2.625-1.7812l1.4062-0.7812-0.9062 0.0625-0.875 0.4688c-0.76559-0.46411-1.5736-0.84963-2.5-1.0312l-0.3125 0.1875c0.75406 0.36132 1.4833 0.75778 2.2188 1.1562l-3.75 1.9688c-1.1865-0.56706-2.1869-1.0518-2.625-1.2812l-0.0938 0.25c0.36115 0.18917 1.5149 0.7508 2.375 1.1875l-4.75 2.5c-1.7131-0.6975-3.1779-1.2894-3.6562-1.4688l-0.1875 0.375c0.28831 0.10812 2.1032 0.91112 3.25 1.4062l-3.5 1.8438-2.1875-1.0625-0.25 0.2812 2.0312 1-0.9688 0.5 0.7188 0.375 0.9688-0.5312 4.3438 2.125c-0.42326 0.28057-0.86363 0.57922-1.2812 0.84375l-0.0625 0.375c0.56377-0.32834 1.1354-0.6693 1.7188-1.0312l3.625 1.7812-0.8438 0.625 0.4688 0.4062 0.9688-0.75 0.9688 0.4688 0.2188-0.3438-0.375 3.7812c-2.9058-0.017681-4.8527 0.19648-8.0312-1.0312l-0.625-6.1562c-4.0304-0.73485-7.746-2.1955-9.6875-3.4375 4.3716-4.4111 10.972-6.706 16.938-7.7188 0.55379-0.10551 1.264-0.1689 2.0938-0.1875zm2.625 3.125c0.97519 0.53655 1.9406 1.104 2.9062 1.6562-1.0897 0.59701-2.1629 1.2342-3.2188 1.9062-1.1541-0.54307-2.3132-1.0717-3.3438-1.5625l3.6562-2zm-31.25 0.4375l5 1.7812 0.2812 0.6562-4.7188 1.6562-0.8125 2.9375c-0.26152-1.7619-0.34296-5.2632 0.25-7.0312zm56.938 0.0312l0.0312 6.1562-6.9375-1.0625 0.2188-4.625 6.6875-0.4688zm-22.281 1.4688c1.2657 0.72848 1.5811 0.91603 2.4688 1.4375l-2.5625 1.9062c-1.0284-0.48009-1.4508-0.69485-3.0312-1.4375 1.0589-0.67655 2.1033-1.3118 3.125-1.9062zm-7.4062 0.25c1.2948 0.65605 1.7671 0.89386 3.2812 1.6562-1.2873 0.83062-2.5424 1.6729-3.7812 2.5312-0.47423-0.19976-0.75591-0.28651-1.3125-0.53125-0.97677-0.4295-1.8619-0.77728-2.7812-1.1562l4.5938-2.5zm-20.531 1.2188c1.8558 2.2545 5.1126 4.0526 10.656 5.2188l-4.0938 2.9375c-3.9956-1.3226-8.6677-1.0129-11.75-6.3125l5.1875-1.8438zm39.094 0.25l2.1562 5.4375c-5.7495 1.6325-11.196 3.9346-17.281 3.75l-1.2812-4.6562c4.9703-0.45925 10.846-1.6062 16.406-4.5312zm-14.719 0.4688c1.339 0.67383 2.1115 1.0695 2.9688 1.5l-2.4062 1.7812c-0.61356 0.086901-1.2272 0.14476-1.8438 0.21875-0.43927-0.16202-1.2851-0.50182-2.5625-1.0312 1.2767-0.84354 2.5714-1.6495 3.8438-2.4688zm-9.0312 0.875c1.2197 0.5292 1.7684 0.76475 3.1562 1.375 0.37189 0.16353 0.64558 0.27146 0.96875 0.40625-1.0986 0.76283-2.188 1.4757-3.25 2.1875l-4.3438-2.0625 3.4688-1.9062zm12.438 0.8438c0.38943 0.19554 1.4396 0.71959 1.5625 0.78125-1.1163 0.24446-2.2406 0.44763-3.375 0.625l1.8125-1.4062zm-33.75 0.25c2.7956 3.7794 7.7694 4.8088 11.969 6.3438l0.1562 6.3125c3.5934 1.1466 5.5827 2.0149 17.375 2.3125l0.5625-7.1875c6.4564 0.1524 12.077-2.3774 17.844-3.9688l0.7188 7c3.2913-2.1348 6.2747-3.9828 7.9688-7.5625 0.36773 4.482-0.10389 9.0817-0.46875 13.719-5.9604 9.6415-18.382 11.459-28.719 11.594-10.103-0.52079-22.604-2.4322-28.875-11.438-0.44771-5.617-1.3284-11.302-0.1875-15.438l0.8438 2.0312 0.8125-3.7188zm49.312 0.2188l7.0625 1.125c-0.56891 3.8459-4.211 6.3832-7.1562 8.5l-0.6875-6.25-0.6562-1.4688c0.88689-0.38485 1.1171-1.0784 1.4375-1.9062zm-23.375 0.6562c0.98402 0.39889 1.6042 0.65326 2.0938 0.8125-0.041298 0.00456-0.083687-0.00452-0.125 0l-0.1875 1.9688-1.5312 1.1562-3.625-1.75c1.1006-0.69064 2.2361-1.4367 3.375-2.1875zm2.4375 1.75l1.0938 4.75-0.5 6.1875-1.0938-4.0312 0.5-6.9062zm-10.438 0.2188l0.5 5.5312-5.4688 3.2812v-5.2812l4.9688-3.5312zm9.7188 1.5938l-0.0938 1-0.75-0.3438 0.8438-0.6562zm-8.75 4.5c3.3587 1.2774 5.502 1.3474 8.4375 1.375l0.6875 3.7188c-5.0369 0.21859-10.431 0.08102-15.031-1.7812l5.9062-3.3125zm33.125 14.156c2.2508 18.112 4.275 36.347 5.375 54.625-0.38286 0.4677-0.79665 0.90173-1.2188 1.3438l-0.5312-2.25c-0.59928 0.54742-1.2132 1.0034-1.8125 1.4375l-0.9375-2.2188-2.75 1.5312-2.9062-10c-2.4515-2.2934-4.9966-3.6299-7.625-4.6875l-0.0625-4.3438-2.9375-0.0625-0.5625-3.125-5.5625 1.375 1 3.125-2.5938 1.2812 2.0312 2.6875c-2.0822 1.9909-3.8324 4.2795-5.4375 6.7188-0.77121 4.1802-1.1096 8.4108-1.3438 12.656l-3.6562-0.9062-0.2188 3c-1.1354-0.24862-2.2865-0.564-3.4375-0.90625l-0.4062 3.5c-7.3596-2.351-13.77-6.8568-16.219-11.031 0.75269-18.085 1.8739-35.924 3.625-53.344 7.1022 4.0916 15.416 5.1372 23.469 5.5 8.552 0.052639 17.46-1.0948 24.719-5.9062zm-6.625 13c-1.7291 1.7211-2.4447 4.3734-2.8125 6.8125l0.9688 8.9062-2.25 1.0625 0.7812 3.7188c1.5518-0.14491 2.9136-0.74149 4.1875-1.5l0.7812 2.5625c-0.050568 0.56381 4.7032-1.014 6.875-3.1875l-0.8438-2.9688 1.7812-1.625-1.0625-4.5938-2 1.25-1.125-9.1562c-1.6215-1.054-3.3907-1.2828-5.2812-1.2812zm-31.562 0.8438c-1.7276 1.0334-2.6215-0.57352-5.25 3.3125l-0.3438 8.1875c-0.73495-0.30973-1.4743-0.63792-2.1875-1l-0.4375 4.5312c0.92006 0.72099 0.71899 1.1664 3 1.9062l-0.25 2.875c2.207 1.0639 4.7309 1.8107 7.6875 2.125l-0.0625-3.0938c1.4681 0.32903 2.9579 0.56681 4.5 0.5625l0.4062-3.875c-0.79286-0.098892-1.5775-0.22953-2.3438-0.375l-0.125-9.9688c-0.74915-2.4017-2.5312-3.8984-4.5938-5.1875zm33.562 0.125c1.1846 0.013977 1.3012 0.44978 2.375 1l1.4375 8.625c-0.8008 0.81769-1.6161 1.6161-2.9062 1.7812l-0.9062-11.406zm-34.875 0.9062c0.62996 3.8854 0.32395 7.7708 0.15625 11.656-1.3734 0.15237-2.3849-0.60027-3.4375-1.25l0.3438-7.875c0.88409-1.0339 1.5887-2.4268 2.9375-2.5312zm32.156 0.4062l2.7188 10.656c-0.95018 1.3429-2.151 1.4324-3.25 2.0312l-0.5625-8.1562v-0.03125c-0.011261-1.9217 0.12057-2.8838 1.0938-4.5zm-29.969 0.1562c1.4529 0.87836 2.0124 1.9478 2.7188 3.7188l0.125 9.1562c-1.5332-0.016991-2.6922-0.78232-3.9062-1.4375 0.16149-3.8896 0.11311-7.8631 1.0625-11.438zm38.906 7.2188l0.6875 3.9062c-0.50314 0.7393-1.0002 1.4348-1.7812 1.6562-0.73058 0.20715-1.5467 0.35131-2.375 0.625l-1-2.5625c0.9983-0.65891 1.894-1.4349 2.625-2.4375l1.8438-1.1875zm-47.094 2.2812c1.5474 0.7491 3.7435 2.2466 5.5312 2.5 0.09539 0.036201 0.18544 0.09005 0.28125 0.125l-0.4688 3.3438c-1.7576-0.55858-4.146-0.82326-5.7812-2l0.4375-3.9688zm42.156 1.6562l0.875 2.375c-2.1241 1.4112-4.6257 3.6645-7.1562 4.125l-0.75-3.0312c2.128-1.138 4.3566-1.5854 6.5-3.1562 0.18296-0.10111 0.35324-0.20502 0.53125-0.3125zm-35.781 1.1875c0.45071 0.15185 0.91586 0.27969 1.375 0.40625 1.941 0.87917 4.2124 1.3082 6.0625 1.5938l-0.3438 2.7812c-2.3002-0.10033-5.3564-0.89933-7.6562-1.5312l0.5625-3.25zm39.75 1.0312l0.3438 2c-0.64101 1.4348-3.0296 3.0556-5.6562 3.375l-0.6875-2.4375c1.1309-0.71137 2.2096-1.5155 3.3125-2.2812l0.0625-0.0312v0.03125c0.76733-0.29082 1.6831-0.38918 2.625-0.65625zm-43.594 2.0938c0.75309 0.22707 1.6922 0.48426 3 0.78125 1.1572 0.2943 2.3072 0.59991 3.4688 0.875l0.1562 2.75c-1.9911-0.31344-5.0077-1.0591-6.875-1.9062l0.25-2.5zm26.531 1.9688l0.6562 2.75v0.1875h0.0625l0.7188 3c-0.85621-0.30074-1.7219-0.59817-2.5938-0.90625-0.45081 0.29154-0.88965 0.61916-1.3125 0.9375l-1.875-4.8125 4.3438-1.1562zm1.125 2.9688l2.3125 0.0625 0.125 3.6875c-0.61991-0.24103-1.2462-0.46508-1.875-0.6875l-0.5625-3.0625zm-5.0312 1.4062l0.6875 2.1562c-0.40142 0.32823-0.77826 0.68065-1.1562 1.0312l-1.7188-2.25 2.1875-0.9375zm2.9688 1.25c0.031563-0.005814 0.062347 0.004517 0.09375 0 6.2884 1.5318 8.5643 4.1535 12.188 6.4062 1.537 4.9818 3.1393 10.143 3.875 15.438-0.5438 0.34596-1.086 0.68084-1.6562 1l-3.9688-15.25c-2.5264-3.0999-6.1298-4.412-9.7812-5.6875-3.3708 1.9002-5.3583 4.4686-6.7188 8.0312l-1.4375 17.969c-0.80103 0.027229-1.5977 0.013199-2.4062-0.03125-0.19735-6.2926-0.059769-12.458 1.0312-18.688 2.259-3.7316 5.5447-6.9632 8.7188-9.1562 0.022346-0.004784 0.040199-0.027153 0.0625-0.03125zm0.875 3.0312c0.88891 0.37046 1.7856 0.59163 2.6562 0.8125l0.25 2.6562c-0.90871 0.082413-1.8136 0.19843-2.7188 0.3125l-0.2812-3.6562h-0.09375c0.062561-0.043251 0.12478-0.081306 0.1875-0.125zm-1.0625 0.75l0.25 3.125c-1.2406 0.1482-2.5449 0.3187-3.0625 0.375l-0.0312-1.0312c0.83873-1.0183 1.8165-1.7528 2.8438-2.4688zm4.75 0.3438c0.30888 0.086792 0.60863 0.17484 0.90625 0.28125 0.87179 0.31171 1.6965 0.73774 2.4688 1.4375-1.0314 0.23611-2.032 0.45975-3.1562 0.53125l-0.2188-2.25zm3.9375 2.3125c0.37557 0.42798 0.74252 0.91556 1.0938 1.5312l0.5312 2-1.2188 0.125c-0.022232-0.19568-0.041443-0.46994-0.0625-0.65625-0.10757-0.95165-0.2188-1.777-0.28125-2.4062-0.031288-0.31527-0.046867-0.38901-0.0625-0.59375zm-0.9375 0.5938c0.004257 0.043892-0.004601 0.047371 0 0.09375 0.063232 0.6372 0.17338 1.4833 0.28125 2.4375 0.021217 0.18767 0.040131 0.45987 0.0625 0.65625l-2.7188 0.3125-0.3125-3.1562c1.1388-0.1396 2.3589-0.30271 2.6875-0.34375zm-3.6875 0.4375l0.3125 3.1875-2.8438 0.3438-0.2188-3.1875c0.91792-0.1049 1.8341-0.22323 2.75-0.34375zm-7.8438 0.1875l0.125 3.9375-1.3125 0.1562 0.1562-1.5625c0.27354-0.99818 0.63589-1.8159 1.0312-2.5312zm4.0938 0.2812l0.2188 3.1562-3.1875 0.375-0.125-3.1875c0.54504-0.057457 1.8652-0.19802 3.0938-0.34375zm10.25 3l0.875 3.4062-1.7812 0.375c-0.15252-1.281-0.30554-2.473-0.4375-3.625l1.3438-0.1562zm-2.3438 0.2812c0.13491 1.1713 0.28144 2.3838 0.4375 3.6875l-2.8125 0.5625-0.375-3.9375 2.75-0.3125zm-3.75 0.4375l0.375 4-2.9062 0.5625-0.3125-4.2188 2.8438-0.3438zm-3.8438 0.4688l0.3125 4.2812-3.375 0.6562-0.1562-4.5625 3.2188-0.375zm-4.2188 0.5l0.1562 4.6562-2.0625 0.4062 0.4688-4.9062 1.4375-0.1562zm21.375 2.625l0.75 2c-0.69753 0.46853-1.3962 0.89587-2.0938 1.3438l-0.6562-2.3125 0.0312 0.0312 1.9688-1.0625zm-6.0938 0.0938l1.0938 4.0938-2.5 0.5c-0.17316-1.4067-0.3473-2.8138-0.53125-4.2188l1.9375-0.375zm9.1875 0.5l0.5312 1.9688c-1.2496 1.2609-2.6596 2.4273-4.1875 3.4688l-0.6562-2.3125c1.4742-0.86725 2.9488-1.7049 4.3125-3.125zm-12.094 0.0625c0.15511 1.4087 0.35002 2.8132 0.53125 4.2188l-2.9688 0.5938-0.4062-4.25 2.8438-0.5625zm-3.8438 0.75l0.4062 4.25-3.0312 0.5938-0.3125-4.2812 2.9375-0.5625zm-3.9375 0.75l0.3125 4.3125-3.5625 0.7188-0.1562-4.375 3.4062-0.6562zm-4.4062 0.875l0.1875 4.3438-2.8125 0.5625 0.5625-4.3438 2.0625-0.5625zm16.438 2.125l0.5 1.875c-0.91594 0.28718-1.8668 0.5735-2.8438 0.84375-0.059052-0.46542-0.18133-1.3928-0.28125-2.1875l2.625-0.5312zm-3.5938 0.7188c0.1025 0.8187 0.22379 1.8259 0.28125 2.2812-0.98249 0.26188-2.0116 0.50458-3.0312 0.75l-0.25-2.4375 3-0.5938zm-22.969 0.1875l3.1875 0.7812c-0.037762 0.70903-0.091042 1.416-0.125 2.125-1.0707-0.055779-2.1514-0.21438-3.25-0.4375l0.1875-2.4688zm18.969 0.625l0.25 2.4375c-1.028 0.24007-2.0508 0.46378-3.0938 0.6875l-0.1875-2.5312 3.0312-0.5938zm-4.0312 0.8125l0.1875 2.5312c-1.2383 0.25911-2.4616 0.51372-3.6875 0.75l-0.0938-2.5625 3.5938-0.7188zm-18.656 0.5625c2.2575 0.76302 4.5237 1.1809 6.7812 1.5-0.046558 0.98719-0.1085 1.983-0.15625 2.9688-2.3018-0.2052-4.6165-0.6699-6.8438-1.3438l0.2188-3.125zm14.062 0.3438l0.0938 2.5625c-1.0725 0.2026-2.1512 0.40874-3.1875 0.59375-0.03376 0.006027-0.062363 0.020943-0.09375 0.03125l0.1562-2.5312 3.0312-0.6562z" fill-rule="evenodd"/>
</svg>
