<?xml version="1.0" encoding="UTF-8"?>
<svg viewBox="0 0 744.09447 1052.362179" xmlns="http://www.w3.org/2000/svg">
 <defs>
  <filter id="a" x="-.0307" y="-.49694" width="1.0614" height="1.9939">
   <feGaussianBlur stdDeviation=".3358"/>
  </filter>
  <filter id="e" x="-.02303" y="-.3727" width="1.046" height="1.7454">
   <feGaussianBlur stdDeviation=".25185"/>
  </filter>
  <filter id="d" x="-.00602" y="-2.196" width="1.012" height="5.392">
   <feGaussianBlur stdDeviation="1.84858"/>
  </filter>
  <linearGradient id="c" x1="758.12" x2="790.19" y1="543.25" y2="508.9" gradientTransform="matrix(1.1016 0 0 1.0334 -18.095 -11.793)" gradientUnits="userSpaceOnUse">
   <stop stop-color="#3d3d3d" offset="0"/>
   <stop stop-color="#3d3d3d" stop-opacity="0" offset="1"/>
  </linearGradient>
  <linearGradient id="b" x1="757.61" x2="775.8" y1="513.45" y2="530.87" gradientTransform="matrix(1.1016 0 0 1.0334 -18.095 -11.793)" gradientUnits="userSpaceOnUse">
   <stop stop-color="#2e3436" offset="0"/>
   <stop stop-color="#2e3436" stop-opacity="0" offset="1"/>
  </linearGradient>
 </defs>
 <g transform="matrix(.90776 0 0 .96766 16.426 11.412)">
  <path d="m311.08 5.2779-310 523.93" fill="none" stroke="#000" stroke-width="1.067"/>
  <path d="m-6.6024 544.59c0.74035 1.4351 47.857 0.1785 47.857 0.1785l14.286-13.929h-47.857s-15.751 10.909-14.286 13.75z" fill="#75507b" fill-opacity=".99216"/>
  <path transform="matrix(1,0,.71489,-.69923,0,0)" d="m554.48-779.35h3.438v19.92h-3.438z" fill="#ad7fa8" fill-opacity=".99216"/>
  <path transform="matrix(1,0,.71489,-.69923,0,0)" d="m575.73-779.35h3.438v19.92h-3.438z" fill="#ad7fa8" fill-opacity=".99216"/>
  <path transform="matrix(1,0,.71489,-.69923,0,0)" d="m570.19-779.35h3.438v19.92h-3.438z" fill="#ad7fa8" fill-opacity=".99216"/>
  <path transform="matrix(1,0,.71489,-.69923,0,0)" d="m565.02-779.35h3.438v19.92h-3.438z" fill="#ad7fa8" fill-opacity=".99216"/>
  <path transform="matrix(1,0,.71489,-.69923,0,0)" d="m559.48-779.35h3.438v19.92h-3.438z" fill="#ad7fa8" fill-opacity=".99216"/>
  <path transform="matrix(1,0,.71489,-.69923,0,0)" d="m592.16-779.35h3.438v19.92h-3.438z" fill="#ad7fa8" fill-opacity=".99216"/>
  <path transform="matrix(1,0,.71489,-.69923,0,0)" d="m586.62-779.35h3.438v19.92h-3.438z" fill="#ad7fa8" fill-opacity=".99216"/>
  <path transform="matrix(1,0,.71489,-.69923,0,0)" d="m581.09-779.35h3.438v19.92h-3.438z" fill="#ad7fa8" fill-opacity=".99216"/>
  <path d="m-7.6738 511.35c0.74035-1.4352 47.857-0.1786 47.857-0.1786l14.286 13.929h-47.857s-15.751-10.909-14.286-13.75z" fill="#75507b" fill-opacity=".99216"/>
  <path transform="matrix(1,0,.71489,.69923,0,0)" d="m-526.01 731.05h3.438v19.92h-3.438z" fill="#ad7fa8" fill-opacity=".99216"/>
  <path transform="matrix(1,0,.71489,.69923,0,0)" d="m-504.76 731.05h3.438v19.92h-3.438z" fill="#ad7fa8" fill-opacity=".99216"/>
  <path transform="matrix(1,0,.71489,.69923,0,0)" d="m-510.12 731.05h3.438v19.92h-3.438z" fill="#ad7fa8" fill-opacity=".99216"/>
  <path transform="matrix(1,0,.71489,.69923,0,0)" d="m-515.47 731.05h3.438v19.92h-3.438z" fill="#ad7fa8" fill-opacity=".99216"/>
  <path transform="matrix(1,0,.71489,.69923,0,0)" d="m-521.01 731.05h3.438v19.92h-3.438z" fill="#ad7fa8" fill-opacity=".99216"/>
  <path transform="matrix(1,0,.71489,.69923,0,0)" d="m-488.33 731.05h3.438v19.92h-3.438z" fill="#ad7fa8" fill-opacity=".99216"/>
  <path transform="matrix(1,0,.71489,.69923,0,0)" d="m-493.87 731.05h3.438v19.92h-3.438z" fill="#ad7fa8" fill-opacity=".99216"/>
  <path transform="matrix(1,0,.71489,.69923,0,0)" d="m-499.4 731.05h3.438v19.92h-3.438z" fill="#ad7fa8" fill-opacity=".99216"/>
  <path d="m291.08 0.54578c516.7 74.865 490.22 992.09 0 1057.6 478.91-112.46 468.1-959.38 0-1057.6z" fill="#502d16" fill-opacity=".99216"/>
  <path d="m284.44-0.52302c492.93 73.676 511.78 959.84-0.50508 1060.2 511.78-106.35 498.86-979.71 0.50508-1060.2z" fill="#a05a2c" fill-opacity=".99216"/>
  <path d="m535.36 594.92c8e-3 -0.68995 0.86577-1.33 2.4079-1.7644s3.7688-0.6623 6.5161-0.62997 6.0153 0.32479 9.6415 0.82009 7.6105 1.1923 11.792 1.9315c-4.1974 0.64066-8.197 1.2437-11.834 1.6535s-6.9108 0.62533-9.6581 0.593-4.968-0.31247-6.4995-0.78312-2.3739-1.1307-2.3657-1.8206 0.86577-1.33 2.4079-1.7644 3.7688-0.6623 6.5161-0.62997 6.0153 0.32479 9.6415 0.82009 7.6105 1.1923 11.792 1.9315c-4.1974 0.64066-8.197 1.2437-11.834 1.6535s-6.9108 0.62533-9.6581 0.593-4.968-0.31247-6.4995-0.78312-2.3739-1.1307-2.3657-1.8206z" fill-rule="evenodd"/>
  <g transform="translate(21.076 -548.51)" fill-opacity=".99216">
   <path d="m636.19 1046.3a13.511 1.5659 0 0 1 13.511 1.5659v3.6868a13.511 1.5659 0 0 1 -13.511 1.5659 13.511 1.5659 0 0 1 -13.511 -1.5659v-3.6868a13.511 1.5659 0 0 1 13.511 -1.5659" fill="#fc0" stroke="#683717" stroke-opacity=".97596" stroke-width=".74688"/>
   <path d="m636.45 1083.4a13.511 1.5659 0 0 1 13.511 1.5659v3.6868a13.511 1.5659 0 0 1 -13.511 1.5659 13.511 1.5659 0 0 1 -13.511 -1.5659v-3.6868a13.511 1.5659 0 0 1 13.511 -1.5659" fill="#fc0" stroke="#683717" stroke-opacity=".97596" stroke-width=".74688"/>
   <path d="m636.7 1077.1a13.511 1.5659 0 0 1 13.511 1.5659v3.6868a13.511 1.5659 0 0 1 -13.511 1.5659 13.511 1.5659 0 0 1 -13.511 -1.5659v-3.6868a13.511 1.5659 0 0 1 13.511 -1.5659" fill="#fc0" stroke="#683717" stroke-opacity=".97596" stroke-width=".74688"/>
   <path d="m636.95 1071a13.511 1.5659 0 0 1 13.511 1.5659v3.6868a13.511 1.5659 0 0 1 -13.511 1.5659 13.511 1.5659 0 0 1 -13.511 -1.5659v-3.6868a13.511 1.5659 0 0 1 13.511 -1.5659" fill="#fc0" stroke="#683717" stroke-opacity=".97596" stroke-width=".74688"/>
   <path d="m636.7 1064.7a13.511 1.5659 0 0 1 13.511 1.5659v3.6868a13.511 1.5659 0 0 1 -13.511 1.5659 13.511 1.5659 0 0 1 -13.511 -1.5659v-3.6868a13.511 1.5659 0 0 1 13.511 -1.5659" fill="#fc0" stroke="#683717" stroke-opacity=".97596" stroke-width=".74688"/>
   <path d="m636.45 1058.7a13.511 1.5659 0 0 1 13.511 1.5659v3.6868a13.511 1.5659 0 0 1 -13.511 1.5659 13.511 1.5659 0 0 1 -13.511 -1.5659v-3.6868a13.511 1.5659 0 0 1 13.511 -1.5659" fill="#fc0" stroke="#683717" stroke-opacity=".97596" stroke-width=".74688"/>
   <path d="m636.45 1052.6a13.511 1.5659 0 0 1 13.511 1.5659v3.6868a13.511 1.5659 0 0 1 -13.511 1.5659 13.511 1.5659 0 0 1 -13.511 -1.5659v-3.6868a13.511 1.5659 0 0 1 13.511 -1.5659" fill="#fc0" stroke="#683717" stroke-opacity=".97596" stroke-width=".74688"/>
   <path d="m636.19 1102.1a13.511 1.5659 0 0 1 13.511 1.5659v3.6868a13.511 1.5659 0 0 1 -13.511 1.5659 13.511 1.5659 0 0 1 -13.511 -1.5659v-3.6868a13.511 1.5659 0 0 1 13.511 -1.5659" fill="#fc0" stroke="#683717" stroke-opacity=".97596" stroke-width=".74688"/>
   <path d="m636.19 1096a13.511 1.5659 0 0 1 13.511 1.5659v3.6868a13.511 1.5659 0 0 1 -13.511 1.5659 13.511 1.5659 0 0 1 -13.511 -1.5659v-3.6868a13.511 1.5659 0 0 1 13.511 -1.5659" fill="#fc0" stroke="#683717" stroke-opacity=".97596" stroke-width=".74688"/>
   <path d="m636.45 1089.7a13.511 1.5659 0 0 1 13.511 1.5659v3.6868a13.511 1.5659 0 0 1 -13.511 1.5659 13.511 1.5659 0 0 1 -13.511 -1.5659v-3.6868a13.511 1.5659 0 0 1 13.511 -1.5659" fill="#fc0" stroke="#683717" stroke-opacity=".97596" stroke-width=".74688"/>
   <path d="m623.04 1103.3c8.9884-1.5597 16.31-0.6645 25.893-0.5357l0.35714 1.1607c-13.393-1.2797-16.458-0.744-26.161 0.089z" fill="#483e37" filter="url(#a)" opacity=".65306"/>
   <path d="m623.04 1103.3c8.9884-1.5597 16.31-0.6645 25.893-0.5357l0.35714 1.1607c-13.393-1.2797-16.458-0.744-26.161 0.089z" fill="#483e37" filter="url(#a)" opacity=".65306"/>
   <path transform="matrix(1 0 0 -1 37.857 2123.7)" d="m585.27 1071.7c8.9884-1.5597 16.31-0.6645 25.893-0.5357l0.35714 1.1607c-13.393-1.2797-16.458-0.744-26.161 0.089z" fill="#483e37" filter="url(#a)" opacity=".67347"/>
   <path d="m623.21 1047.5c8.9884-1.5597 16.31-0.6645 25.893-0.5357l0.35714 1.1607c-13.393-1.2797-16.458-0.744-26.161 0.089z" fill="#483e37" filter="url(#a)" opacity=".65306"/>
   <path d="m623.39 1053.7c8.9884-1.5597 16.31-0.6645 25.893-0.5357l0.35714 1.1607c-13.393-1.2797-16.458-0.744-26.161 0.089z" fill="#483e37" filter="url(#a)" opacity=".65306"/>
   <path d="m623.48 1059.9c8.9884-1.5597 16.31-0.6645 25.893-0.5357l0.35714 1.1607c-13.393-1.2797-16.458-0.744-26.161 0.089z" fill="#483e37" filter="url(#a)" opacity=".65306"/>
   <path d="m623.75 1065.9c8.9884-1.5597 16.31-0.6645 25.893-0.5357l0.35714 1.1607c-13.393-1.2797-16.458-0.744-26.161 0.089z" fill="#483e37" filter="url(#a)" opacity=".65306"/>
   <path d="m623.84 1072.3c8.9884-1.5597 16.31-0.6645 25.893-0.5357l0.35714 1.1607c-13.393-1.2797-16.458-0.744-26.161 0.089z" fill="#483e37" filter="url(#a)" opacity=".65306"/>
   <path d="m623.66 1078.3c8.9884-1.5597 16.31-0.6645 25.893-0.5357l0.35714 1.1607c-13.393-1.2797-16.458-0.744-26.161 0.089z" fill="#483e37" filter="url(#a)" opacity=".65306"/>
   <path d="m623.3 1084.7c8.9884-1.5597 16.31-0.6645 25.893-0.5357l0.35714 1.1607c-13.393-1.2797-16.458-0.744-26.161 0.089z" fill="#483e37" filter="url(#a)" opacity=".65306"/>
   <path d="m623.13 1090.8c8.9884-1.5597 16.31-0.6645 25.893-0.5357l0.35714 1.1607c-13.393-1.2797-16.458-0.744-26.161 0.089z" fill="#483e37" filter="url(#a)" opacity=".65306"/>
   <path d="m623.04 1097.1c8.9884-1.5597 16.31-0.6645 25.893-0.5357l0.35714 1.1607c-13.393-1.2797-16.458-0.744-26.161 0.089z" fill="#483e37" filter="url(#e)" opacity=".70612"/>
   <path transform="matrix(1 0 0 -1 37.768 2160.9)" d="m585.27 1071.7c8.9884-1.5597 16.31-0.6645 25.893-0.5357l0.35714 1.1607c-13.393-1.2797-16.458-0.744-26.161 0.089z" fill="#483e37" filter="url(#a)" opacity=".67347"/>
   <path transform="matrix(1 0 0 -1 38.304 2154.6)" d="m585.27 1071.7c8.9884-1.5597 16.31-0.6645 25.893-0.5357l0.35714 1.1607c-13.393-1.2797-16.458-0.744-26.161 0.089z" fill="#483e37" filter="url(#a)" opacity=".67347"/>
   <path transform="matrix(1 0 0 -1 38.75 2148.4)" d="m585.27 1071.7c8.9884-1.5597 16.31-0.6645 25.893-0.5357l0.35714 1.1607c-13.393-1.2797-16.458-0.744-26.161 0.089z" fill="#483e37" filter="url(#a)" opacity=".67347"/>
   <path transform="matrix(1 0 0 -1 38.304 2142.1)" d="m585.27 1071.7c8.9884-1.5597 16.31-0.6645 25.893-0.5357l0.35714 1.1607c-13.393-1.2797-16.458-0.744-26.161 0.089z" fill="#483e37" filter="url(#a)" opacity=".67347"/>
   <path transform="matrix(1 0 0 -1 38.304 2130)" d="m585.27 1071.7c8.9884-1.5597 16.31-0.6645 25.893-0.5357l0.35714 1.1607c-13.393-1.2797-16.458-0.744-26.161 0.089z" fill="#483e37" filter="url(#a)" opacity=".67347"/>
   <path transform="matrix(1 0 0 -1 37.857 2179.7)" d="m585.27 1071.7c8.9884-1.5597 16.31-0.6645 25.893-0.5357l0.35714 1.1607c-13.393-1.2797-16.458-0.744-26.161 0.089z" fill="#483e37" filter="url(#a)" opacity=".67347"/>
   <path transform="matrix(1 0 0 -1 38.036 2173.5)" d="m585.27 1071.7c8.9884-1.5597 16.31-0.6645 25.893-0.5357l0.35714 1.1607c-13.393-1.2797-16.458-0.744-26.161 0.089z" fill="#483e37" filter="url(#a)" opacity=".67347"/>
   <path transform="matrix(1 0 0 -1 37.857 2167.2)" d="m585.27 1071.7c8.9884-1.5597 16.31-0.6645 25.893-0.5357l0.35714 1.1607c-13.393-1.2797-16.458-0.744-26.161 0.089z" fill="#483e37" filter="url(#a)" opacity=".67347"/>
  </g>
  <path transform="matrix(.00498 .99999 -1 .00020667 0 0)" d="m524.46-754.84h7.4369v757.61h-7.4369z" fill="#603110" fill-opacity=".99216"/>
  <path d="m754.0453,511.82997 43.55036,16.4448-42.41759,16.3494 2.39226-12.7074c-1.49752.264-3.0407.254-4.65712-.1955-1.8501.5902-3.5808.5834-5.1928-.017-1.86115.4783-3.74925.687-5.72861-.017-1.00177.5528-2.00353.6635-3.0053.028l-.0189-7.4025c.8926-.4813 1.74508-1.0671 2.8705-.035 1.89434-.6419 3.78868-.4567 5.68301-.035 1.76029-.6896 3.52079-.348 5.28129.01 1.56273-.5281 3.24559-.3354 4.92408-.169z" fill="#b8b8b8" fill-opacity=".99216"/>
  <path d="m755.05545,544.81597 42.54021-16.4448-40.01848.4444-.007.081c-1.49752-.264-2.91443-.5066-4.53085-.057-1.8501-.5902-4.56146-.1092-4.56146-.1092l-6.35995.017-3.51037-.2806 .3599,3.867c.8926.4813 1.74508,1.0671 2.8705.035 1.89434.6419 3.78868.4567 5.68301.035 1.76029.6896 3.52079.348 5.28129-.01 1.56273.5281 3.24559.3354 4.92408.169z" fill="url(#c)"/>
  <path d="m753.79 511.96 43.55 16.445-40.018-0.4444-7e-3 -0.081c-1.4975 0.264-2.9144 0.5066-4.5308 0.057-1.8501 0.5902-4.5615 0.1092-4.5615 0.1092l-6.36-0.017-3.3841 0.1543 0.23364-3.7407c0.8926-0.4813 1.7451-1.0671 2.8705-0.035 1.8943-0.6419 3.7887-0.4567 5.683-0.035 1.7603-0.6896 3.5208-0.348 5.2813 0.01 1.5627-0.5281 3.2456-0.3354 4.9241-0.169z" fill="url(#b)"/>
  <path d="m-0.13703 526.07h737.41v2.0203h-737.41z" fill="#e9b96e" fill-opacity=".99216" filter="url(#d)"/>
  <path d="m311.08 1053.8-310-521.79" fill="none" stroke="#000" stroke-width="1.067"/>
  <path transform="matrix(.45449,-.89075,.92402,.38236,0,0)" d="m104.19 284.83h2.0333v0.81367h-2.0333z" fill="#555753" fill-opacity=".99216"/>
  <path transform="matrix(.45449,-.89075,.92402,.38236,0,0)" d="m105.84 289.14h2.0333v0.81367h-2.0333z" fill="#555753" fill-opacity=".99216"/>
  <path transform="matrix(.45449,-.89075,.92402,.38236,0,0)" d="m114.17 280.98h2.0333v0.81367h-2.0333z" fill="#555753" fill-opacity=".99216" stroke="#080504" stroke-opacity=".97596" stroke-width=".10687"/>
  <path transform="matrix(.45449,-.89075,.92402,.38236,0,0)" d="m114.02 280.19h2.0333v0.81367h-2.0333z" fill="#555753" fill-opacity=".99216" stroke="#080504" stroke-opacity=".97596" stroke-width=".10687"/>
  <path transform="matrix(-.60252,-.79811,-.96305,.26934,0,0)" d="m-1181.6 415.04h2.2693v1.1551h-2.2693z" fill="#555753" fill-opacity=".99216" stroke="#080504" stroke-opacity=".97596" stroke-width=".11059"/>
  <path transform="matrix(-.60252,-.79811,-.96305,.26934,0,0)" d="m-1181.6 413.99h2.2693v1.1551h-2.2693z" fill="#555753" fill-opacity=".99216" stroke="#080504" stroke-opacity=".97596" stroke-width=".11059"/>
  <path transform="matrix(-.60252,-.79811,-.96305,.26934,0,0)" d="m-1181.6 413h2.2693v1.1551h-2.2693z" fill="#555753" fill-opacity=".99216" stroke="#080504" stroke-opacity=".97596" stroke-width=".11059"/>
 </g>
</svg>
